M48
;Layer_Color=9474304
;FILE_FORMAT=2:4
INCH,LZ
;TYPE=PLATED
T01F00S00C0.0079
T02F00S00C0.0080
T04F00S00C0.0354
T05F00S00C0.0402
T06F00S00C0.0630
;TYPE=NON_PLATED
T07F00S00C0.0256
T08F00S00C0.0295
T09F00S00C0.0413
T10F00S00C0.1280
%
T01
X034955Y012503
Y012897
X03525Y0127
X035545Y012897
Y012503
T02
X0045Y006
X006
X0075
X009
X0105
X012
X0135
X015
Y0075
X0135
X012
X0105
X009
Y009
X0089Y0098
X009Y0105
X00895Y0109
Y0111
X0087Y0121
X00955Y01195
X00985
X0101
X0105Y012
X01035Y01175
Y01145
X0106
X01055Y0109
X0103
X0104Y01035
X0105Y01005
X01035Y0095
Y0089
X0107Y009
X01115Y0093
X012Y0105
X0135
X015
Y012
X0135
Y0135
Y01385
X01375Y01435
X0142Y01445
Y01475
X01485Y0148
X0151Y01455
X0153Y015
X0156Y01495
X01345Y0147
X01225Y0144
X012Y015
X01265Y0156
X0111Y0154
X011Y01405
X0105Y0135
X0103Y0147
X009Y015
Y0135
X0075
Y015
Y012
X00765Y01175
X0075Y0105
X00685Y01065
X006Y0105
Y012
Y0135
X0045
Y015
Y012
Y0105
Y009
X006
Y0075
X0075
X0078Y00895
X0045Y0075
X012Y012
Y0135
X016Y013855
X01625Y014433
X01685Y0145
X0165Y01495
X01595Y0149
X01805Y01485
X0182Y01505
Y01545
X01795Y01525
X018Y012
X018475Y012225
X019575Y011825
X019791
X020875Y011875
X021075
Y011675
X02085
X020575Y010825
X020375
Y010575
X020575
X020775Y010425
X021075
X020125Y010475
X019875
X020275Y012575
X020925Y012925
X019259Y012995
X0165Y012
Y0105
X0176Y0091
X018Y009
X0184Y0093
Y00795
Y0077
X0178Y0076
X0176
X017605Y008105
X0176Y0066
X018Y006
X0184Y00635
X0195Y006
X019Y00755
Y00785
Y0085
X0206Y00785
X021Y0075
Y009
X02255Y0083
X02315Y0081
X02375Y0082
X02385Y00885
X0247Y0092
X02615Y0089
X027Y009
X0285
X0284Y0082
X0289Y0069
X0279Y0066
X027Y0075
X0253Y00745
X0237Y0065
X023111Y010039
X0225Y0105
Y012
X024
X0255Y013295
X02565Y01405
X02585Y0143
X025964Y0146
X0263Y0144
X02655Y0146
X0267Y01495
X026553Y015184
X02615Y01525
Y015
X026145Y013995
X02535Y0143
X02505Y0146
X0248Y0147
X024845Y015
X025193Y015608
X02745Y0152
X0277Y01495
X027344Y014394
X027Y0135
X02725Y0123
X02795
X0285Y012
X0289Y01095
X02815Y01085
X028154Y010624
X02815Y0101
X02855Y0099
X02985Y01035
Y0106
Y01085
X0306Y0108
Y0105
X0309
Y0108
X0304Y0113
X03Y012
Y0135
X02959Y01429
X0287Y01425
X0286Y01455
X02925Y0149
X03075Y01475
X03105Y014795
X03Y009
X0299Y00785
X0306Y0079
X03035Y00625
X03105
X0271Y01065
X0268Y0106
X0266Y01095
X02685Y01135
X0271Y01115
X0165Y0075
Y006
X0315
X032Y00625
X0327
X033Y006
X0345
X03505Y00645
X0354
X03605Y00635
X036Y006
X0375
X039
X0405
X04095Y00825
Y0086
Y009
X0405
X04095Y00945
Y00985
Y0102
X0414
Y00985
Y00945
Y00905
Y00865
Y00825
X0405Y0105
X03925Y0104
Y0106
Y0108
X03905Y010804
Y011
Y010602
Y0104
X039255Y010195
X039Y009
Y0075
X0375
X03785Y00825
X0364
X03535Y0086
X03515Y0078
X03485
X034094Y00825
X033525Y007716
X033Y0075
X0325Y00745
X0343Y00705
X0357Y00735
X0354Y00975
X03575Y0101
X0361Y00975
X03655Y01005
Y01045
X0363
X03675Y01075
X03695Y0101
X037Y0097
X03775Y00985
Y01045
X0368Y0116
X0366
X0364
X0369Y0125
X03715
Y01275
X0369
Y0133
Y0135
X036
X03495Y01365
X0345Y0139
Y01425
X03425Y01485
X03335Y01445
Y0142
X03285Y0141
X0327Y0145
X0317Y0141
X0314Y014075
X0331Y01335
X03335
Y01305
X0331
Y01275
X03335
Y01245
Y0122
X0331
Y01245
X0336Y01265
X03385
X0341
Y0129
X03385
X0336
X0344Y0128
Y0126
X0342Y0108
X034
X0338
X03425Y00995
X03465Y009451
X0315Y009
X03135Y00865
X0316Y01035
X0318Y01055
X0316Y0108
X03125Y0113
X03645Y0148
X0366Y01529
X0368Y0151
X03865Y01475
X039Y015
X039712Y01525
Y01425
Y01375
Y01325
X0406
X041208
Y01375
Y01425
Y01475
Y01525
X0405Y015
Y012
X041208Y01575
X0405Y0165
X0407Y01715
X041
X0413
X0416
X03975Y01845
X0398Y01885
X03975Y019721
X03955
X0394Y0206
X03945Y02105
X0397Y02215
Y0224
X039Y0225
Y024
Y0255
Y027
X03755Y0271
Y02685
Y0266
Y02635
X0373
X03705
X0368
X03655
Y0266
X0368
X03705
X0373
Y02685
X03705
X0368
X03655
Y0271
X0368
X03705
X0373
Y02735
Y0276
X03705
X0368
Y02735
X03655
Y0276
X03625
Y02735
Y0271
Y02685
Y0266
Y02635
X036Y0255
X0375
Y024
Y0225
Y021
X038Y0208
X03805Y02005
X0378Y01925
X037695Y01845
X038005
X038Y0177
X037445Y0178
X0375Y0165
X037Y0162
X0367Y0161
X0353Y01695
X0357Y01745
X036Y018
Y0195
Y021
Y0225
X0354
X0355Y0223
X03525
X0352Y0221
X03545
X03495
X0345Y021
Y0195
Y018
X033
Y0195
Y021
Y0225
X03335Y02235
X03355
X0339Y0235
X0341
Y0237
Y0239
X0339
Y0237
X033Y024
X03345Y025
X033Y0255
Y027
X0337Y02765
X033Y0285
X0317Y02865
X03705Y02735
X03755
Y0276
X04005Y0285
Y02925
X0414Y02745
X0411Y0239
Y02365
Y02335
X0408
X04045Y02165
X04135Y0214
X0417Y0211
X03805Y02155
X039Y018
Y0165
X039712Y01575
X0315Y018
X036Y024
X03Y0255
Y027
X0285
Y0255
X02585Y02535
X0255Y0255
X024
Y027
X0225
X0227Y02815
Y0286
Y02905
Y02995
Y03035
Y03085
X0237
Y03035
Y02995
Y029
Y0286
Y0282
X021Y0286
X0211Y0298
Y0306
X01965
Y0298
X0195Y0285
X0177Y0283
X01755Y02865
X0171Y02845
X0165Y0285
X015648Y028049
X01585Y02715
X01625Y02665
X0165Y0264
X01585Y02625
X0164Y0252
X017Y0249
X01695Y0236
X0173
X01775Y0237
X01805Y0236
X0185Y0234
X01825Y02405
X0185Y02485
X0187
X0189
X0191
X0193
X0192Y025
X019
X0188
X0186
X0185Y02565
X0187Y02605
Y0263
X019162Y026392
X01915Y0261
X0191Y0268
X0187Y0271
X0183Y0261
X018Y0255
X01735Y0273
X01725Y02785
X0175Y0279
X018Y03
X01865Y03085
X01675Y03105
X0162
X01565
X01575Y0236
X0162
X01615Y0238
X0165Y024
X0166Y0236
X0192Y0238
X01945
X0197
X0199
X0198Y0236
X02
Y0234
Y02255
X0195Y021
X018
X0172Y020445
X01685Y0204
Y019805
X01755Y02
X0183Y0183
X0177Y0176
X01715Y0162
Y01595
X01685Y01585
X01655Y0159
X01625Y015755
X0159Y0159
X0182Y01585
X018Y01565
X0164Y01855
X021Y0195
X0215Y01925
X021345Y02005
X020982Y020455
X02065Y0204
X0225Y021
X02275Y021895
X0235
X02385Y02275
Y02315
Y0236
Y024
X0245
Y0236
Y02315
Y02275
X0252Y022931
X02535Y0227
Y0236
Y0241
X0223Y0236
X022045Y02315
X0226Y022605
X021738Y023993
X0214Y024
X021Y0255
X0225
X019989Y0262
X0201Y0266
X0208Y0275
X0196Y02455
X0225Y0195
X0226Y01905
Y0187
X02345Y0189
X023933Y018757
X0239Y01915
X024048Y019382
X024Y02
X02375Y0201
X02345Y02005
X0232
X02315Y0193
X024545Y0192
Y018757
X024563Y018443
X024248
Y018128
Y017813
X024563
Y017498
X024248Y017495
Y016868
Y016555
X02455Y01655
X024563Y016238
X024251Y016241
X024248Y015923
X024563
X025157
X025211Y016303
X024878Y016238
Y016553
Y016868
X025193
X024563
X024904Y017579
X024897Y017827
X024878Y018128
X025193
Y018443
X025822
X026137
Y018128
X025822
X026452
Y017813
X02675Y0178
X026751Y0175
X026137Y017498
X025822
X026137Y017813
Y016868
X025822Y016553
X026137Y016238
Y015923
X025822
X026452
X02675Y016235
X026745Y01656
X02755Y0167
X0279Y016645
X02775Y01645
X0282Y01605
X02855Y0161
X02905Y01695
X0295Y0172
X02975Y0174
X03Y018
X0297Y01835
X0294Y0181
X0291Y0176
X028745Y017401
X02845Y01735
X028353Y01785
X0286Y0181
X02795Y0183
X0281Y0185
X02845Y0189
X02875Y018855
X029Y0187
X0292Y02
X02965Y01995
X0296Y02025
X030631Y02035
X0312Y01935
X0309Y01865
X027755Y01761
X0275Y01785
X02677Y018434
X026767Y018757
X026452Y018793
X026117Y018757
X026005Y01955
X025667Y0193
X025688Y019907
X0257Y020189
Y020699
X02675Y02005
Y0194
X027Y0215
X0279Y02205
X028137Y02235
X03Y0225
X029316Y02135
X029Y021
X024715Y0199
X02456Y01971
X024405Y01995
X024563Y018128
X02345Y017495
X023173Y017193
X0225Y01685
X02205Y016881
X0221Y016612
X023148Y016173
X02295Y01581
X022543Y017655
X0218Y017844
X021819Y018269
X0297Y02865
X0307
X0153Y02955
X015Y03
X0135
Y0285
X0143Y02855
Y02825
X0144Y0279
Y0271
X01435Y0265
X01495Y02585
X014689Y024939
X01535Y0249
X015Y024
X01495Y02355
X01535Y0236
X01455
X0138Y024
X0135
X0127Y0241
X012Y024
X0117Y0244
X01175Y02515
X011799Y0259
X013Y02591
Y02515
X0134Y02265
X013746Y022669
X01405
X013836Y02153
X0137Y02135
X013547Y021448
X0134Y0203
X013085Y020265
X01275Y0203
X01245
X0121
X01155Y0214
X01115Y02135
X0119Y0218
X0114Y02335
X009Y024
Y021
Y0195
Y018
X0099Y0183
X01015Y01855
X01035Y01875
X01025Y01695
X0106
X01185Y01705
X012Y018
X01295Y017745
X01315
X01335
X0144Y0177
Y0175
Y0173
X01465Y01685
X015Y017
X01545Y0169
X0151Y0177
X01505Y01965
X01485Y0199
X01465Y02025
X0143Y020255
X0135Y0195
X0137Y0169
Y01595
X0131Y0159
X012753Y015903
X0121Y0159
X0153
X0156Y015755
X0075Y0165
X00708Y0162
X006281Y0157
X006Y0165
X0045
X00445Y0159
X0039Y0157
Y0182
X0045Y018
Y0195
X003919Y0207
X0039Y0216
X00395Y02225
X005
X0045Y024
Y0255
Y027
X006
Y0285
X0045
Y03
X00865Y03075
X01035Y03045
X0114Y03075
X0105Y0285
Y027
X013Y02815
X0075Y0255
Y0225
Y0195
X00708Y018
X006281Y0182
Y0207
T04
X008222Y0258
Y0268
Y0278
Y0288
X009222Y0283
Y0273
Y0263
Y0253
T05
X011123Y024898
Y025898
Y028202
Y029202
T06
X006922Y02394
Y03016
T07
X04016Y008112
Y010388
T08
X025121Y008667
T09
X024063Y007609
T10
X005722Y0248
Y0293
M30
