G04*
G04 #@! TF.GenerationSoftware,Altium Limited,Altium Designer,24.0.1 (36)*
G04*
G04 Layer_Color=16711935*
%FSLAX44Y44*%
%MOMM*%
G71*
G04*
G04 #@! TF.SameCoordinates,043D453D-7082-4CC0-88CE-E1747F565096*
G04*
G04*
G04 #@! TF.FilePolarity,Positive*
G04*
G01*
G75*
%ADD10C,0.2540*%
%ADD18C,0.1270*%
D10*
X105410Y824230D02*
G03*
X74930Y793750I0J-30480D01*
G01*
X1075690D02*
G03*
X1045210Y824230I-30480J0D01*
G01*
Y129540D02*
G03*
X1075690Y160020I0J30480D01*
G01*
X74930D02*
G03*
X105410Y129540I30480J0D01*
G01*
X74930Y158750D02*
Y793750D01*
X105410Y824230D02*
X1045210D01*
X1075690Y158750D02*
Y793750D01*
X104140Y129540D02*
X1046480D01*
D18*
X899161Y308610D02*
X903696D01*
X904603Y308912D01*
X905208Y309517D01*
X905510Y310424D01*
Y311028D01*
X905208Y311936D01*
X904603Y312540D01*
X903696Y312842D01*
X899161D01*
Y316107D02*
X899464Y315201D01*
X900068Y314898D01*
X900673D01*
X901278Y315201D01*
X901580Y315805D01*
X901882Y317014D01*
X902185Y317921D01*
X902789Y318526D01*
X903394Y318828D01*
X904301D01*
X904905Y318526D01*
X905208Y318224D01*
X905510Y317317D01*
Y316107D01*
X905208Y315201D01*
X904905Y314898D01*
X904301Y314596D01*
X903394D01*
X902789Y314898D01*
X902185Y315503D01*
X901882Y316410D01*
X901580Y317619D01*
X901278Y318224D01*
X900673Y318526D01*
X900068D01*
X899464Y318224D01*
X899161Y317317D01*
Y316107D01*
M02*
