G04*
G04 #@! TF.GenerationSoftware,Altium Limited,Altium Designer,24.0.1 (36)*
G04*
G04 Layer_Physical_Order=2*
G04 Layer_Color=32768*
%FSLAX44Y44*%
%MOMM*%
G71*
G04*
G04 #@! TF.SameCoordinates,043D453D-7082-4CC0-88CE-E1747F565096*
G04*
G04*
G04 #@! TF.FilePolarity,Negative*
G04*
G01*
G75*
%ADD153C,1.0160*%
%ADD154R,25.7810X7.2390*%
%ADD155C,3.6056*%
%ADD156C,1.2556*%
%ADD157C,1.3756*%
%ADD158C,1.1056*%
%ADD159C,1.4056*%
%ADD160C,1.0056*%
%ADD161C,0.5588*%
D153*
X1046795Y128306D02*
G03*
X1076924Y158435I-1585J31714D01*
G01*
X1076964Y793750D02*
G03*
X1045210Y825504I-31754J0D01*
G01*
X105410D02*
G03*
X73656Y793750I0J-31754D01*
G01*
X73696Y158435D02*
G03*
X103825Y128306I31714J1585D01*
G01*
X1046480Y128266D01*
X1046795Y128306D01*
X1076924Y158435D02*
X1076964Y158750D01*
Y793750D01*
X105410Y825504D02*
X1045210D01*
X73656Y158750D02*
Y793750D01*
Y158750D02*
X73696Y158435D01*
D154*
X960755Y790575D02*
D03*
D155*
X145331Y744220D02*
D03*
Y629920D02*
D03*
D156*
X234231Y642620D02*
D03*
Y668020D02*
D03*
Y693420D02*
D03*
Y718820D02*
D03*
X208831Y706120D02*
D03*
Y680720D02*
D03*
Y655320D02*
D03*
D157*
X282531Y632420D02*
D03*
Y741720D02*
D03*
Y657820D02*
D03*
Y716320D02*
D03*
D158*
X638070Y220131D02*
D03*
D159*
X611200Y193261D02*
D03*
D160*
X1020060Y263850D02*
D03*
Y206050D02*
D03*
D161*
X694527Y365597D02*
D03*
X674451Y385673D02*
D03*
X880110Y240043D02*
D03*
X869950Y252730D02*
D03*
X958850Y250190D02*
D03*
X299690Y657860D02*
D03*
X363220Y725170D02*
D03*
X869950Y377190D02*
D03*
X632376Y452810D02*
D03*
X365760Y708660D02*
D03*
Y688340D02*
D03*
X364490Y673100D02*
D03*
X363220Y717550D02*
D03*
X330200Y658101D02*
D03*
Y638810D02*
D03*
X802640Y262890D02*
D03*
X991870Y279400D02*
D03*
X571500Y427990D02*
D03*
X560070Y428772D02*
D03*
X561340Y421935D02*
D03*
X462280Y382270D02*
D03*
Y402590D02*
D03*
X587948Y410789D02*
D03*
X582930Y401574D02*
D03*
X457200Y397510D02*
D03*
X462280Y392430D02*
D03*
X455930Y387350D02*
D03*
X458470Y377190D02*
D03*
X449580Y447040D02*
D03*
X588585Y436691D02*
D03*
X553720Y453228D02*
D03*
X554208Y464038D02*
D03*
X383540Y449580D02*
D03*
X381000Y431800D02*
D03*
X647700Y337693D02*
D03*
X464820Y464820D02*
D03*
X416560Y471170D02*
D03*
X445770Y508000D02*
D03*
X427990Y518160D02*
D03*
Y503047D02*
D03*
X382270Y499110D02*
D03*
X412750Y366589D02*
D03*
X427990Y368300D02*
D03*
X388620Y381000D02*
D03*
X396240Y379730D02*
D03*
X419100D02*
D03*
X360680Y367030D02*
D03*
Y374650D02*
D03*
X405130Y378460D02*
D03*
X574040Y474980D02*
D03*
X546100Y488950D02*
D03*
X328930Y450723D02*
D03*
X334010D02*
D03*
X339090D02*
D03*
X307340Y403860D02*
D03*
X332740D02*
D03*
X321310Y396240D02*
D03*
X342900Y351790D02*
D03*
X412750Y400177D02*
D03*
X396240D02*
D03*
X636270Y370840D02*
D03*
X629920Y373380D02*
D03*
X643890Y363220D02*
D03*
X464820Y662940D02*
D03*
X283210Y236220D02*
D03*
X262890Y476250D02*
D03*
X508000Y572770D02*
D03*
X603250Y510540D02*
D03*
X610810Y492300D02*
D03*
X607060Y486410D02*
D03*
X595630Y480060D02*
D03*
Y509270D02*
D03*
X619887Y506730D02*
D03*
X627761Y505460D02*
D03*
X965200Y449580D02*
D03*
X957453Y468630D02*
D03*
X965327D02*
D03*
X851535Y195997D02*
D03*
X906780Y443230D02*
D03*
X751596Y362976D02*
D03*
X755650Y441960D02*
D03*
X749300Y436880D02*
D03*
X784860Y473710D02*
D03*
X792480Y491490D02*
D03*
X742950Y378460D02*
D03*
X746760Y459740D02*
D03*
X754380Y466090D02*
D03*
X737870Y430530D02*
D03*
X739140Y447040D02*
D03*
X939800Y411480D02*
D03*
X929640Y388366D02*
D03*
X896620Y430530D02*
D03*
X708660Y422783D02*
D03*
X704850Y417830D02*
D03*
X725170Y408940D02*
D03*
X716280Y407670D02*
D03*
X703580Y379730D02*
D03*
X697230Y386080D02*
D03*
X722630Y440690D02*
D03*
X709930Y312420D02*
D03*
X793750Y287020D02*
D03*
X704977Y447282D02*
D03*
X698500Y453390D02*
D03*
X655890Y468440D02*
D03*
X663890D02*
D03*
X663361Y476440D02*
D03*
X679955Y468216D02*
D03*
X679450Y452120D02*
D03*
X679481Y444500D02*
D03*
X730123Y441978D02*
D03*
X720154Y453390D02*
D03*
X730250Y478917D02*
D03*
X736600Y474980D02*
D03*
X726440Y459740D02*
D03*
X722630Y480060D02*
D03*
X713740Y469900D02*
D03*
X709930Y464820D02*
D03*
X797560Y357505D02*
D03*
X805180Y358140D02*
D03*
X664083Y355473D02*
D03*
X656590Y643890D02*
D03*
X855980Y702310D02*
D03*
X1017270Y723900D02*
D03*
Y742950D02*
D03*
X664210Y387350D02*
D03*
Y381000D02*
D03*
X663890Y404440D02*
D03*
X678180Y379730D02*
D03*
X651510Y356870D02*
D03*
X656590Y363220D02*
D03*
X674370Y370840D02*
D03*
X668020Y365760D02*
D03*
X659482Y370840D02*
D03*
X542163Y509270D02*
D03*
X532945Y519557D02*
D03*
X651953Y490220D02*
D03*
X660527Y496570D02*
D03*
X652473Y505640D02*
D03*
X699770Y424180D02*
D03*
X934720Y383540D02*
D03*
X788670Y375793D02*
D03*
X781050Y374650D02*
D03*
X406400Y351917D02*
D03*
X631063Y381000D02*
D03*
X302260Y553720D02*
D03*
X377190Y505460D02*
D03*
X257810Y471170D02*
D03*
X251460Y464820D02*
D03*
X269240Y430530D02*
D03*
X524510Y518160D02*
D03*
X332360Y514730D02*
D03*
X363220Y514477D02*
D03*
X372110Y514350D02*
D03*
Y427990D02*
D03*
X392430Y429260D02*
D03*
X316230Y515620D02*
D03*
X262890Y226060D02*
D03*
X271780Y228600D02*
D03*
X262890Y241300D02*
D03*
X266700Y255270D02*
D03*
X615965Y412515D02*
D03*
X615890Y420497D02*
D03*
Y404440D02*
D03*
X412750Y676910D02*
D03*
X559943Y588010D02*
D03*
X566420Y599440D02*
D03*
X552143Y609420D02*
D03*
X543560Y609600D02*
D03*
X438150Y707390D02*
D03*
X469900Y651510D02*
D03*
X440690Y693420D02*
D03*
X444500Y708660D02*
D03*
X486721Y670355D02*
D03*
X486410Y662940D02*
D03*
X474980Y661670D02*
D03*
X449580Y718820D02*
D03*
X474980Y668020D02*
D03*
X434340Y722630D02*
D03*
X445770Y727710D02*
D03*
X419100Y670560D02*
D03*
X293370Y543560D02*
D03*
X351425Y546855D02*
D03*
X934720Y294640D02*
D03*
X623890Y404440D02*
D03*
X639890Y396440D02*
D03*
X671890Y460440D02*
D03*
X655890Y444440D02*
D03*
X847090Y309880D02*
D03*
Y316230D02*
D03*
Y323850D02*
D03*
Y331470D02*
D03*
Y339090D02*
D03*
X840740Y309880D02*
D03*
Y316230D02*
D03*
Y323850D02*
D03*
Y331470D02*
D03*
Y339090D02*
D03*
X447175Y205875D02*
D03*
X482600Y215900D02*
D03*
Y199390D02*
D03*
X485140Y680720D02*
D03*
X397510Y788670D02*
D03*
X411480D02*
D03*
X425450D02*
D03*
X652780Y525765D02*
D03*
Y512812D02*
D03*
X643890Y599440D02*
D03*
X640080Y582442D02*
D03*
X643890Y576580D02*
D03*
X588010Y490220D02*
D03*
X615890Y468440D02*
D03*
X623814Y500624D02*
D03*
X623443Y476440D02*
D03*
X577850Y556133D02*
D03*
X574040Y574167D02*
D03*
X679450Y492760D02*
D03*
X283210Y542290D02*
D03*
X655890Y460440D02*
D03*
X289560Y593090D02*
D03*
X663890Y412440D02*
D03*
X679450Y412375D02*
D03*
X679315Y420624D02*
D03*
X885190Y198120D02*
D03*
X866140Y321310D02*
D03*
Y327660D02*
D03*
X595630Y444373D02*
D03*
X615890D02*
D03*
X623890Y444440D02*
D03*
X615890Y452440D02*
D03*
X623890D02*
D03*
X671890D02*
D03*
X436880Y519303D02*
D03*
X307340Y515620D02*
D03*
X260350Y430530D02*
D03*
X323850Y515620D02*
D03*
X347980Y542290D02*
D03*
X344105Y544785D02*
D03*
X655890Y404440D02*
D03*
Y420440D02*
D03*
X671890Y404440D02*
D03*
X639890Y428440D02*
D03*
X300990Y433070D02*
D03*
X681990Y288290D02*
D03*
X508000Y594360D02*
D03*
X226060Y248920D02*
D03*
X420370Y403860D02*
D03*
X996950Y264160D02*
D03*
Y269240D02*
D03*
Y274320D02*
D03*
X991870Y264160D02*
D03*
X997080Y258950D02*
D03*
X991870Y269285D02*
D03*
Y274410D02*
D03*
X951103Y452120D02*
D03*
X932180Y408940D02*
D03*
X1059180Y535940D02*
D03*
X966470Y509270D02*
D03*
X1002030Y534670D02*
D03*
X966470Y547370D02*
D03*
X965200Y528320D02*
D03*
X639890Y468440D02*
D03*
X159540Y398780D02*
D03*
X99540Y525780D02*
D03*
X127000Y565150D02*
D03*
X99060Y548640D02*
D03*
X100330Y565150D02*
D03*
X623890Y468440D02*
D03*
Y460440D02*
D03*
X482600Y635000D02*
D03*
X487680D02*
D03*
X502920Y599440D02*
D03*
X508000D02*
D03*
X500380Y604520D02*
D03*
X505460D02*
D03*
X623570Y420370D02*
D03*
X623890Y412440D02*
D03*
X615890Y428440D02*
D03*
X631890Y412440D02*
D03*
Y420440D02*
D03*
X427990Y402590D02*
D03*
X403860Y403860D02*
D03*
X663890Y460440D02*
D03*
X323915Y403925D02*
D03*
X388620Y403860D02*
D03*
X514985Y319405D02*
D03*
X530225Y301625D02*
D03*
X535305D02*
D03*
Y296545D02*
D03*
X529590D02*
D03*
X623890Y428440D02*
D03*
X576580Y760730D02*
D03*
X601980D02*
D03*
Y783590D02*
D03*
X576580D02*
D03*
X601980Y770890D02*
D03*
X576580D02*
D03*
X1009650Y468630D02*
D03*
X1000760Y523240D02*
D03*
X680720Y269240D02*
D03*
X675640Y278130D02*
D03*
X721360Y208280D02*
D03*
X807720Y267970D02*
D03*
X587016Y254994D02*
D03*
X906780Y186690D02*
D03*
X897890Y218440D02*
D03*
X892810Y198120D02*
D03*
X788670Y158750D02*
D03*
X812800D02*
D03*
X825500Y189230D02*
D03*
X777240Y200660D02*
D03*
X605790Y224790D02*
D03*
X708660Y167640D02*
D03*
X1009650Y500922D02*
D03*
X1051560Y697230D02*
D03*
X379730Y656590D02*
D03*
X389890Y632460D02*
D03*
X373107Y633457D02*
D03*
X322580Y612140D02*
D03*
X289560Y781050D02*
D03*
X452120Y193040D02*
D03*
X447040D02*
D03*
X467360Y195580D02*
D03*
Y201930D02*
D03*
X198120Y227330D02*
D03*
X220980Y307340D02*
D03*
X227330Y281940D02*
D03*
Y276860D02*
D03*
X261620D02*
D03*
X267970D02*
D03*
X262890Y290830D02*
D03*
X269240D02*
D03*
X715010Y256540D02*
D03*
X734060Y278130D02*
D03*
X298450Y638810D02*
D03*
X297180Y619760D02*
D03*
X262890Y773430D02*
D03*
X494030Y604520D02*
D03*
X477520Y635000D02*
D03*
X472440D02*
D03*
X485140Y631190D02*
D03*
X490220D02*
D03*
X480060D02*
D03*
X474980D02*
D03*
X487680Y604520D02*
D03*
X469900Y631190D02*
D03*
X431800Y632460D02*
D03*
X1008380Y562610D02*
D03*
Y568960D02*
D03*
X1004570Y500922D02*
D03*
X866140Y596900D02*
D03*
Y601980D02*
D03*
Y607060D02*
D03*
X861060Y596900D02*
D03*
Y601980D02*
D03*
Y607060D02*
D03*
X159540Y462280D02*
D03*
Y525780D02*
D03*
X929640Y294640D02*
D03*
X1046680Y336550D02*
D03*
X1031240D02*
D03*
X1046680Y400050D02*
D03*
X1008680Y336550D02*
D03*
Y349250D02*
D03*
Y361950D02*
D03*
Y387350D02*
D03*
Y400050D02*
D03*
X937260Y337820D02*
D03*
Y342900D02*
D03*
X924560Y294640D02*
D03*
X859790Y321310D02*
D03*
X853440D02*
D03*
X859790Y327660D02*
D03*
X853440D02*
D03*
X805180Y727710D02*
D03*
X779780D02*
D03*
X754380D02*
D03*
X607890Y476440D02*
D03*
X679890D02*
D03*
X615890Y460440D02*
D03*
X631890D02*
D03*
M02*
