G04*
G04 #@! TF.GenerationSoftware,Altium Limited,Altium Designer,24.0.1 (36)*
G04*
G04 Layer_Color=16711935*
%FSLAX44Y44*%
%MOMM*%
G71*
G04*
G04 #@! TF.SameCoordinates,043D453D-7082-4CC0-88CE-E1747F565096*
G04*
G04*
G04 #@! TF.FilePolarity,Positive*
G04*
G01*
G75*
%ADD14C,0.2000*%
D14*
X212940Y256510D02*
Y284510D01*
Y256510D02*
X223940D01*
Y284510D01*
X212940D02*
X223940D01*
X180292Y230720D02*
X202414D01*
Y241720D01*
X180292D02*
X202414D01*
X180292Y230720D02*
Y241720D01*
X212940Y231092D02*
Y253214D01*
Y231092D02*
X223940D01*
Y253214D01*
X212940D02*
X223940D01*
X721808Y432518D02*
Y441242D01*
X704083Y432518D02*
X721808D01*
X704083D02*
Y441242D01*
X721808D01*
X452540Y169279D02*
Y191401D01*
X441540D02*
X452540D01*
X441540Y169279D02*
Y191401D01*
Y169279D02*
X452540D01*
X477421Y160009D02*
Y198131D01*
X457299D02*
X477421D01*
X457299Y160009D02*
Y198131D01*
Y160009D02*
X477421D01*
X452540Y207379D02*
Y229501D01*
X441540D02*
X452540D01*
X441540Y207379D02*
Y229501D01*
Y207379D02*
X452540D01*
X477421Y200029D02*
Y238151D01*
X457299D02*
X477421D01*
X457299Y200029D02*
Y238151D01*
Y200029D02*
X477421D01*
X613201Y208894D02*
X632293Y227986D01*
X621686Y238593D02*
X632293Y227986D01*
X602594Y219501D02*
X621686Y238593D01*
X602594Y219501D02*
X613201Y208894D01*
X110479Y393799D02*
X148601D01*
Y413921D01*
X110479D02*
X148601D01*
X110479Y393799D02*
Y413921D01*
X647760Y422100D02*
X655260D01*
Y408100D02*
Y422100D01*
X647760Y408100D02*
X655260D01*
X647760D02*
Y422100D01*
X645220Y408320D02*
X652720D01*
Y394320D02*
Y408320D01*
X645220Y394320D02*
X652720D01*
X645220D02*
Y408320D01*
X585530Y493380D02*
X593030D01*
X585530D02*
Y507380D01*
X593030D01*
Y493380D02*
Y507380D01*
X628710Y408130D02*
X636210D01*
Y394130D02*
Y408130D01*
X628710Y394130D02*
X636210D01*
X628710D02*
Y408130D01*
X603310Y492300D02*
X610810D01*
X603310D02*
Y506300D01*
X610810D01*
Y492300D02*
Y506300D01*
X654890Y457260D02*
Y464760D01*
X640890Y457260D02*
X654890D01*
X640890D02*
Y464760D01*
X654890D01*
X668080Y462900D02*
X675580D01*
X668080D02*
Y476900D01*
X675580D01*
Y462900D02*
Y476900D01*
X654890Y445830D02*
Y453330D01*
X640890Y445830D02*
X654890D01*
X640890D02*
Y453330D01*
X654890D01*
X640730Y433130D02*
Y440630D01*
X626730Y433130D02*
X640730D01*
X626730D02*
Y440630D01*
X640730D01*
X648130Y422970D02*
Y430470D01*
X662130D01*
Y422970D02*
Y430470D01*
X648130Y422970D02*
X662130D01*
X640920Y443290D02*
Y450790D01*
X626920Y443290D02*
X640920D01*
X626920D02*
Y450790D01*
X640920D01*
X651940Y435670D02*
Y443170D01*
X665940D01*
Y435670D02*
Y443170D01*
X651940Y435670D02*
X665940D01*
X683200Y493570D02*
Y507570D01*
X675700D02*
X683200D01*
X675700Y493570D02*
Y507570D01*
Y493570D02*
X683200D01*
X635060Y427370D02*
X642560D01*
Y413370D02*
Y427370D01*
X635060Y413370D02*
X642560D01*
X635060D02*
Y427370D01*
X575510Y479370D02*
Y488370D01*
X591260D01*
Y479370D02*
Y488370D01*
X575510Y479370D02*
X591260D01*
X366369Y678279D02*
Y698401D01*
X404491D01*
Y678279D02*
Y698401D01*
X366369Y678279D02*
X404491D01*
X366399Y655419D02*
Y675541D01*
X404521D01*
Y655419D02*
Y675541D01*
X366399Y655419D02*
X404521D01*
X366369Y699869D02*
Y719991D01*
X404491D01*
Y699869D02*
Y719991D01*
X366369Y699869D02*
X404491D01*
X192379Y308511D02*
X230501D01*
X192379Y288389D02*
Y308511D01*
Y288389D02*
X230501D01*
Y308511D01*
X329539Y431899D02*
Y452021D01*
X367661D01*
Y431899D02*
Y452021D01*
X329539Y431899D02*
X367661D01*
X176670Y245620D02*
X206870D01*
Y277620D01*
X176670D02*
X206870D01*
X176670Y245620D02*
Y277620D01*
X721808Y449028D02*
Y457752D01*
X704083Y449028D02*
X721808D01*
X704083D02*
Y457752D01*
X721808D01*
X572599Y443731D02*
X590721D01*
Y452889D01*
X572599D02*
X590721D01*
X572599Y443731D02*
Y452889D01*
X668521Y431629D02*
X677679D01*
X668521D02*
Y449751D01*
X677679D01*
Y431629D02*
Y449751D01*
X102822Y543140D02*
X124944D01*
Y554140D01*
X102822D02*
X124944D01*
X102822Y543140D02*
Y554140D01*
X147689Y383960D02*
X169811D01*
X147689Y372960D02*
Y383960D01*
Y372960D02*
X169811D01*
Y383960D01*
M02*
