G04*
G04 #@! TF.GenerationSoftware,Altium Limited,Altium Designer,24.0.1 (36)*
G04*
G04 Layer_Color=0*
%FSLAX44Y44*%
%MOMM*%
G71*
G04*
G04 #@! TF.SameCoordinates,043D453D-7082-4CC0-88CE-E1747F565096*
G04*
G04*
G04 #@! TF.FilePolarity,Positive*
G04*
G01*
G75*
%ADD12C,0.1000*%
%ADD174C,0.0500*%
D12*
X974170Y468630D02*
X984170D01*
X979170Y463630D02*
Y473630D01*
X974170Y449580D02*
X984170D01*
X979170Y444580D02*
Y454580D01*
X726630Y187390D02*
Y197390D01*
X721630Y192390D02*
X731630D01*
X496650Y199390D02*
X506650D01*
X501650Y194390D02*
Y204390D01*
X887770Y176615D02*
Y186615D01*
X882770Y181615D02*
X892770D01*
X775765Y270630D02*
X785765D01*
X780765Y265630D02*
Y275630D01*
X768350Y541630D02*
Y547630D01*
X765350Y544630D02*
X771350D01*
X519040Y691740D02*
Y701040D01*
X514390Y696390D02*
X523690D01*
X720790Y167640D02*
X730790D01*
X725790Y162640D02*
Y172640D01*
X775400Y167640D02*
X785400D01*
X780400Y162640D02*
Y172640D01*
X816040Y167640D02*
X826040D01*
X821040Y162640D02*
Y172640D01*
X695390Y302260D02*
X705390D01*
X700390Y297260D02*
Y307260D01*
X725170Y264860D02*
Y274860D01*
X720170Y269860D02*
X730170D01*
X526495Y314245D02*
X536495D01*
X531495Y309245D02*
Y319245D01*
X873840Y209550D02*
X883840D01*
X878840Y204550D02*
Y214550D01*
X915670Y173450D02*
Y183450D01*
X910670Y178450D02*
X920670D01*
X526495Y281925D02*
X536495D01*
X531495Y276925D02*
Y286925D01*
X901780Y209550D02*
X911780D01*
X906780Y204550D02*
Y214550D01*
X482056Y322025D02*
Y332025D01*
X477056Y327025D02*
X487056D01*
X464265Y296545D02*
X474265D01*
X469265Y291545D02*
Y301545D01*
X499745Y267415D02*
Y277415D01*
X494745Y272415D02*
X504745D01*
X725327Y562690D02*
Y572690D01*
X720327Y567690D02*
X730327D01*
X680800Y534670D02*
X690800D01*
X685800Y529670D02*
Y539670D01*
X767874Y511890D02*
Y521890D01*
X762874Y516890D02*
X772874D01*
X739617Y553720D02*
X749617D01*
X744617Y548720D02*
Y558720D01*
X925830Y274480D02*
Y284480D01*
X920830Y279480D02*
X930830D01*
X928370Y306770D02*
Y316770D01*
X923370Y311770D02*
X933370D01*
X859790Y293150D02*
Y303150D01*
X854790Y298150D02*
X864790D01*
X859790Y345820D02*
Y355820D01*
X854790Y350820D02*
X864790D01*
X888430Y356870D02*
X898430D01*
X893430Y351870D02*
Y361870D01*
X487030Y589360D02*
Y599360D01*
X482030Y594360D02*
X492030D01*
X505460Y612220D02*
Y622220D01*
X500460Y617220D02*
X510460D01*
X469900Y612300D02*
Y622300D01*
X464900Y617300D02*
X474900D01*
X308690Y676910D02*
X318690D01*
X313690Y671910D02*
Y681910D01*
X230070Y781050D02*
X240070D01*
X235070Y776050D02*
Y786050D01*
X308570Y753110D02*
X318570D01*
X313570Y748110D02*
Y758110D01*
X514755Y726440D02*
X524755D01*
X519755Y721440D02*
Y731440D01*
X308690Y715010D02*
X318690D01*
X313690Y710010D02*
Y720010D01*
X515700Y665480D02*
X525700D01*
X520700Y660480D02*
Y670480D01*
X369570Y611570D02*
Y621570D01*
X364570Y616570D02*
X374570D01*
X430530Y611570D02*
Y621570D01*
X425530Y616570D02*
X435530D01*
X389890Y611570D02*
Y621570D01*
X384890Y616570D02*
X394890D01*
X410210Y612220D02*
Y622220D01*
X405210Y617220D02*
X415210D01*
X450850Y612220D02*
Y622220D01*
X445850Y617220D02*
X455850D01*
X849630Y616110D02*
Y626110D01*
X844630Y621110D02*
X854630D01*
X876380Y568960D02*
X886380D01*
X881380Y563960D02*
Y573960D01*
X974170Y488950D02*
X984170D01*
X979170Y483950D02*
Y493950D01*
X776050Y295910D02*
X786050D01*
X781050Y290910D02*
Y300910D01*
X589021Y542429D02*
Y552429D01*
X584021Y547429D02*
X594021D01*
X334090Y558800D02*
X344090D01*
X339090Y553800D02*
Y563800D01*
X487680Y612220D02*
Y622220D01*
X482680Y617220D02*
X492680D01*
X1040210Y234950D02*
X1050210D01*
X1045210Y229950D02*
Y239950D01*
X685880Y751180D02*
X695880D01*
X690880Y746180D02*
Y756180D01*
X767080Y188040D02*
Y198040D01*
X762080Y193040D02*
X772080D01*
X825500Y197347D02*
Y207347D01*
X820500Y202347D02*
X830500D01*
X696893Y256540D02*
X706893D01*
X701893Y251540D02*
Y261540D01*
X507365Y322025D02*
Y332025D01*
X502365Y327025D02*
X512365D01*
X858520Y184230D02*
Y194230D01*
X853520Y189230D02*
X863520D01*
X928370Y345520D02*
Y355520D01*
X923370Y350520D02*
X933370D01*
X309080Y638810D02*
X319080D01*
X314080Y633810D02*
Y643810D01*
X308690Y657860D02*
X318690D01*
X313690Y652860D02*
Y662860D01*
X397510Y766380D02*
Y776380D01*
X392510Y771380D02*
X402510D01*
X411480Y766770D02*
Y776770D01*
X406480Y771770D02*
X416480D01*
X425450Y766770D02*
Y776770D01*
X420450Y771770D02*
X430450D01*
X308690Y619760D02*
X318690D01*
X313690Y614760D02*
Y624760D01*
X267170Y594070D02*
X277170D01*
X272170Y589070D02*
Y599070D01*
X267170Y781050D02*
X277170D01*
X272170Y776050D02*
Y786050D01*
X308690Y695960D02*
X318690D01*
X313690Y690960D02*
Y700960D01*
X308690Y734060D02*
X318690D01*
X313690Y729060D02*
Y739060D01*
X490220Y691813D02*
Y701813D01*
X485220Y696813D02*
X495220D01*
X1051560Y731183D02*
Y741183D01*
X1046560Y736183D02*
X1056560D01*
X1051560Y706200D02*
Y716200D01*
X1046560Y711200D02*
X1056560D01*
X975023Y547370D02*
X985023D01*
X980023Y542370D02*
Y552370D01*
X974170Y528320D02*
X984170D01*
X979170Y523320D02*
Y533320D01*
X974170Y509270D02*
X984170D01*
X979170Y504270D02*
Y514270D01*
D174*
X158830Y687070D02*
X168830D01*
X163830Y682070D02*
Y692070D01*
M02*
