G04*
G04 #@! TF.GenerationSoftware,Altium Limited,Altium Designer,24.0.1 (36)*
G04*
G04 Layer_Color=32896*
%FSLAX44Y44*%
%MOMM*%
G71*
G04*
G04 #@! TF.SameCoordinates,043D453D-7082-4CC0-88CE-E1747F565096*
G04*
G04*
G04 #@! TF.FilePolarity,Positive*
G04*
G01*
G75*
%ADD12C,0.1000*%
D12*
X218440Y265510D02*
Y275510D01*
X213440Y270510D02*
X223440D01*
X186353Y236220D02*
X196353D01*
X191353Y231220D02*
Y241220D01*
X218440Y237153D02*
Y247153D01*
X213440Y242153D02*
X223440D01*
X712946Y431880D02*
Y441880D01*
X707946Y436880D02*
X717946D01*
X447040Y175340D02*
Y185340D01*
X442040Y180340D02*
X452040D01*
X467360Y174070D02*
Y184070D01*
X462360Y179070D02*
X472360D01*
X447040Y213440D02*
Y223440D01*
X442040Y218440D02*
X452040D01*
X467360Y214090D02*
Y224090D01*
X462360Y219090D02*
X472360D01*
X613908Y220208D02*
X620979Y227279D01*
X613908D02*
X620979Y220208D01*
X124540Y403860D02*
X134540D01*
X129540Y398860D02*
Y408860D01*
X646510Y415100D02*
X656510D01*
X651510Y410100D02*
Y420100D01*
X643970Y401320D02*
X653970D01*
X648970Y396320D02*
Y406320D01*
X584280Y500380D02*
X594280D01*
X589280Y495380D02*
Y505380D01*
X627460Y401130D02*
X637460D01*
X632460Y396130D02*
Y406130D01*
X602060Y499300D02*
X612060D01*
X607060Y494300D02*
Y504300D01*
X647890Y456010D02*
Y466010D01*
X642890Y461010D02*
X652890D01*
X666830Y469900D02*
X676830D01*
X671830Y464900D02*
Y474900D01*
X647890Y444580D02*
Y454580D01*
X642890Y449580D02*
X652890D01*
X633730Y431880D02*
Y441880D01*
X628730Y436880D02*
X638730D01*
X655130Y421720D02*
Y431720D01*
X650130Y426720D02*
X660130D01*
X633920Y442040D02*
Y452040D01*
X628920Y447040D02*
X638920D01*
X658940Y434420D02*
Y444420D01*
X653940Y439420D02*
X663940D01*
X679450Y495570D02*
Y505570D01*
X674450Y500570D02*
X684450D01*
X633810Y420370D02*
X643810D01*
X638810Y415370D02*
Y425370D01*
X583385Y478870D02*
Y488870D01*
X578385Y483870D02*
X588385D01*
X385430Y683340D02*
Y693340D01*
X380430Y688340D02*
X390430D01*
X385460Y660480D02*
Y670480D01*
X380460Y665480D02*
X390460D01*
X385430Y704930D02*
Y714930D01*
X380430Y709930D02*
X390430D01*
X206440Y298450D02*
X216440D01*
X211440Y293450D02*
Y303450D01*
X348600Y436960D02*
Y446960D01*
X343600Y441960D02*
X353600D01*
X186770Y261620D02*
X196770D01*
X191770Y256620D02*
Y266620D01*
X712946Y448390D02*
Y458390D01*
X707946Y453390D02*
X717946D01*
X576660Y448310D02*
X586660D01*
X581660Y443310D02*
Y453310D01*
X668100Y440690D02*
X678100D01*
X673100Y435690D02*
Y445690D01*
X108883Y548640D02*
X118883D01*
X113883Y543640D02*
Y553640D01*
X153750Y378460D02*
X163750D01*
X158750Y373460D02*
Y383460D01*
M02*
