G04*
G04 #@! TF.GenerationSoftware,Altium Limited,Altium Designer,24.0.1 (36)*
G04*
G04 Layer_Color=128*
%FSLAX44Y44*%
%MOMM*%
G71*
G04*
G04 #@! TF.SameCoordinates,043D453D-7082-4CC0-88CE-E1747F565096*
G04*
G04*
G04 #@! TF.FilePolarity,Positive*
G04*
G01*
G75*
%ADD18C,0.1270*%
D18*
X167831Y766070D02*
X183831D01*
X175831Y758070D02*
Y774070D01*
X167831Y608070D02*
X183831D01*
X175831Y600070D02*
Y616070D01*
X129081Y744220D02*
X161581D01*
X145331Y727970D02*
Y760470D01*
X129081Y629920D02*
X161581D01*
X145331Y613670D02*
Y646170D01*
X229731Y642620D02*
X238731D01*
X234231Y638120D02*
Y647120D01*
X229731Y668020D02*
X238731D01*
X234231Y663520D02*
Y672520D01*
X229731Y693420D02*
X238731D01*
X234231Y688920D02*
Y697920D01*
X229731Y718820D02*
X238731D01*
X234231Y714320D02*
Y723320D01*
X204331Y731520D02*
X213331D01*
X208831Y727020D02*
Y736020D01*
X204331Y706120D02*
X213331D01*
X208831Y701620D02*
Y710620D01*
X204331Y680720D02*
X213331D01*
X208831Y676220D02*
Y685220D01*
X204331Y655320D02*
X213331D01*
X208831Y650820D02*
Y659820D01*
X277431Y632420D02*
X287631D01*
X282531Y627320D02*
Y637520D01*
X277431Y741720D02*
X287631D01*
X282531Y736620D02*
Y746820D01*
X277431Y657820D02*
X287631D01*
X282531Y652720D02*
Y662920D01*
X277431Y716320D02*
X287631D01*
X282531Y711220D02*
Y721420D01*
X634320Y220131D02*
X641820D01*
X638070Y216381D02*
Y223881D01*
X605950Y193261D02*
X616450D01*
X611200Y188011D02*
Y198511D01*
X1016810Y263850D02*
X1023310D01*
X1020060Y260600D02*
Y267100D01*
X1016810Y206050D02*
X1023310D01*
X1020060Y202800D02*
Y209300D01*
X1006560Y278150D02*
X1023560D01*
X1015060Y269650D02*
Y286650D01*
X1006560Y191750D02*
X1023560D01*
X1015060Y183250D02*
Y200250D01*
X1049860Y278150D02*
X1063860D01*
X1056860Y271150D02*
Y285150D01*
X1049860Y191750D02*
X1063860D01*
X1056860Y184750D02*
Y198750D01*
X472694Y783590D02*
X474726D01*
X473710Y782574D02*
Y784606D01*
X498094Y777240D02*
X500126D01*
X499110Y776224D02*
Y778256D01*
X498094Y756920D02*
X500126D01*
X499110Y755904D02*
Y757936D01*
X534924Y756920D02*
X536956D01*
X535940Y755904D02*
Y757936D01*
X534924Y777240D02*
X536956D01*
X535940Y776224D02*
Y778256D01*
X907034Y256540D02*
X909066D01*
X908050Y255524D02*
Y257556D01*
X693511Y365597D02*
X695543D01*
X694527Y364581D02*
Y366613D01*
X673435Y385673D02*
X675467D01*
X674451Y384657D02*
Y386689D01*
X760984Y304800D02*
X763016D01*
X762000Y303784D02*
Y305816D01*
X879094Y240043D02*
X881126D01*
X880110Y239027D02*
Y241059D01*
X868934Y252730D02*
X870966D01*
X869950Y251714D02*
Y253746D01*
X938784Y246380D02*
X940816D01*
X939800Y245364D02*
Y247396D01*
X915924Y247650D02*
X917956D01*
X916940Y246634D02*
Y248666D01*
X898144Y247650D02*
X900176D01*
X899160Y246634D02*
Y248666D01*
X957834Y250190D02*
X959866D01*
X958850Y249174D02*
Y251206D01*
X752094Y506730D02*
X754126D01*
X753110Y505714D02*
Y507746D01*
X750824Y514350D02*
X752856D01*
X751840Y513334D02*
Y515366D01*
X740664Y508000D02*
X742696D01*
X741680Y506984D02*
Y509016D01*
X901850Y327580D02*
X903850D01*
X902850Y326580D02*
Y328580D01*
X901850Y317580D02*
X903850D01*
X902850Y316580D02*
Y318580D01*
X886850Y317580D02*
X888850D01*
X887850Y316580D02*
Y318580D01*
X886850Y327580D02*
X888850D01*
X887850Y326580D02*
Y328580D01*
X894350Y322580D02*
X896350D01*
X895350Y321580D02*
Y323580D01*
X1027684Y419100D02*
X1029716D01*
X1028700Y418084D02*
Y420116D01*
X1027684Y381000D02*
X1029716D01*
X1028700Y379984D02*
Y382016D01*
X1027684Y304800D02*
X1029716D01*
X1028700Y303784D02*
Y305816D01*
X1027684Y266700D02*
X1029716D01*
X1028700Y265684D02*
Y267716D01*
X1027684Y228600D02*
X1029716D01*
X1028700Y227584D02*
Y229616D01*
X1027684Y152400D02*
X1029716D01*
X1028700Y151384D02*
Y153416D01*
X989584Y685800D02*
X991616D01*
X990600Y684784D02*
Y686816D01*
X989584Y647700D02*
X991616D01*
X990600Y646684D02*
Y648716D01*
X989584Y609600D02*
X991616D01*
X990600Y608584D02*
Y610616D01*
X989584Y571500D02*
X991616D01*
X990600Y570484D02*
Y572516D01*
X989584Y457200D02*
X991616D01*
X990600Y456184D02*
Y458216D01*
X989584Y419100D02*
X991616D01*
X990600Y418084D02*
Y420116D01*
X989584Y381000D02*
X991616D01*
X990600Y379984D02*
Y382016D01*
X989584Y228600D02*
X991616D01*
X990600Y227584D02*
Y229616D01*
X989584Y190500D02*
X991616D01*
X990600Y189484D02*
Y191516D01*
X989584Y152400D02*
X991616D01*
X990600Y151384D02*
Y153416D01*
X951484Y647700D02*
X953516D01*
X952500Y646684D02*
Y648716D01*
X951484Y609600D02*
X953516D01*
X952500Y608584D02*
Y610616D01*
X951484Y571500D02*
X953516D01*
X952500Y570484D02*
Y572516D01*
X951484Y533400D02*
X953516D01*
X952500Y532384D02*
Y534416D01*
X951484Y419100D02*
X953516D01*
X952500Y418084D02*
Y420116D01*
X951484Y190500D02*
X953516D01*
X952500Y189484D02*
Y191516D01*
X951484Y152400D02*
X953516D01*
X952500Y151384D02*
Y153416D01*
X913384Y647700D02*
X915416D01*
X914400Y646684D02*
Y648716D01*
X913384Y609600D02*
X915416D01*
X914400Y608584D02*
Y610616D01*
X913384Y571500D02*
X915416D01*
X914400Y570484D02*
Y572516D01*
X913384Y533400D02*
X915416D01*
X914400Y532384D02*
Y534416D01*
X913384Y495300D02*
X915416D01*
X914400Y494284D02*
Y496316D01*
X913384Y457200D02*
X915416D01*
X914400Y456184D02*
Y458216D01*
X913384Y342900D02*
X915416D01*
X914400Y341884D02*
Y343916D01*
X913384Y152400D02*
X915416D01*
X914400Y151384D02*
Y153416D01*
X875284Y533400D02*
X877316D01*
X876300Y532384D02*
Y534416D01*
X875284Y495300D02*
X877316D01*
X876300Y494284D02*
Y496316D01*
X875284Y457200D02*
X877316D01*
X876300Y456184D02*
Y458216D01*
X875284Y152400D02*
X877316D01*
X876300Y151384D02*
Y153416D01*
X837184Y723900D02*
X839216D01*
X838200Y722884D02*
Y724916D01*
X837184Y685800D02*
X839216D01*
X838200Y684784D02*
Y686816D01*
X837184Y647700D02*
X839216D01*
X838200Y646684D02*
Y648716D01*
X837184Y609600D02*
X839216D01*
X838200Y608584D02*
Y610616D01*
X837184Y571500D02*
X839216D01*
X838200Y570484D02*
Y572516D01*
X837184Y533400D02*
X839216D01*
X838200Y532384D02*
Y534416D01*
X837184Y495300D02*
X839216D01*
X838200Y494284D02*
Y496316D01*
X837184Y457200D02*
X839216D01*
X838200Y456184D02*
Y458216D01*
X837184Y190500D02*
X839216D01*
X838200Y189484D02*
Y191516D01*
X837184Y152400D02*
X839216D01*
X838200Y151384D02*
Y153416D01*
X799084Y457200D02*
X801116D01*
X800100Y456184D02*
Y458216D01*
X799084Y228600D02*
X801116D01*
X800100Y227584D02*
Y229616D01*
X799084Y152400D02*
X801116D01*
X800100Y151384D02*
Y153416D01*
X760984Y685800D02*
X763016D01*
X762000Y684784D02*
Y686816D01*
X760984Y647700D02*
X763016D01*
X762000Y646684D02*
Y648716D01*
X760984Y571500D02*
X763016D01*
X762000Y570484D02*
Y572516D01*
X760984Y457200D02*
X763016D01*
X762000Y456184D02*
Y458216D01*
X760984Y342900D02*
X763016D01*
X762000Y341884D02*
Y343916D01*
X760984Y228600D02*
X763016D01*
X762000Y227584D02*
Y229616D01*
X722884Y685800D02*
X724916D01*
X723900Y684784D02*
Y686816D01*
X722884Y647700D02*
X724916D01*
X723900Y646684D02*
Y648716D01*
X722884Y304800D02*
X724916D01*
X723900Y303784D02*
Y305816D01*
X722884Y228600D02*
X724916D01*
X723900Y227584D02*
Y229616D01*
X684784Y342900D02*
X686816D01*
X685800Y341884D02*
Y343916D01*
X684784Y228600D02*
X686816D01*
X685800Y227584D02*
Y229616D01*
X684784Y190500D02*
X686816D01*
X685800Y189484D02*
Y191516D01*
X646684Y647700D02*
X648716D01*
X647700Y646684D02*
Y648716D01*
X608584Y685800D02*
X610616D01*
X609600Y684784D02*
Y686816D01*
X608584Y647700D02*
X610616D01*
X609600Y646684D02*
Y648716D01*
X608584Y304800D02*
X610616D01*
X609600Y303784D02*
Y305816D01*
X570484Y685800D02*
X572516D01*
X571500Y684784D02*
Y686816D01*
X570484Y647700D02*
X572516D01*
X571500Y646684D02*
Y648716D01*
X570484Y533400D02*
X572516D01*
X571500Y532384D02*
Y534416D01*
X570484Y495300D02*
X572516D01*
X571500Y494284D02*
Y496316D01*
X570484Y304800D02*
X572516D01*
X571500Y303784D02*
Y305816D01*
X570484Y266700D02*
X572516D01*
X571500Y265684D02*
Y267716D01*
X532384Y647700D02*
X534416D01*
X533400Y646684D02*
Y648716D01*
X532384Y495300D02*
X534416D01*
X533400Y494284D02*
Y496316D01*
X532384Y228600D02*
X534416D01*
X533400Y227584D02*
Y229616D01*
X532384Y190500D02*
X534416D01*
X533400Y189484D02*
Y191516D01*
X494284Y723900D02*
X496316D01*
X495300Y722884D02*
Y724916D01*
X494284Y533400D02*
X496316D01*
X495300Y532384D02*
Y534416D01*
X494284Y152400D02*
X496316D01*
X495300Y151384D02*
Y153416D01*
X456184Y762000D02*
X458216D01*
X457200Y760984D02*
Y763016D01*
X456184Y647700D02*
X458216D01*
X457200Y646684D02*
Y648716D01*
X456184Y533400D02*
X458216D01*
X457200Y532384D02*
Y534416D01*
X456184Y304800D02*
X458216D01*
X457200Y303784D02*
Y305816D01*
X456184Y228600D02*
X458216D01*
X457200Y227584D02*
Y229616D01*
X456184Y152400D02*
X458216D01*
X457200Y151384D02*
Y153416D01*
X418084Y723900D02*
X420116D01*
X419100Y722884D02*
Y724916D01*
X418084Y609600D02*
X420116D01*
X419100Y608584D02*
Y610616D01*
X418084Y304800D02*
X420116D01*
X419100Y303784D02*
Y305816D01*
X418084Y266700D02*
X420116D01*
X419100Y265684D02*
Y267716D01*
X418084Y190500D02*
X420116D01*
X419100Y189484D02*
Y191516D01*
X418084Y152400D02*
X420116D01*
X419100Y151384D02*
Y153416D01*
X379984Y762000D02*
X382016D01*
X381000Y760984D02*
Y763016D01*
X379984Y609600D02*
X382016D01*
X381000Y608584D02*
Y610616D01*
X379984Y304800D02*
X382016D01*
X381000Y303784D02*
Y305816D01*
X379984Y266700D02*
X382016D01*
X381000Y265684D02*
Y267716D01*
X379984Y190500D02*
X382016D01*
X381000Y189484D02*
Y191516D01*
X379984Y152400D02*
X382016D01*
X381000Y151384D02*
Y153416D01*
X341884Y762000D02*
X343916D01*
X342900Y760984D02*
Y763016D01*
X341884Y723900D02*
X343916D01*
X342900Y722884D02*
Y724916D01*
X341884Y609600D02*
X343916D01*
X342900Y608584D02*
Y610616D01*
X341884Y495300D02*
X343916D01*
X342900Y494284D02*
Y496316D01*
X341884Y342900D02*
X343916D01*
X342900Y341884D02*
Y343916D01*
X341884Y304800D02*
X343916D01*
X342900Y303784D02*
Y305816D01*
X341884Y266700D02*
X343916D01*
X342900Y265684D02*
Y267716D01*
X341884Y190500D02*
X343916D01*
X342900Y189484D02*
Y191516D01*
X341884Y152400D02*
X343916D01*
X342900Y151384D02*
Y153416D01*
X303784Y609600D02*
X305816D01*
X304800Y608584D02*
Y610616D01*
X303784Y457200D02*
X305816D01*
X304800Y456184D02*
Y458216D01*
X303784Y381000D02*
X305816D01*
X304800Y379984D02*
Y382016D01*
X303784Y342900D02*
X305816D01*
X304800Y341884D02*
Y343916D01*
X303784Y304800D02*
X305816D01*
X304800Y303784D02*
Y305816D01*
X303784Y266700D02*
X305816D01*
X304800Y265684D02*
Y267716D01*
X303784Y190500D02*
X305816D01*
X304800Y189484D02*
Y191516D01*
X303784Y152400D02*
X305816D01*
X304800Y151384D02*
Y153416D01*
X265684Y723900D02*
X267716D01*
X266700Y722884D02*
Y724916D01*
X265684Y685800D02*
X267716D01*
X266700Y684784D02*
Y686816D01*
X265684Y342900D02*
X267716D01*
X266700Y341884D02*
Y343916D01*
X265684Y304800D02*
X267716D01*
X266700Y303784D02*
Y305816D01*
X265684Y190500D02*
X267716D01*
X266700Y189484D02*
Y191516D01*
X265684Y152400D02*
X267716D01*
X266700Y151384D02*
Y153416D01*
X227584Y609600D02*
X229616D01*
X228600Y608584D02*
Y610616D01*
X227584Y533400D02*
X229616D01*
X228600Y532384D02*
Y534416D01*
X227584Y495300D02*
X229616D01*
X228600Y494284D02*
Y496316D01*
X227584Y457200D02*
X229616D01*
X228600Y456184D02*
Y458216D01*
X227584Y381000D02*
X229616D01*
X228600Y379984D02*
Y382016D01*
X227584Y342900D02*
X229616D01*
X228600Y341884D02*
Y343916D01*
X227584Y266700D02*
X229616D01*
X228600Y265684D02*
Y267716D01*
X227584Y228600D02*
X229616D01*
X228600Y227584D02*
Y229616D01*
X227584Y190500D02*
X229616D01*
X228600Y189484D02*
Y191516D01*
X227584Y152400D02*
X229616D01*
X228600Y151384D02*
Y153416D01*
X189484Y647700D02*
X191516D01*
X190500Y646684D02*
Y648716D01*
X189484Y571500D02*
X191516D01*
X190500Y570484D02*
Y572516D01*
X189484Y495300D02*
X191516D01*
X190500Y494284D02*
Y496316D01*
X189484Y419100D02*
X191516D01*
X190500Y418084D02*
Y420116D01*
X189484Y381000D02*
X191516D01*
X190500Y379984D02*
Y382016D01*
X189484Y342900D02*
X191516D01*
X190500Y341884D02*
Y343916D01*
X189484Y304800D02*
X191516D01*
X190500Y303784D02*
Y305816D01*
X189484Y266700D02*
X191516D01*
X190500Y265684D02*
Y267716D01*
X189484Y190500D02*
X191516D01*
X190500Y189484D02*
Y191516D01*
X189484Y152400D02*
X191516D01*
X190500Y151384D02*
Y153416D01*
X151384Y723900D02*
X153416D01*
X152400Y722884D02*
Y724916D01*
X151384Y685800D02*
X153416D01*
X152400Y684784D02*
Y686816D01*
X151384Y419100D02*
X153416D01*
X152400Y418084D02*
Y420116D01*
X151384Y342900D02*
X153416D01*
X152400Y341884D02*
Y343916D01*
X151384Y304800D02*
X153416D01*
X152400Y303784D02*
Y305816D01*
X151384Y266700D02*
X153416D01*
X152400Y265684D02*
Y267716D01*
X151384Y228600D02*
X153416D01*
X152400Y227584D02*
Y229616D01*
X151384Y190500D02*
X153416D01*
X152400Y189484D02*
Y191516D01*
X151384Y152400D02*
X153416D01*
X152400Y151384D02*
Y153416D01*
X113284Y762000D02*
X115316D01*
X114300Y760984D02*
Y763016D01*
X113284Y723900D02*
X115316D01*
X114300Y722884D02*
Y724916D01*
X113284Y685800D02*
X115316D01*
X114300Y684784D02*
Y686816D01*
X113284Y647700D02*
X115316D01*
X114300Y646684D02*
Y648716D01*
X113284Y609600D02*
X115316D01*
X114300Y608584D02*
Y610616D01*
X113284Y495300D02*
X115316D01*
X114300Y494284D02*
Y496316D01*
X113284Y457200D02*
X115316D01*
X114300Y456184D02*
Y458216D01*
X113284Y419100D02*
X115316D01*
X114300Y418084D02*
Y420116D01*
X113284Y381000D02*
X115316D01*
X114300Y379984D02*
Y382016D01*
X113284Y342900D02*
X115316D01*
X114300Y341884D02*
Y343916D01*
X113284Y304800D02*
X115316D01*
X114300Y303784D02*
Y305816D01*
X113284Y266700D02*
X115316D01*
X114300Y265684D02*
Y267716D01*
X113284Y228600D02*
X115316D01*
X114300Y227584D02*
Y229616D01*
X113284Y190500D02*
X115316D01*
X114300Y189484D02*
Y191516D01*
X113284Y152400D02*
X115316D01*
X114300Y151384D02*
Y153416D01*
X434594Y411480D02*
X436626D01*
X435610Y410464D02*
Y412496D01*
X434594Y405130D02*
X436626D01*
X435610Y404114D02*
Y406146D01*
X727964Y361950D02*
X729996D01*
X728980Y360934D02*
Y362966D01*
X725424Y369570D02*
X727456D01*
X726440Y368554D02*
Y370586D01*
X980694Y374650D02*
X982726D01*
X981710Y373634D02*
Y375666D01*
X833374Y358140D02*
X835406D01*
X834390Y357124D02*
Y359156D01*
X829564Y368300D02*
X831596D01*
X830580Y367284D02*
Y369316D01*
X927354Y255270D02*
X929386D01*
X928370Y254254D02*
Y256286D01*
X937514Y256540D02*
X939546D01*
X938530Y255524D02*
Y257556D01*
X602234Y208280D02*
X604266D01*
X603250Y207264D02*
Y209296D01*
X586994Y205740D02*
X589026D01*
X588010Y204724D02*
Y206756D01*
X571754Y210820D02*
X573786D01*
X572770Y209804D02*
Y211836D01*
X178816Y457200D02*
X180848D01*
X179832Y456184D02*
Y458216D01*
X178816Y411480D02*
X180848D01*
X179832Y410464D02*
Y412496D01*
X278384Y356870D02*
X280416D01*
X279400Y355854D02*
Y357886D01*
X260604Y373380D02*
X262636D01*
X261620Y372364D02*
Y374396D01*
X280924Y391160D02*
X282956D01*
X281940Y390144D02*
Y392176D01*
X310134Y365760D02*
X312166D01*
X311150Y364744D02*
Y366776D01*
X382524Y369570D02*
X384556D01*
X383540Y368554D02*
Y370586D01*
X376174Y375920D02*
X378206D01*
X377190Y374904D02*
Y376936D01*
X348234Y364490D02*
X350266D01*
X349250Y363474D02*
Y365506D01*
X340614Y373380D02*
X342646D01*
X341630Y372364D02*
Y374396D01*
X1050544Y209550D02*
X1052576D01*
X1051560Y208534D02*
Y210566D01*
X1050544Y219710D02*
X1052576D01*
X1051560Y218694D02*
Y220726D01*
X1050544Y229870D02*
X1052576D01*
X1051560Y228854D02*
Y230886D01*
X1050544Y240030D02*
X1052576D01*
X1051560Y239014D02*
Y241046D01*
X1050544Y250190D02*
X1052576D01*
X1051560Y249174D02*
Y251206D01*
X1050544Y259080D02*
X1052576D01*
X1051560Y258064D02*
Y260096D01*
X1039114Y209550D02*
X1041146D01*
X1040130Y208534D02*
Y210566D01*
X1039114Y218440D02*
X1041146D01*
X1040130Y217424D02*
Y219456D01*
X1039114Y228600D02*
X1041146D01*
X1040130Y227584D02*
Y229616D01*
X1039114Y240030D02*
X1041146D01*
X1040130Y239014D02*
Y241046D01*
X1039114Y250190D02*
X1041146D01*
X1040130Y249174D02*
Y251206D01*
X1039114Y259080D02*
X1041146D01*
X1040130Y258064D02*
Y260096D01*
X298674Y657860D02*
X300706D01*
X299690Y656844D02*
Y658876D01*
X362204Y725170D02*
X364236D01*
X363220Y724154D02*
Y726186D01*
X868934Y377190D02*
X870966D01*
X869950Y376174D02*
Y378206D01*
X631360Y452810D02*
X633392D01*
X632376Y451794D02*
Y453826D01*
X631544Y446512D02*
X633576D01*
X632560Y445496D02*
Y447528D01*
X364744Y708660D02*
X366776D01*
X365760Y707644D02*
Y709676D01*
X364744Y688340D02*
X366776D01*
X365760Y687324D02*
Y689356D01*
X363474Y673100D02*
X365506D01*
X364490Y672084D02*
Y674116D01*
X362204Y717550D02*
X364236D01*
X363220Y716534D02*
Y718566D01*
X329184Y658101D02*
X331216D01*
X330200Y657085D02*
Y659117D01*
X329184Y638810D02*
X331216D01*
X330200Y637794D02*
Y639826D01*
X898144Y571500D02*
X900176D01*
X899160Y570484D02*
Y572516D01*
X900684Y566420D02*
X902716D01*
X901700Y565404D02*
Y567436D01*
X894334Y566420D02*
X896366D01*
X895350Y565404D02*
Y567436D01*
X867664Y274320D02*
X869696D01*
X868680Y273304D02*
Y275336D01*
X801624Y274320D02*
X803656D01*
X802640Y273304D02*
Y275336D01*
X801624Y262890D02*
X803656D01*
X802640Y261874D02*
Y263906D01*
X713994Y275590D02*
X716026D01*
X715010Y274574D02*
Y276606D01*
X714093Y269860D02*
X716125D01*
X715109Y268844D02*
Y270876D01*
X501679Y300355D02*
X503711D01*
X502695Y299339D02*
Y301371D01*
X496179Y300355D02*
X498211D01*
X497195Y299339D02*
Y301371D01*
X990854Y279400D02*
X992886D01*
X991870Y278384D02*
Y280416D01*
X415544Y640080D02*
X417576D01*
X416560Y639064D02*
Y641096D01*
X387604Y750570D02*
X389636D01*
X388620Y749554D02*
Y751586D01*
X570484Y427990D02*
X572516D01*
X571500Y426974D02*
Y429006D01*
X559054Y428772D02*
X561086D01*
X560070Y427756D02*
Y429788D01*
X560324Y421935D02*
X562356D01*
X561340Y420919D02*
Y422951D01*
X461264Y382270D02*
X463296D01*
X462280Y381254D02*
Y383286D01*
X461264Y402590D02*
X463296D01*
X462280Y401574D02*
Y403606D01*
X586932Y410789D02*
X588964D01*
X587948Y409773D02*
Y411805D01*
X581914Y401574D02*
X583946D01*
X582930Y400558D02*
Y402590D01*
X456184Y397510D02*
X458216D01*
X457200Y396494D02*
Y398526D01*
X461264Y392430D02*
X463296D01*
X462280Y391414D02*
Y393446D01*
X454914Y387350D02*
X456946D01*
X455930Y386334D02*
Y388366D01*
X457454Y377190D02*
X459486D01*
X458470Y376174D02*
Y378206D01*
X448564Y447040D02*
X450596D01*
X449580Y446024D02*
Y448056D01*
X571583Y448437D02*
X573615D01*
X572599Y447421D02*
Y449453D01*
X587569Y436691D02*
X589601D01*
X588585Y435675D02*
Y437707D01*
X552704Y453228D02*
X554736D01*
X553720Y452212D02*
Y454244D01*
X553192Y464038D02*
X555224D01*
X554208Y463022D02*
Y465054D01*
X382524Y449580D02*
X384556D01*
X383540Y448564D02*
Y450596D01*
X364744Y439420D02*
X366776D01*
X365760Y438404D02*
Y440436D01*
X379984Y431800D02*
X382016D01*
X381000Y430784D02*
Y432816D01*
X646684Y337693D02*
X648716D01*
X647700Y336677D02*
Y338709D01*
X463804Y464820D02*
X465836D01*
X464820Y463804D02*
Y465836D01*
X415544Y471170D02*
X417576D01*
X416560Y470154D02*
Y472186D01*
X444754Y508000D02*
X446786D01*
X445770Y506984D02*
Y509016D01*
X426974Y518160D02*
X429006D01*
X427990Y517144D02*
Y519176D01*
X426974Y503047D02*
X429006D01*
X427990Y502031D02*
Y504063D01*
X381254Y499110D02*
X383286D01*
X382270Y498094D02*
Y500126D01*
X411734Y366589D02*
X413766D01*
X412750Y365573D02*
Y367605D01*
X426974Y368300D02*
X429006D01*
X427990Y367284D02*
Y369316D01*
X387604Y381000D02*
X389636D01*
X388620Y379984D02*
Y382016D01*
X395224Y379730D02*
X397256D01*
X396240Y378714D02*
Y380746D01*
X418084Y379730D02*
X420116D01*
X419100Y378714D02*
Y380746D01*
X359664Y367030D02*
X361696D01*
X360680Y366014D02*
Y368046D01*
X359664Y374650D02*
X361696D01*
X360680Y373634D02*
Y375666D01*
X404114Y378460D02*
X406146D01*
X405130Y377444D02*
Y379476D01*
X573024Y474980D02*
X575056D01*
X574040Y473964D02*
Y475996D01*
X545084Y488950D02*
X547116D01*
X546100Y487934D02*
Y489966D01*
X327914Y450723D02*
X329946D01*
X328930Y449707D02*
Y451739D01*
X332994Y450723D02*
X335026D01*
X334010Y449707D02*
Y451739D01*
X338074Y450723D02*
X340106D01*
X339090Y449707D02*
Y451739D01*
X306324Y403860D02*
X308356D01*
X307340Y402844D02*
Y404876D01*
X331724Y403860D02*
X333756D01*
X332740Y402844D02*
Y404876D01*
X320294Y396240D02*
X322326D01*
X321310Y395224D02*
Y397256D01*
X341884Y351790D02*
X343916D01*
X342900Y350774D02*
Y352806D01*
X411734Y400177D02*
X413766D01*
X412750Y399161D02*
Y401193D01*
X395224Y400177D02*
X397256D01*
X396240Y399161D02*
Y401193D01*
X635254Y370840D02*
X637286D01*
X636270Y369824D02*
Y371856D01*
X628904Y373380D02*
X630936D01*
X629920Y372364D02*
Y374396D01*
X642874Y363220D02*
X644906D01*
X643890Y362204D02*
Y364236D01*
X463804Y662940D02*
X465836D01*
X464820Y661924D02*
Y663956D01*
X282194Y236220D02*
X284226D01*
X283210Y235204D02*
Y237236D01*
X261874Y476250D02*
X263906D01*
X262890Y475234D02*
Y477266D01*
X506984Y572770D02*
X509016D01*
X508000Y571754D02*
Y573786D01*
X588264Y509270D02*
X590296D01*
X589280Y508254D02*
Y510286D01*
X608584Y508000D02*
X610616D01*
X609600Y506984D02*
Y509016D01*
X602234Y510540D02*
X604266D01*
X603250Y509524D02*
Y511556D01*
X609794Y492300D02*
X611826D01*
X610810Y491284D02*
Y493316D01*
X606044Y486410D02*
X608076D01*
X607060Y485394D02*
Y487426D01*
X594614Y480060D02*
X596646D01*
X595630Y479044D02*
Y481076D01*
X594614Y509270D02*
X596646D01*
X595630Y508254D02*
Y510286D01*
X618871Y506730D02*
X620903D01*
X619887Y505714D02*
Y507746D01*
X626745Y505460D02*
X628777D01*
X627761Y504444D02*
Y506476D01*
X758444Y199390D02*
X760476D01*
X759460Y198374D02*
Y200406D01*
X964184Y449580D02*
X966216D01*
X965200Y448564D02*
Y450596D01*
X956437Y468630D02*
X958469D01*
X957453Y467614D02*
Y469646D01*
X964311Y468630D02*
X966343D01*
X965327Y467614D02*
Y469646D01*
X870204Y179070D02*
X872236D01*
X871220Y178054D02*
Y180086D01*
X850519Y195997D02*
X852551D01*
X851535Y194981D02*
Y197013D01*
X905764Y443230D02*
X907796D01*
X906780Y442214D02*
Y444246D01*
X750580Y362976D02*
X752612D01*
X751596Y361960D02*
Y363992D01*
X864980Y209550D02*
X867012D01*
X865996Y208534D02*
Y210566D01*
X754634Y441960D02*
X756666D01*
X755650Y440944D02*
Y442976D01*
X748284Y436880D02*
X750316D01*
X749300Y435864D02*
Y437896D01*
X783844Y473710D02*
X785876D01*
X784860Y472694D02*
Y474726D01*
X791464Y491490D02*
X793496D01*
X792480Y490474D02*
Y492506D01*
X741934Y378460D02*
X743966D01*
X742950Y377444D02*
Y379476D01*
X745744Y459740D02*
X747776D01*
X746760Y458724D02*
Y460756D01*
X753364Y466090D02*
X755396D01*
X754380Y465074D02*
Y467106D01*
X736854Y430530D02*
X738886D01*
X737870Y429514D02*
Y431546D01*
X738124Y447040D02*
X740156D01*
X739140Y446024D02*
Y448056D01*
X795274Y219710D02*
X797306D01*
X796290Y218694D02*
Y220726D01*
X938784Y411480D02*
X940816D01*
X939800Y410464D02*
Y412496D01*
X928624Y388366D02*
X930656D01*
X929640Y387350D02*
Y389382D01*
X895604Y430530D02*
X897636D01*
X896620Y429514D02*
Y431546D01*
X707644Y422783D02*
X709676D01*
X708660Y421767D02*
Y423799D01*
X703834Y417830D02*
X705866D01*
X704850Y416814D02*
Y418846D01*
X724154Y408940D02*
X726186D01*
X725170Y407924D02*
Y409956D01*
X715264Y407670D02*
X717296D01*
X716280Y406654D02*
Y408686D01*
X702564Y379730D02*
X704596D01*
X703580Y378714D02*
Y380746D01*
X696214Y386080D02*
X698246D01*
X697230Y385064D02*
Y387096D01*
X721614Y440690D02*
X723646D01*
X722630Y439674D02*
Y441706D01*
X691134Y312420D02*
X693166D01*
X692150Y311404D02*
Y313436D01*
X708914Y312420D02*
X710946D01*
X709930Y311404D02*
Y313436D01*
X792734Y287020D02*
X794766D01*
X793750Y286004D02*
Y288036D01*
X703961Y447282D02*
X705993D01*
X704977Y446266D02*
Y448298D01*
X697484Y453390D02*
X699516D01*
X698500Y452374D02*
Y454406D01*
X654874Y468440D02*
X656906D01*
X655890Y467424D02*
Y469456D01*
X662874Y468440D02*
X664906D01*
X663890Y467424D02*
Y469456D01*
X670874Y477354D02*
X672906D01*
X671890Y476338D02*
Y478370D01*
X662345Y476440D02*
X664377D01*
X663361Y475424D02*
Y477456D01*
X678939Y468216D02*
X680971D01*
X679955Y467200D02*
Y469232D01*
X678434Y452120D02*
X680466D01*
X679450Y451104D02*
Y453136D01*
X678465Y444500D02*
X680497D01*
X679481Y443484D02*
Y445516D01*
X729107Y441978D02*
X731139D01*
X730123Y440962D02*
Y442994D01*
X719138Y453390D02*
X721170D01*
X720154Y452374D02*
Y454406D01*
X729234Y478917D02*
X731266D01*
X730250Y477901D02*
Y479933D01*
X735584Y474980D02*
X737616D01*
X736600Y473964D02*
Y475996D01*
X725424Y459740D02*
X727456D01*
X726440Y458724D02*
Y460756D01*
X721614Y480060D02*
X723646D01*
X722630Y479044D02*
Y481076D01*
X712724Y469900D02*
X714756D01*
X713740Y468884D02*
Y470916D01*
X708914Y464820D02*
X710946D01*
X709930Y463804D02*
Y465836D01*
X796544Y357505D02*
X798576D01*
X797560Y356489D02*
Y358521D01*
X804164Y358140D02*
X806196D01*
X805180Y357124D02*
Y359156D01*
X663067Y355473D02*
X665099D01*
X664083Y354457D02*
Y356489D01*
X655574Y643890D02*
X657606D01*
X656590Y642874D02*
Y644906D01*
X854964Y702310D02*
X856996D01*
X855980Y701294D02*
Y703326D01*
X1016254Y723900D02*
X1018286D01*
X1017270Y722884D02*
Y724916D01*
X1016254Y742950D02*
X1018286D01*
X1017270Y741934D02*
Y743966D01*
X663194Y387350D02*
X665226D01*
X664210Y386334D02*
Y388366D01*
X663194Y381000D02*
X665226D01*
X664210Y379984D02*
Y382016D01*
X662874Y404440D02*
X664906D01*
X663890Y403424D02*
Y405456D01*
X677164Y379730D02*
X679196D01*
X678180Y378714D02*
Y380746D01*
X650494Y356870D02*
X652526D01*
X651510Y355854D02*
Y357886D01*
X655574Y363220D02*
X657606D01*
X656590Y362204D02*
Y364236D01*
X673354Y370840D02*
X675386D01*
X674370Y369824D02*
Y371856D01*
X667004Y365760D02*
X669036D01*
X668020Y364744D02*
Y366776D01*
X658466Y370840D02*
X660498D01*
X659482Y369824D02*
Y371856D01*
X541147Y509270D02*
X543179D01*
X542163Y508254D02*
Y510286D01*
X531929Y519557D02*
X533961D01*
X532945Y518541D02*
Y520573D01*
X650937Y490220D02*
X652969D01*
X651953Y489204D02*
Y491236D01*
X659511Y496570D02*
X661543D01*
X660527Y495554D02*
Y497586D01*
X651457Y505640D02*
X653489D01*
X652473Y504624D02*
Y506656D01*
X698754Y424180D02*
X700786D01*
X699770Y423164D02*
Y425196D01*
X933704Y383540D02*
X935736D01*
X934720Y382524D02*
Y384556D01*
X787654Y375793D02*
X789686D01*
X788670Y374777D02*
Y376809D01*
X780034Y374650D02*
X782066D01*
X781050Y373634D02*
Y375666D01*
X405384Y351917D02*
X407416D01*
X406400Y350901D02*
Y352933D01*
X630047Y381000D02*
X632079D01*
X631063Y379984D02*
Y382016D01*
X301244Y553720D02*
X303276D01*
X302260Y552704D02*
Y554736D01*
X376174Y505460D02*
X378206D01*
X377190Y504444D02*
Y506476D01*
X339344Y575310D02*
X341376D01*
X340360Y574294D02*
Y576326D01*
X355854Y575800D02*
X357886D01*
X356870Y574784D02*
Y576816D01*
X348135Y575800D02*
X350167D01*
X349151Y574784D02*
Y576816D01*
X256794Y471170D02*
X258826D01*
X257810Y470154D02*
Y472186D01*
X250444Y464820D02*
X252476D01*
X251460Y463804D02*
Y465836D01*
X268224Y430530D02*
X270256D01*
X269240Y429514D02*
Y431546D01*
X523494Y518160D02*
X525526D01*
X524510Y517144D02*
Y519176D01*
X331344Y514730D02*
X333376D01*
X332360Y513714D02*
Y515746D01*
X362204Y514477D02*
X364236D01*
X363220Y513461D02*
Y515493D01*
X339344Y515620D02*
X341376D01*
X340360Y514604D02*
Y516636D01*
X371094Y514350D02*
X373126D01*
X372110Y513334D02*
Y515366D01*
X371094Y427990D02*
X373126D01*
X372110Y426974D02*
Y429006D01*
X391414Y429260D02*
X393446D01*
X392430Y428244D02*
Y430276D01*
X315214Y515620D02*
X317246D01*
X316230Y514604D02*
Y516636D01*
X261874Y226060D02*
X263906D01*
X262890Y225044D02*
Y227076D01*
X270764Y228600D02*
X272796D01*
X271780Y227584D02*
Y229616D01*
X263144Y262890D02*
X265176D01*
X264160Y261874D02*
Y263906D01*
X261874Y241300D02*
X263906D01*
X262890Y240284D02*
Y242316D01*
X265684Y255270D02*
X267716D01*
X266700Y254254D02*
Y256286D01*
X614949Y412515D02*
X616981D01*
X615965Y411499D02*
Y413531D01*
X614874Y420497D02*
X616906D01*
X615890Y419481D02*
Y421513D01*
X614874Y404440D02*
X616906D01*
X615890Y403424D02*
Y405456D01*
X411734Y676910D02*
X413766D01*
X412750Y675894D02*
Y677926D01*
X558927Y588010D02*
X560959D01*
X559943Y586994D02*
Y589026D01*
X565404Y599440D02*
X567436D01*
X566420Y598424D02*
Y600456D01*
X551127Y609420D02*
X553159D01*
X552143Y608404D02*
Y610436D01*
X542544Y609600D02*
X544576D01*
X543560Y608584D02*
Y610616D01*
X437134Y707390D02*
X439166D01*
X438150Y706374D02*
Y708406D01*
X468884Y651510D02*
X470916D01*
X469900Y650494D02*
Y652526D01*
X439674Y693420D02*
X441706D01*
X440690Y692404D02*
Y694436D01*
X443484Y708660D02*
X445516D01*
X444500Y707644D02*
Y709676D01*
X485704Y670355D02*
X487737D01*
X486721Y669339D02*
Y671371D01*
X485394Y662940D02*
X487426D01*
X486410Y661924D02*
Y663956D01*
X473964Y661670D02*
X475996D01*
X474980Y660654D02*
Y662686D01*
X506702Y665480D02*
X508734D01*
X507718Y664464D02*
Y666496D01*
X401574Y689610D02*
X403606D01*
X402590Y688594D02*
Y690626D01*
X396443Y712451D02*
X398475D01*
X397459Y711435D02*
Y713467D01*
X448564Y718820D02*
X450596D01*
X449580Y717804D02*
Y719836D01*
X473964Y668020D02*
X475996D01*
X474980Y667004D02*
Y669036D01*
X433324Y722630D02*
X435356D01*
X434340Y721614D02*
Y723646D01*
X444754Y727710D02*
X446786D01*
X445770Y726694D02*
Y728726D01*
X418084Y670560D02*
X420116D01*
X419100Y669544D02*
Y671576D01*
X292354Y543560D02*
X294386D01*
X293370Y542544D02*
Y544576D01*
X350409Y546855D02*
X352441D01*
X351425Y545839D02*
Y547871D01*
X600964Y165100D02*
X602996D01*
X601980Y164084D02*
Y166116D01*
X933704Y294640D02*
X935736D01*
X934720Y293624D02*
Y295656D01*
X639347Y414092D02*
X641379D01*
X640363Y413076D02*
Y415108D01*
X637960Y404440D02*
X639992D01*
X638976Y403424D02*
Y405456D01*
X622874Y404440D02*
X624906D01*
X623890Y403424D02*
Y405456D01*
X638874Y396440D02*
X640906D01*
X639890Y395424D02*
Y397456D01*
X670874Y460440D02*
X672906D01*
X671890Y459424D02*
Y461456D01*
X654874Y444440D02*
X656906D01*
X655890Y443424D02*
Y445456D01*
X846074Y309880D02*
X848106D01*
X847090Y308864D02*
Y310896D01*
X846074Y316230D02*
X848106D01*
X847090Y315214D02*
Y317246D01*
X846074Y323850D02*
X848106D01*
X847090Y322834D02*
Y324866D01*
X846074Y331470D02*
X848106D01*
X847090Y330454D02*
Y332486D01*
X846074Y339090D02*
X848106D01*
X847090Y338074D02*
Y340106D01*
X839724Y309880D02*
X841756D01*
X840740Y308864D02*
Y310896D01*
X839724Y316230D02*
X841756D01*
X840740Y315214D02*
Y317246D01*
X839724Y323850D02*
X841756D01*
X840740Y322834D02*
Y324866D01*
X839724Y331470D02*
X841756D01*
X840740Y330454D02*
Y332486D01*
X839724Y339090D02*
X841756D01*
X840740Y338074D02*
Y340106D01*
X446159Y205875D02*
X448191D01*
X447175Y204859D02*
Y206891D01*
X446024Y231140D02*
X448056D01*
X447040Y230124D02*
Y232156D01*
X466344Y236220D02*
X468376D01*
X467360Y235204D02*
Y237236D01*
X481584Y215900D02*
X483616D01*
X482600Y214884D02*
Y216916D01*
X481584Y199390D02*
X483616D01*
X482600Y198374D02*
Y200406D01*
X707644Y560070D02*
X709676D01*
X708660Y559054D02*
Y561086D01*
X735584Y533400D02*
X737616D01*
X736600Y532384D02*
Y534416D01*
X329184Y715010D02*
X331216D01*
X330200Y713994D02*
Y716026D01*
X484124Y680720D02*
X486156D01*
X485140Y679704D02*
Y681736D01*
X396494Y788670D02*
X398526D01*
X397510Y787654D02*
Y789686D01*
X410464Y788670D02*
X412496D01*
X411480Y787654D02*
Y789686D01*
X424434Y788670D02*
X426466D01*
X425450Y787654D02*
Y789686D01*
X651764Y525765D02*
X653796D01*
X652780Y524749D02*
Y526782D01*
X651764Y512812D02*
X653796D01*
X652780Y511796D02*
Y513828D01*
X642874Y599440D02*
X644906D01*
X643890Y598424D02*
Y600456D01*
X639064Y582442D02*
X641096D01*
X640080Y581426D02*
Y583458D01*
X642874Y612140D02*
X644906D01*
X643890Y611124D02*
Y613156D01*
X940054Y701040D02*
X942086D01*
X941070Y700024D02*
Y702056D01*
X946404Y701040D02*
X948436D01*
X947420Y700024D02*
Y702056D01*
X952754Y701040D02*
X954786D01*
X953770Y700024D02*
Y702056D01*
X933704Y701040D02*
X935736D01*
X934720Y700024D02*
Y702056D01*
X919734Y701040D02*
X921766D01*
X920750Y700024D02*
Y702056D01*
X713675Y567690D02*
X715707D01*
X714691Y566674D02*
Y568706D01*
X642874Y576580D02*
X644906D01*
X643890Y575564D02*
Y577596D01*
X586994Y490220D02*
X589026D01*
X588010Y489204D02*
Y491236D01*
X614874Y468440D02*
X616906D01*
X615890Y467424D02*
Y469456D01*
X622427Y487680D02*
X624459D01*
X623443Y486664D02*
Y488696D01*
X622798Y500624D02*
X624830D01*
X623814Y499608D02*
Y501640D01*
X622427Y476440D02*
X624459D01*
X623443Y475424D02*
Y477456D01*
X595884Y556133D02*
X597916D01*
X596900Y555117D02*
Y557149D01*
X576834Y556133D02*
X578866D01*
X577850Y555117D02*
Y557149D01*
X621284Y577850D02*
X623316D01*
X622300Y576834D02*
Y578866D01*
X573024Y574167D02*
X575056D01*
X574040Y573151D02*
Y575183D01*
X488157Y330073D02*
X490188D01*
X489173Y329057D02*
Y331089D01*
X678434Y492760D02*
X680466D01*
X679450Y491744D02*
Y493776D01*
X282194Y542290D02*
X284226D01*
X283210Y541274D02*
Y543306D01*
X654874Y460440D02*
X656906D01*
X655890Y459424D02*
Y461456D01*
X288544Y593090D02*
X290576D01*
X289560Y592074D02*
Y594106D01*
X662874Y412440D02*
X664906D01*
X663890Y411424D02*
Y413456D01*
X678434Y412375D02*
X680466D01*
X679450Y411359D02*
Y413391D01*
X678299Y420624D02*
X680331D01*
X679315Y419608D02*
Y421640D01*
X884174Y198120D02*
X886206D01*
X885190Y197104D02*
Y199136D01*
X857504Y274320D02*
X859536D01*
X858520Y273304D02*
Y275336D01*
X862584Y274320D02*
X864616D01*
X863600Y273304D02*
Y275336D01*
X872744Y325120D02*
X874776D01*
X873760Y324104D02*
Y326136D01*
X865124Y321310D02*
X867156D01*
X866140Y320294D02*
Y322326D01*
X865124Y327660D02*
X867156D01*
X866140Y326644D02*
Y328676D01*
X872744Y320040D02*
X874776D01*
X873760Y319024D02*
Y321056D01*
X594614Y444373D02*
X596646D01*
X595630Y443357D02*
Y445389D01*
X614874Y444373D02*
X616906D01*
X615890Y443357D02*
Y445389D01*
X622874Y444440D02*
X624906D01*
X623890Y443424D02*
Y445456D01*
X614874Y452440D02*
X616906D01*
X615890Y451424D02*
Y453456D01*
X622874Y452440D02*
X624906D01*
X623890Y451424D02*
Y453456D01*
X670874Y452440D02*
X672906D01*
X671890Y451424D02*
Y453456D01*
X662874Y452440D02*
X664906D01*
X663890Y451424D02*
Y453456D01*
X435864Y519303D02*
X437896D01*
X436880Y518287D02*
Y520319D01*
X306324Y515620D02*
X308356D01*
X307340Y514604D02*
Y516636D01*
X259334Y430530D02*
X261366D01*
X260350Y429514D02*
Y431546D01*
X322834Y515620D02*
X324866D01*
X323850Y514604D02*
Y516636D01*
X346964Y542290D02*
X348996D01*
X347980Y541274D02*
Y543306D01*
X343089Y544785D02*
X345121D01*
X344105Y543769D02*
Y545801D01*
X388874Y599440D02*
X390906D01*
X389890Y598424D02*
Y600456D01*
X378714Y598170D02*
X380746D01*
X379730Y597154D02*
Y599186D01*
X654874Y404440D02*
X656906D01*
X655890Y403424D02*
Y405456D01*
X654874Y420440D02*
X656906D01*
X655890Y419424D02*
Y421456D01*
X670874Y404440D02*
X672906D01*
X671890Y403424D02*
Y405456D01*
X638874Y428440D02*
X640906D01*
X639890Y427424D02*
Y429456D01*
X662874Y428440D02*
X664906D01*
X663890Y427424D02*
Y429456D01*
X630874Y428440D02*
X632906D01*
X631890Y427424D02*
Y429456D01*
X364744Y449580D02*
X366776D01*
X365760Y448564D02*
Y450596D01*
X364744Y444500D02*
X366776D01*
X365760Y443484D02*
Y445516D01*
X346964Y429260D02*
X348996D01*
X347980Y428244D02*
Y430276D01*
X299974Y433070D02*
X302006D01*
X300990Y432054D02*
Y434086D01*
X573024Y483870D02*
X575056D01*
X574040Y482854D02*
Y484886D01*
X680974Y288290D02*
X683006D01*
X681990Y287274D02*
Y289306D01*
X687324Y283210D02*
X689356D01*
X688340Y282194D02*
Y284226D01*
X506984Y594360D02*
X509016D01*
X508000Y593344D02*
Y595376D01*
X468884Y594360D02*
X470916D01*
X469900Y593344D02*
Y595376D01*
X225044Y248920D02*
X227076D01*
X226060Y247904D02*
Y249936D01*
X419354Y403860D02*
X421386D01*
X420370Y402844D02*
Y404876D01*
X995934Y264160D02*
X997966D01*
X996950Y263144D02*
Y265176D01*
X995934Y269240D02*
X997966D01*
X996950Y268224D02*
Y270256D01*
X995934Y274320D02*
X997966D01*
X996950Y273304D02*
Y275336D01*
X990854Y264160D02*
X992886D01*
X991870Y263144D02*
Y265176D01*
X996064Y258950D02*
X998096D01*
X997080Y257934D02*
Y259966D01*
X990854Y269285D02*
X992886D01*
X991870Y268269D02*
Y270301D01*
X990854Y274410D02*
X992886D01*
X991870Y273394D02*
Y275426D01*
X950087Y452120D02*
X952119D01*
X951103Y451104D02*
Y453136D01*
X1048004Y435610D02*
X1050036D01*
X1049020Y434594D02*
Y436626D01*
X1032764Y435610D02*
X1034796D01*
X1033780Y434594D02*
Y436626D01*
X1040384Y435610D02*
X1042416D01*
X1041400Y434594D02*
Y436626D01*
X1055624Y435610D02*
X1057656D01*
X1056640Y434594D02*
Y436626D01*
X959104Y488950D02*
X961136D01*
X960120Y487934D02*
Y489966D01*
X931164Y408940D02*
X933196D01*
X932180Y407924D02*
Y409956D01*
X1009904Y478790D02*
X1011936D01*
X1010920Y477774D02*
Y479806D01*
X1058164Y535940D02*
X1060196D01*
X1059180Y534924D02*
Y536956D01*
X1049274Y543560D02*
X1051306D01*
X1050290Y542544D02*
Y544576D01*
X965454Y509270D02*
X967486D01*
X966470Y508254D02*
Y510286D01*
X1001014Y534670D02*
X1003046D01*
X1002030Y533654D02*
Y535686D01*
X965454Y547370D02*
X967486D01*
X966470Y546354D02*
Y548386D01*
X964184Y528320D02*
X966216D01*
X965200Y527304D02*
Y529336D01*
X924814Y375920D02*
X926846D01*
X925830Y374904D02*
Y376936D01*
X777018Y516890D02*
X779050D01*
X778034Y515874D02*
Y517906D01*
X684784Y546100D02*
X686816D01*
X685800Y545084D02*
Y547116D01*
X575564Y726440D02*
X577596D01*
X576580Y725424D02*
Y727456D01*
X678434Y509270D02*
X680466D01*
X679450Y508254D02*
Y510286D01*
X743601Y542290D02*
X745633D01*
X744617Y541274D02*
Y543306D01*
X638874Y468440D02*
X640906D01*
X639890Y467424D02*
Y469456D01*
X112014Y403860D02*
X114046D01*
X113030Y402844D02*
Y404876D01*
X158524Y398780D02*
X160556D01*
X159540Y397764D02*
Y399796D01*
X98044Y398780D02*
X100076D01*
X99060Y397764D02*
Y399796D01*
X98044Y462280D02*
X100076D01*
X99060Y461264D02*
Y463296D01*
X98524Y525780D02*
X100556D01*
X99540Y524764D02*
Y526796D01*
X125984Y565150D02*
X128016D01*
X127000Y564134D02*
Y566166D01*
X98044Y548640D02*
X100076D01*
X99060Y547624D02*
Y549656D01*
X99314Y565150D02*
X101346D01*
X100330Y564134D02*
Y566166D01*
X622874Y468440D02*
X624906D01*
X623890Y467424D02*
Y469456D01*
X622874Y460440D02*
X624906D01*
X623890Y459424D02*
Y461456D01*
X496824Y623570D02*
X498856D01*
X497840Y622554D02*
Y624586D01*
X481584Y635000D02*
X483616D01*
X482600Y633984D02*
Y636016D01*
X486664Y635000D02*
X488696D01*
X487680Y633984D02*
Y636016D01*
X501904Y599440D02*
X503936D01*
X502920Y598424D02*
Y600456D01*
X506984Y599440D02*
X509016D01*
X508000Y598424D02*
Y600456D01*
X499364Y604520D02*
X501396D01*
X500380Y603504D02*
Y605536D01*
X504444Y604520D02*
X506476D01*
X505460Y603504D02*
Y605536D01*
X622554Y420370D02*
X624586D01*
X623570Y419354D02*
Y421386D01*
X622874Y412440D02*
X624906D01*
X623890Y411424D02*
Y413456D01*
X614874Y428440D02*
X616906D01*
X615890Y427424D02*
Y429456D01*
X630874Y412440D02*
X632906D01*
X631890Y411424D02*
Y413456D01*
X630874Y420440D02*
X632906D01*
X631890Y419424D02*
Y421456D01*
X409194Y604520D02*
X411226D01*
X410210Y603504D02*
Y605536D01*
X426974Y402590D02*
X429006D01*
X427990Y401574D02*
Y403606D01*
X402844Y403860D02*
X404876D01*
X403860Y402844D02*
Y404876D01*
X662874Y460440D02*
X664906D01*
X663890Y459424D02*
Y461456D01*
X322899Y403925D02*
X324931D01*
X323915Y402909D02*
Y404941D01*
X387604Y403860D02*
X389636D01*
X388620Y402844D02*
Y404876D01*
X530479Y328295D02*
X532511D01*
X531495Y327279D02*
Y329311D01*
X513969Y319405D02*
X516001D01*
X514985Y318389D02*
Y320421D01*
X468249Y310515D02*
X470281D01*
X469265Y309499D02*
Y311531D01*
X529209Y301625D02*
X531241D01*
X530225Y300609D02*
Y302641D01*
X534289Y301625D02*
X536321D01*
X535305Y300609D02*
Y302641D01*
X534289Y296545D02*
X536321D01*
X535305Y295529D02*
Y297561D01*
X528574Y296545D02*
X530606D01*
X529590Y295529D02*
Y297561D01*
X534289Y264795D02*
X536321D01*
X535305Y263779D02*
Y265811D01*
X516509Y274955D02*
X518541D01*
X517525Y273939D02*
Y275971D01*
X526669Y264795D02*
X528701D01*
X527685Y263779D02*
Y265811D01*
X516509Y268605D02*
X518541D01*
X517525Y267589D02*
Y269621D01*
X521589Y274955D02*
X523621D01*
X522605Y273939D02*
Y275971D01*
X521589Y268605D02*
X523621D01*
X522605Y267589D02*
Y269621D01*
X503809Y266065D02*
X505841D01*
X504825Y265049D02*
Y267081D01*
X510159Y266065D02*
X512191D01*
X511175Y265049D02*
Y267081D01*
X346964Y405130D02*
X348996D01*
X347980Y404114D02*
Y406146D01*
X622874Y428440D02*
X624906D01*
X623890Y427424D02*
Y429456D01*
X621284Y599440D02*
X623316D01*
X622300Y598424D02*
Y600456D01*
X604774Y577850D02*
X606806D01*
X605790Y576834D02*
Y578866D01*
X621284Y588010D02*
X623316D01*
X622300Y586994D02*
Y589026D01*
X604774Y588010D02*
X606806D01*
X605790Y586994D02*
Y589026D01*
X604774Y599440D02*
X606806D01*
X605790Y598424D02*
Y600456D01*
X604774Y609600D02*
X606806D01*
X605790Y608584D02*
Y610616D01*
X621284Y609600D02*
X623316D01*
X622300Y608584D02*
Y610616D01*
X575564Y760730D02*
X577596D01*
X576580Y759714D02*
Y761746D01*
X600964Y760730D02*
X602996D01*
X601980Y759714D02*
Y761746D01*
X600964Y783590D02*
X602996D01*
X601980Y782574D02*
Y784606D01*
X575564Y783590D02*
X577596D01*
X576580Y782574D02*
Y784606D01*
X600964Y716280D02*
X602996D01*
X601980Y715264D02*
Y717296D01*
X575564Y715010D02*
X577596D01*
X576580Y713994D02*
Y716026D01*
X575564Y737870D02*
X577596D01*
X576580Y736854D02*
Y738886D01*
X600964Y736600D02*
X602996D01*
X601980Y735584D02*
Y737616D01*
X600964Y726440D02*
X602996D01*
X601980Y725424D02*
Y727456D01*
X600964Y770890D02*
X602996D01*
X601980Y769874D02*
Y771906D01*
X575564Y770890D02*
X577596D01*
X576580Y769874D02*
Y771906D01*
X1008634Y468630D02*
X1010666D01*
X1009650Y467614D02*
Y469646D01*
X999744Y523240D02*
X1001776D01*
X1000760Y522224D02*
Y524256D01*
X846074Y567690D02*
X848106D01*
X847090Y566674D02*
Y568706D01*
X899414Y561340D02*
X901446D01*
X900430Y560324D02*
Y562356D01*
X886714Y561340D02*
X888746D01*
X887730Y560324D02*
Y562356D01*
X893064Y561340D02*
X895096D01*
X894080Y560324D02*
Y562356D01*
X851154Y567690D02*
X853186D01*
X852170Y566674D02*
Y568706D01*
X679704Y269240D02*
X681736D01*
X680720Y268224D02*
Y270256D01*
X687324Y270510D02*
X689356D01*
X688340Y269494D02*
Y271526D01*
X674624Y278130D02*
X676656D01*
X675640Y277114D02*
Y279146D01*
X720344Y208280D02*
X722376D01*
X721360Y207264D02*
Y209296D01*
X757174Y262890D02*
X759206D01*
X758190Y261874D02*
Y263906D01*
X806704Y267970D02*
X808736D01*
X807720Y266954D02*
Y268986D01*
X586000Y254994D02*
X588032D01*
X587016Y253978D02*
Y256010D01*
X522224Y199390D02*
X524256D01*
X523240Y198374D02*
Y200406D01*
X957834Y265430D02*
X959866D01*
X958850Y264414D02*
Y266446D01*
X898144Y163830D02*
X900176D01*
X899160Y162814D02*
Y164846D01*
X889254Y163830D02*
X891286D01*
X890270Y162814D02*
Y164846D01*
X914654Y161290D02*
X916686D01*
X915670Y160274D02*
Y162306D01*
X905764Y186690D02*
X907796D01*
X906780Y185674D02*
Y187706D01*
X923544Y209550D02*
X925576D01*
X924560Y208534D02*
Y210566D01*
X896874Y218440D02*
X898906D01*
X897890Y217424D02*
Y219456D01*
X891794Y198120D02*
X893826D01*
X892810Y197104D02*
Y199136D01*
X787654Y158750D02*
X789686D01*
X788670Y157734D02*
Y159766D01*
X769874Y158750D02*
X771906D01*
X770890Y157734D02*
Y159766D01*
X829564Y158750D02*
X831596D01*
X830580Y157734D02*
Y159766D01*
X811784Y158750D02*
X813816D01*
X812800Y157734D02*
Y159766D01*
X824484Y189230D02*
X826516D01*
X825500Y188214D02*
Y190246D01*
X776224Y200660D02*
X778256D01*
X777240Y199644D02*
Y201676D01*
X663194Y226060D02*
X665226D01*
X664210Y225044D02*
Y227076D01*
X626364Y233680D02*
X628396D01*
X627380Y232664D02*
Y234696D01*
X604774Y224790D02*
X606806D01*
X605790Y223774D02*
Y225806D01*
X641604Y189230D02*
X643636D01*
X642620Y188214D02*
Y190246D01*
X707644Y167640D02*
X709676D01*
X708660Y166624D02*
Y168656D01*
X733044Y175260D02*
X735076D01*
X734060Y174244D02*
Y176276D01*
X783844Y266700D02*
X785876D01*
X784860Y265684D02*
Y267716D01*
X771144Y287020D02*
X773176D01*
X772160Y286004D02*
Y288036D01*
X776224Y266700D02*
X778256D01*
X777240Y265684D02*
Y267716D01*
X783844Y274320D02*
X785876D01*
X784860Y273304D02*
Y275336D01*
X776224Y274320D02*
X778256D01*
X777240Y273304D02*
Y275336D01*
X1008634Y500922D02*
X1010666D01*
X1009650Y499906D02*
Y501937D01*
X1050544Y697230D02*
X1052576D01*
X1051560Y696214D02*
Y698246D01*
X457454Y599440D02*
X459486D01*
X458470Y598424D02*
Y600456D01*
X438404Y599440D02*
X440436D01*
X439420Y598424D02*
Y600456D01*
X420624Y599440D02*
X422656D01*
X421640Y598424D02*
Y600456D01*
X410464Y599440D02*
X412496D01*
X411480Y598424D02*
Y600456D01*
X399034Y599440D02*
X401066D01*
X400050Y598424D02*
Y600456D01*
X462534Y610870D02*
X464566D01*
X463550Y609854D02*
Y611886D01*
X449834Y601980D02*
X451866D01*
X450850Y600964D02*
Y602996D01*
X429514Y599440D02*
X431546D01*
X430530Y598424D02*
Y600456D01*
X368554Y599440D02*
X370586D01*
X369570Y598424D02*
Y600456D01*
X378714Y656590D02*
X380746D01*
X379730Y655574D02*
Y657606D01*
X388874Y632460D02*
X390906D01*
X389890Y631444D02*
Y633476D01*
X349504Y609600D02*
X351536D01*
X350520Y608584D02*
Y610616D01*
X372091Y633457D02*
X374123D01*
X373107Y632441D02*
Y634473D01*
X401574Y666750D02*
X403606D01*
X402590Y665734D02*
Y667766D01*
X321564Y612140D02*
X323596D01*
X322580Y611124D02*
Y613156D01*
X288544Y781050D02*
X290576D01*
X289560Y780034D02*
Y782066D01*
X451104Y193040D02*
X453136D01*
X452120Y192024D02*
Y194056D01*
X466344Y161290D02*
X468376D01*
X467360Y160274D02*
Y162306D01*
X446024Y167640D02*
X448056D01*
X447040Y166624D02*
Y168656D01*
X446024Y193040D02*
X448056D01*
X447040Y192024D02*
Y194056D01*
X466344Y195580D02*
X468376D01*
X467360Y194564D02*
Y196596D01*
X466344Y201930D02*
X468376D01*
X467360Y200914D02*
Y202946D01*
X481584Y191770D02*
X483616D01*
X482600Y190754D02*
Y192786D01*
X197104Y227330D02*
X199136D01*
X198120Y226314D02*
Y228346D01*
X172974Y270510D02*
X175006D01*
X173990Y269494D02*
Y271526D01*
X219964Y307340D02*
X221996D01*
X220980Y306324D02*
Y308356D01*
X193294Y298450D02*
X195326D01*
X194310Y297434D02*
Y299466D01*
X226314Y281940D02*
X228346D01*
X227330Y280924D02*
Y282956D01*
X226314Y276860D02*
X228346D01*
X227330Y275844D02*
Y277876D01*
X241554Y303530D02*
X243586D01*
X242570Y302514D02*
Y304546D01*
X249174Y303530D02*
X251206D01*
X250190Y302514D02*
Y304546D01*
X260604Y276860D02*
X262636D01*
X261620Y275844D02*
Y277876D01*
X266954Y276860D02*
X268986D01*
X267970Y275844D02*
Y277876D01*
X261874Y290830D02*
X263906D01*
X262890Y289814D02*
Y291846D01*
X268224Y290830D02*
X270256D01*
X269240Y289814D02*
Y291846D01*
X261874Y298450D02*
X263906D01*
X262890Y297434D02*
Y299466D01*
X255524Y303530D02*
X257556D01*
X256540Y302514D02*
Y304546D01*
X713994Y256540D02*
X716026D01*
X715010Y255524D02*
Y257556D01*
X733044Y278130D02*
X735076D01*
X734060Y277114D02*
Y279146D01*
X724154Y251460D02*
X726186D01*
X725170Y250444D02*
Y252476D01*
X297434Y638810D02*
X299466D01*
X298450Y637794D02*
Y639826D01*
X296164Y619760D02*
X298196D01*
X297180Y618744D02*
Y620776D01*
X261874Y773430D02*
X263906D01*
X262890Y772414D02*
Y774446D01*
X218694Y781050D02*
X220726D01*
X219710Y780034D02*
Y782066D01*
X493014Y604520D02*
X495046D01*
X494030Y603504D02*
Y605536D01*
X476504Y635000D02*
X478536D01*
X477520Y633984D02*
Y636016D01*
X471424Y635000D02*
X473456D01*
X472440Y633984D02*
Y636016D01*
X484124Y631190D02*
X486156D01*
X485140Y630174D02*
Y632206D01*
X489204Y631190D02*
X491236D01*
X490220Y630174D02*
Y632206D01*
X479044Y631190D02*
X481076D01*
X480060Y630174D02*
Y632206D01*
X473964Y631190D02*
X475996D01*
X474980Y630174D02*
Y632206D01*
X486664Y604520D02*
X488696D01*
X487680Y603504D02*
Y605536D01*
X468884Y631190D02*
X470916D01*
X469900Y630174D02*
Y632206D01*
X430784Y632460D02*
X432816D01*
X431800Y631444D02*
Y633476D01*
X757174Y275590D02*
X759206D01*
X758190Y274574D02*
Y276606D01*
X757174Y269240D02*
X759206D01*
X758190Y268224D02*
Y270256D01*
X1026414Y549910D02*
X1028446D01*
X1027430Y548894D02*
Y550926D01*
X1007364Y562610D02*
X1009396D01*
X1008380Y561594D02*
Y563626D01*
X1007364Y568960D02*
X1009396D01*
X1008380Y567944D02*
Y569976D01*
X1003554Y500922D02*
X1005586D01*
X1004570Y499906D02*
Y501937D01*
X846074Y367030D02*
X848106D01*
X847090Y366014D02*
Y368046D01*
X846074Y360680D02*
X848106D01*
X847090Y359664D02*
Y361696D01*
X865124Y596900D02*
X867156D01*
X866140Y595884D02*
Y597916D01*
X865124Y601980D02*
X867156D01*
X866140Y600964D02*
Y602996D01*
X865124Y607060D02*
X867156D01*
X866140Y606044D02*
Y608076D01*
X860044Y596900D02*
X862076D01*
X861060Y595884D02*
Y597916D01*
X860044Y601980D02*
X862076D01*
X861060Y600964D02*
Y602996D01*
X860044Y607060D02*
X862076D01*
X861060Y606044D02*
Y608076D01*
X848614Y635000D02*
X850646D01*
X849630Y633984D02*
Y636016D01*
X1035304Y593090D02*
X1037336D01*
X1036320Y592074D02*
Y594106D01*
X1042924Y593090D02*
X1044956D01*
X1043940Y592074D02*
Y594106D01*
X1042924Y600710D02*
X1044956D01*
X1043940Y599694D02*
Y601726D01*
X1042924Y607060D02*
X1044956D01*
X1043940Y606044D02*
Y608076D01*
X919734Y669290D02*
X921766D01*
X920750Y668274D02*
Y670306D01*
X927354Y669290D02*
X929386D01*
X928370Y668274D02*
Y670306D01*
X933704Y669290D02*
X935736D01*
X934720Y668274D02*
Y670306D01*
X940054Y669290D02*
X942086D01*
X941070Y668274D02*
Y670306D01*
X946404Y669290D02*
X948436D01*
X947420Y668274D02*
Y670306D01*
X952754Y669290D02*
X954786D01*
X953770Y668274D02*
Y670306D01*
X919734Y675640D02*
X921766D01*
X920750Y674624D02*
Y676656D01*
X927354Y675640D02*
X929386D01*
X928370Y674624D02*
Y676656D01*
X933704Y675640D02*
X935736D01*
X934720Y674624D02*
Y676656D01*
X940054Y675640D02*
X942086D01*
X941070Y674624D02*
Y676656D01*
X946404Y675640D02*
X948436D01*
X947420Y674624D02*
Y676656D01*
X952754Y675640D02*
X954786D01*
X953770Y674624D02*
Y676656D01*
X919734Y681990D02*
X921766D01*
X920750Y680974D02*
Y683006D01*
X927354Y681990D02*
X929386D01*
X928370Y680974D02*
Y683006D01*
X933704Y681990D02*
X935736D01*
X934720Y680974D02*
Y683006D01*
X940054Y681990D02*
X942086D01*
X941070Y680974D02*
Y683006D01*
X946404Y681990D02*
X948436D01*
X947420Y680974D02*
Y683006D01*
X952754Y681990D02*
X954786D01*
X953770Y680974D02*
Y683006D01*
X919734Y688340D02*
X921766D01*
X920750Y687324D02*
Y689356D01*
X927354Y688340D02*
X929386D01*
X928370Y687324D02*
Y689356D01*
X933704Y688340D02*
X935736D01*
X934720Y687324D02*
Y689356D01*
X940054Y688340D02*
X942086D01*
X941070Y687324D02*
Y689356D01*
X946404Y688340D02*
X948436D01*
X947420Y687324D02*
Y689356D01*
X952754Y688340D02*
X954786D01*
X953770Y687324D02*
Y689356D01*
X919734Y694690D02*
X921766D01*
X920750Y693674D02*
Y695706D01*
X927354Y694690D02*
X929386D01*
X928370Y693674D02*
Y695706D01*
X933704Y694690D02*
X935736D01*
X934720Y693674D02*
Y695706D01*
X940054Y694690D02*
X942086D01*
X941070Y693674D02*
Y695706D01*
X946404Y694690D02*
X948436D01*
X947420Y693674D02*
Y695706D01*
X952754Y694690D02*
X954786D01*
X953770Y693674D02*
Y695706D01*
X927354Y701040D02*
X929386D01*
X928370Y700024D02*
Y702056D01*
X473964Y688340D02*
X475996D01*
X474980Y687324D02*
Y689356D01*
X532384Y726440D02*
X534416D01*
X533400Y725424D02*
Y727456D01*
X509524Y675640D02*
X511556D01*
X510540Y674624D02*
Y676656D01*
X527304Y698500D02*
X529336D01*
X528320Y697484D02*
Y699516D01*
X158524Y462280D02*
X160556D01*
X159540Y461264D02*
Y463296D01*
X158524Y525780D02*
X160556D01*
X159540Y524764D02*
Y526796D01*
X960374Y209550D02*
X962406D01*
X961390Y208534D02*
Y210566D01*
X928624Y294640D02*
X930656D01*
X929640Y293624D02*
Y295656D01*
X942594Y317500D02*
X944626D01*
X943610Y316484D02*
Y318516D01*
X942594Y323850D02*
X944626D01*
X943610Y322834D02*
Y324866D01*
X932434Y273050D02*
X934466D01*
X933450Y272034D02*
Y274066D01*
X921004Y265430D02*
X923036D01*
X922020Y264414D02*
Y266446D01*
X927354Y265430D02*
X929386D01*
X928370Y264414D02*
Y266446D01*
X1045664Y336550D02*
X1047696D01*
X1046680Y335534D02*
Y337566D01*
X1030224Y336550D02*
X1032256D01*
X1031240Y335534D02*
Y337566D01*
X1045664Y349250D02*
X1047696D01*
X1046680Y348234D02*
Y350266D01*
X1045664Y361950D02*
X1047696D01*
X1046680Y360934D02*
Y362966D01*
X1045664Y374650D02*
X1047696D01*
X1046680Y373634D02*
Y375666D01*
X1045664Y387350D02*
X1047696D01*
X1046680Y386334D02*
Y388366D01*
X1045664Y400050D02*
X1047696D01*
X1046680Y399034D02*
Y401066D01*
X1007664Y336550D02*
X1009696D01*
X1008680Y335534D02*
Y337566D01*
X1007664Y349250D02*
X1009696D01*
X1008680Y348234D02*
Y350266D01*
X1007664Y361950D02*
X1009696D01*
X1008680Y360934D02*
Y362966D01*
X1007664Y387350D02*
X1009696D01*
X1008680Y386334D02*
Y388366D01*
X1007664Y400050D02*
X1009696D01*
X1008680Y399034D02*
Y401066D01*
X886714Y346710D02*
X888746D01*
X887730Y345694D02*
Y347726D01*
X936244Y337820D02*
X938276D01*
X937260Y336804D02*
Y338836D01*
X936244Y342900D02*
X938276D01*
X937260Y341884D02*
Y343916D01*
X923544Y294640D02*
X925576D01*
X924560Y293624D02*
Y295656D01*
X875284Y353060D02*
X877316D01*
X876300Y352044D02*
Y354076D01*
X875284Y361950D02*
X877316D01*
X876300Y360934D02*
Y362966D01*
X858774Y321310D02*
X860806D01*
X859790Y320294D02*
Y322326D01*
X852424Y321310D02*
X854456D01*
X853440Y320294D02*
Y322326D01*
X858774Y327660D02*
X860806D01*
X859790Y326644D02*
Y328676D01*
X852424Y327660D02*
X854456D01*
X853440Y326644D02*
Y328676D01*
X936244Y317500D02*
X938276D01*
X937260Y316484D02*
Y318516D01*
X936244Y323850D02*
X938276D01*
X937260Y322834D02*
Y324866D01*
X804164Y727710D02*
X806196D01*
X805180Y726694D02*
Y728726D01*
X778764Y727710D02*
X780796D01*
X779780Y726694D02*
Y728726D01*
X753364Y727710D02*
X755396D01*
X754380Y726694D02*
Y728726D01*
X606874Y476440D02*
X608906D01*
X607890Y475424D02*
Y477456D01*
X678874Y476440D02*
X680906D01*
X679890Y475424D02*
Y477456D01*
X614874Y460440D02*
X616906D01*
X615890Y459424D02*
Y461456D01*
X630874Y460440D02*
X632906D01*
X631890Y459424D02*
Y461456D01*
X638874Y460440D02*
X640906D01*
X639890Y459424D02*
Y461456D01*
X662874Y444440D02*
X664906D01*
X663890Y443424D02*
Y445456D01*
M02*
