G04*
G04 #@! TF.GenerationSoftware,Altium Limited,Altium Designer,24.0.1 (36)*
G04*
G04 Layer_Color=8388736*
%FSLAX44Y44*%
%MOMM*%
G71*
G04*
G04 #@! TF.SameCoordinates,043D453D-7082-4CC0-88CE-E1747F565096*
G04*
G04*
G04 #@! TF.FilePolarity,Positive*
G04*
G01*
G75*
G36*
X1024558Y439950D02*
X1016358D01*
X1016106D01*
X1015639Y440143D01*
X1015282Y440500D01*
X1015088Y440967D01*
Y441220D01*
D01*
Y460950D01*
X1005158D01*
X1004905D01*
X1004439Y461143D01*
X1004081Y461500D01*
X1003888Y461967D01*
Y462220D01*
D01*
Y515820D01*
Y516072D01*
X1004081Y516539D01*
X1004439Y516896D01*
X1004905Y517090D01*
X1005158D01*
D01*
X1009788D01*
Y529450D01*
X1005158D01*
X1004905D01*
X1004439Y529643D01*
X1004081Y530000D01*
X1003888Y530467D01*
Y530720D01*
D01*
Y555120D01*
Y555372D01*
X1004081Y555839D01*
X1004439Y556196D01*
X1004905Y556390D01*
X1005158D01*
D01*
X1062158D01*
X1062411D01*
X1062877Y556196D01*
X1063235Y555839D01*
X1063428Y555372D01*
Y555120D01*
D01*
Y453420D01*
Y452894D01*
X1062684Y452150D01*
X1061632D01*
X1060888Y452894D01*
Y453420D01*
D01*
Y553849D01*
X1006428D01*
Y531990D01*
X1011058D01*
X1011311D01*
X1011778Y531796D01*
X1012135Y531439D01*
X1012328Y530972D01*
Y530720D01*
D01*
Y515820D01*
Y515567D01*
X1012135Y515100D01*
X1011778Y514743D01*
X1011311Y514550D01*
X1011058D01*
D01*
X1006428D01*
Y463490D01*
X1016358D01*
X1016611D01*
X1017078Y463296D01*
X1017435Y462939D01*
X1017628Y462472D01*
Y462220D01*
D01*
Y442490D01*
X1024558D01*
X1025084D01*
X1025828Y441746D01*
Y440694D01*
X1025084Y439950D01*
X1024558D01*
D01*
D02*
G37*
M02*
