G04*
G04 #@! TF.GenerationSoftware,Altium Limited,Altium Designer,24.0.1 (36)*
G04*
G04 Layer_Color=16711935*
%FSLAX44Y44*%
%MOMM*%
G71*
G04*
G04 #@! TF.SameCoordinates,043D453D-7082-4CC0-88CE-E1747F565096*
G04*
G04*
G04 #@! TF.FilePolarity,Positive*
G04*
G01*
G75*
%ADD12C,0.1000*%
%ADD14C,0.2000*%
D12*
X893850Y316080D02*
G03*
X893850Y316080I-5000J0D01*
G01*
X265480Y430070D02*
G03*
X265480Y430070I-5000J0D01*
G01*
X981920Y245440D02*
Y254940D01*
X964420Y245440D02*
Y254940D01*
Y245440D02*
X981920D01*
X964420Y254940D02*
X981920D01*
X982490Y204800D02*
Y214300D01*
X964990Y204800D02*
Y214300D01*
Y204800D02*
X982490D01*
X964990Y214300D02*
X982490D01*
X982840Y231470D02*
Y240970D01*
X965340Y231470D02*
Y240970D01*
Y231470D02*
X982840D01*
X965340Y240970D02*
X982840D01*
Y218770D02*
Y228270D01*
X965340Y218770D02*
Y228270D01*
Y218770D02*
X982840D01*
X965340Y228270D02*
X982840D01*
X982490Y260680D02*
Y270180D01*
X964990Y260680D02*
Y270180D01*
Y260680D02*
X982490D01*
X964990Y270180D02*
X982490D01*
X597890Y386440D02*
Y486440D01*
X697890Y386440D02*
Y486440D01*
X597890Y386440D02*
X697890D01*
X597890Y486440D02*
X697890D01*
X910850Y307080D02*
Y338080D01*
X879850Y307080D02*
Y338080D01*
X910850D01*
X879850Y307080D02*
X910850D01*
X251480Y421070D02*
X436480D01*
X251480Y524070D02*
X436480D01*
X251480Y421070D02*
Y524070D01*
X436480Y421070D02*
Y524070D01*
X352370Y567300D02*
X361370D01*
X352370Y550300D02*
X361370D01*
Y567300D01*
X352370Y550300D02*
Y567300D01*
X880350Y268210D02*
Y298210D01*
X910350D01*
Y268210D02*
Y298210D01*
X880350Y268210D02*
X910350D01*
X609456Y272922D02*
X616173Y266204D01*
X597081Y260548D02*
X603799Y253830D01*
X616173Y266204D01*
X597081Y260548D02*
X609456Y272922D01*
X651287Y164893D02*
X658004Y158175D01*
X663661Y177267D02*
X670379Y170550D01*
X651287Y164893D02*
X663661Y177267D01*
X658004Y158175D02*
X670379Y170550D01*
X549687Y209055D02*
X556404Y215772D01*
X562061Y196680D02*
X568779Y203398D01*
X556404Y215772D02*
X568779Y203398D01*
X549687Y209055D02*
X562061Y196680D01*
X572626Y236092D02*
X579343Y229375D01*
X560251Y223718D02*
X566969Y217000D01*
X579343Y229375D01*
X560251Y223718D02*
X572626Y236092D01*
X578897Y242363D02*
X585614Y235645D01*
X591271Y254737D02*
X597989Y248020D01*
X578897Y242363D02*
X591271Y254737D01*
X585614Y235645D02*
X597989Y248020D01*
X105900Y569900D02*
X123400D01*
X105900Y560400D02*
X123400D01*
X105900D02*
Y569900D01*
X123400Y560400D02*
Y569900D01*
X874530Y380800D02*
X891530D01*
X874530Y371800D02*
X891530D01*
X874530D02*
Y380800D01*
X891530Y371800D02*
Y380800D01*
X345770Y614820D02*
Y632320D01*
X355270Y614820D02*
Y632320D01*
X345770Y614820D02*
X355270D01*
X345770Y632320D02*
X355270D01*
X1013850Y560650D02*
X1030850D01*
X1013850Y569650D02*
X1030850D01*
Y560650D02*
Y569650D01*
X1013850Y560650D02*
Y569650D01*
D14*
X971170Y472630D02*
X987170D01*
Y464630D02*
Y472630D01*
X971170Y464630D02*
X987170D01*
X971170D02*
Y472630D01*
Y453580D02*
X987170D01*
Y445580D02*
Y453580D01*
X971170Y445580D02*
X987170D01*
X971170D02*
Y453580D01*
X734630Y184390D02*
Y200390D01*
X718630Y184390D02*
X734630D01*
X718630D02*
Y200390D01*
X734630D01*
X484650Y170890D02*
X518650D01*
X484650D02*
Y227890D01*
X518650D01*
Y170890D02*
Y227890D01*
X877270Y171115D02*
Y192115D01*
Y171115D02*
X898270D01*
Y192115D01*
X877270D02*
X898270D01*
X765765Y280630D02*
X795765D01*
Y260630D02*
Y280630D01*
X765765Y260630D02*
X795765D01*
X765765D02*
Y280630D01*
X760100Y561380D02*
X776600D01*
X760100Y527880D02*
Y561380D01*
Y527880D02*
X776600D01*
Y561380D01*
X506040Y679890D02*
Y712890D01*
X532040D01*
Y679890D02*
Y712890D01*
X506040Y679890D02*
X532040D01*
X717790Y171640D02*
X733790D01*
Y163640D02*
Y171640D01*
X717790Y163640D02*
X733790D01*
X717790D02*
Y171640D01*
X772400Y163640D02*
X788400D01*
X772400D02*
Y171640D01*
X788400D01*
Y163640D02*
Y171640D01*
X813040Y163640D02*
X829040D01*
X813040D02*
Y171640D01*
X829040D01*
Y163640D02*
Y171640D01*
X692390Y306260D02*
X708390D01*
Y298260D02*
Y306260D01*
X692390Y298260D02*
X708390D01*
X692390D02*
Y306260D01*
X721170Y261860D02*
Y277860D01*
X729170D01*
Y261860D02*
Y277860D01*
X721170Y261860D02*
X729170D01*
X527495Y322245D02*
X535495D01*
X527495Y306245D02*
Y322245D01*
Y306245D02*
X535495D01*
Y322245D01*
X870840Y213550D02*
X886840D01*
Y205550D02*
Y213550D01*
X870840Y205550D02*
X886840D01*
X870840D02*
Y213550D01*
X911670Y170450D02*
Y186450D01*
X919670D01*
Y170450D02*
Y186450D01*
X911670Y170450D02*
X919670D01*
X527495Y273925D02*
X535495D01*
Y289925D01*
X527495D02*
X535495D01*
X527495Y273925D02*
Y289925D01*
X898780Y213550D02*
X914780D01*
Y205550D02*
Y213550D01*
X898780Y205550D02*
X914780D01*
X898780D02*
Y213550D01*
X474056Y322975D02*
Y331075D01*
Y322975D02*
X490056D01*
Y331075D01*
X474056D02*
X490056D01*
X465265Y288545D02*
X473265D01*
Y304545D01*
X465265D02*
X473265D01*
X465265Y288545D02*
Y304545D01*
X491745Y268415D02*
Y276415D01*
Y268415D02*
X507745D01*
Y276415D01*
X491745D02*
X507745D01*
X730327Y565190D02*
Y570190D01*
X720327D02*
X730327D01*
X720327Y565190D02*
Y570190D01*
Y565190D02*
X730327D01*
X683300Y529670D02*
X688300D01*
Y539670D01*
X683300D02*
X688300D01*
X683300Y529670D02*
Y539670D01*
X772874Y514390D02*
Y519390D01*
X762874D02*
X772874D01*
X762874Y514390D02*
Y519390D01*
Y514390D02*
X772874D01*
X742117Y548720D02*
X747117D01*
Y558720D01*
X742117D02*
X747117D01*
X742117Y548720D02*
Y558720D01*
X929830Y271480D02*
Y287480D01*
X921830Y271480D02*
X929830D01*
X921830D02*
Y287480D01*
X929830D01*
X924370Y303770D02*
Y319770D01*
X932370D01*
Y303770D02*
Y319770D01*
X924370Y303770D02*
X932370D01*
X850790Y281150D02*
Y315150D01*
X868790D01*
Y281150D02*
Y315150D01*
X850790Y281150D02*
X868790D01*
Y333820D02*
Y367820D01*
X850790Y333820D02*
X868790D01*
X850790D02*
Y367820D01*
X868790D01*
X885430Y352870D02*
X901430D01*
X885430D02*
Y360870D01*
X901430D01*
Y352870D02*
Y360870D01*
X479030Y590360D02*
Y598360D01*
Y590360D02*
X495030D01*
Y598360D01*
X479030D02*
X495030D01*
X509460Y609220D02*
Y625220D01*
X501460Y609220D02*
X509460D01*
X501460D02*
Y625220D01*
X509460D01*
X473900Y609300D02*
Y625300D01*
X465900Y609300D02*
X473900D01*
X465900D02*
Y625300D01*
X473900D01*
X305190Y672410D02*
X322190D01*
X305190D02*
Y681410D01*
X322190D01*
Y672410D02*
Y681410D01*
X226570Y776550D02*
X243570D01*
X226570D02*
Y785550D01*
X243570D01*
Y776550D02*
Y785550D01*
X305070Y748610D02*
X322070D01*
X305070D02*
Y757610D01*
X322070D01*
Y748610D02*
Y757610D01*
X511755Y730440D02*
X527755D01*
Y722440D02*
Y730440D01*
X511755Y722440D02*
X527755D01*
X511755D02*
Y730440D01*
X305190Y719510D02*
X322190D01*
Y710510D02*
Y719510D01*
X305190Y710510D02*
X322190D01*
X305190D02*
Y719510D01*
X512700Y661480D02*
X528700D01*
X512700D02*
Y669480D01*
X528700D01*
Y661480D02*
Y669480D01*
X373570Y608570D02*
Y624570D01*
X365570Y608570D02*
X373570D01*
X365570D02*
Y624570D01*
X373570D01*
X434530Y608570D02*
Y624570D01*
X426530Y608570D02*
X434530D01*
X426530D02*
Y624570D01*
X434530D01*
X393890Y608570D02*
Y624570D01*
X385890Y608570D02*
X393890D01*
X385890D02*
Y624570D01*
X393890D01*
X414960Y608470D02*
Y625970D01*
X405460Y608470D02*
X414960D01*
X405460D02*
Y625970D01*
X414960D01*
X455350Y608720D02*
Y625720D01*
X446350Y608720D02*
X455350D01*
X446350D02*
Y625720D01*
X455350D01*
X845630Y613110D02*
Y629110D01*
X853630D01*
Y613110D02*
Y629110D01*
X845630Y613110D02*
X853630D01*
X873380Y572960D02*
X889380D01*
Y564960D02*
Y572960D01*
X873380Y564960D02*
X889380D01*
X873380D02*
Y572960D01*
X971170Y484950D02*
X987170D01*
X971170D02*
Y492950D01*
X987170D01*
Y484950D02*
Y492950D01*
X773050Y291910D02*
X789050D01*
X773050D02*
Y299910D01*
X789050D01*
Y291910D02*
Y299910D01*
X597021Y543429D02*
Y551429D01*
X581021D02*
X597021D01*
X581021Y543429D02*
Y551429D01*
Y543429D02*
X597021D01*
X335090Y550800D02*
X343090D01*
Y566800D01*
X335090D02*
X343090D01*
X335090Y550800D02*
Y566800D01*
X482930Y608470D02*
Y625970D01*
X492430D01*
Y608470D02*
Y625970D01*
X482930Y608470D02*
X492430D01*
X1006810Y186300D02*
X1083610D01*
Y283600D01*
X1006810D02*
X1083610D01*
X1006810Y186300D02*
Y283600D01*
X561980Y777230D02*
X819780D01*
Y725130D02*
Y777230D01*
X561980Y725130D02*
X819780D01*
X561980D02*
Y777230D01*
X763080Y185040D02*
Y201040D01*
X771080D01*
Y185040D02*
Y201040D01*
X763080Y185040D02*
X771080D01*
X821500Y194347D02*
Y210347D01*
X829500D01*
Y194347D02*
Y210347D01*
X821500Y194347D02*
X829500D01*
X693893Y252540D02*
X709893D01*
X693893D02*
Y260540D01*
X709893D01*
Y252540D02*
Y260540D01*
X515365Y323025D02*
Y331025D01*
X499365D02*
X515365D01*
X499365Y323025D02*
Y331025D01*
Y323025D02*
X515365D01*
X862520Y181230D02*
Y197230D01*
X854520Y181230D02*
X862520D01*
X854520D02*
Y197230D01*
X862520D01*
X933370Y341520D02*
Y359520D01*
X923370Y341520D02*
X933370D01*
X923370D02*
Y359520D01*
X933370D01*
X305580Y643310D02*
X322580D01*
Y634310D02*
Y643310D01*
X305580Y634310D02*
X322580D01*
X305580D02*
Y643310D01*
X305190Y662360D02*
X322190D01*
Y653360D02*
Y662360D01*
X305190Y653360D02*
X322190D01*
X305190D02*
Y662360D01*
X393010Y762880D02*
Y779880D01*
X402010D01*
Y762880D02*
Y779880D01*
X393010Y762880D02*
X402010D01*
X406980Y763270D02*
Y780270D01*
X415980D01*
Y763270D02*
Y780270D01*
X406980Y763270D02*
X415980D01*
X420950D02*
Y780270D01*
X429950D01*
Y763270D02*
Y780270D01*
X420950Y763270D02*
X429950D01*
X305190Y615260D02*
X322190D01*
X305190D02*
Y624260D01*
X322190D01*
Y615260D02*
Y624260D01*
X263670Y598570D02*
X280670D01*
Y589570D02*
Y598570D01*
X263670Y589570D02*
X280670D01*
X263670D02*
Y598570D01*
Y785550D02*
X280670D01*
Y776550D02*
Y785550D01*
X263670Y776550D02*
X280670D01*
X263670D02*
Y785550D01*
X305190Y691460D02*
X322190D01*
X305190D02*
Y700460D01*
X322190D01*
Y691460D02*
Y700460D01*
X305190Y729560D02*
X322190D01*
X305190D02*
Y738560D01*
X322190D01*
Y729560D02*
Y738560D01*
X486220Y688813D02*
Y704813D01*
X494220D01*
Y688813D02*
Y704813D01*
X486220Y688813D02*
X494220D01*
X1047560Y728183D02*
Y744183D01*
X1055560D01*
Y728183D02*
Y744183D01*
X1047560Y728183D02*
X1055560D01*
X1047560Y703200D02*
Y719200D01*
X1055560D01*
Y703200D02*
Y719200D01*
X1047560Y703200D02*
X1055560D01*
X972023Y551370D02*
X988023D01*
Y543370D02*
Y551370D01*
X972023Y543370D02*
X988023D01*
X972023D02*
Y551370D01*
X971170Y532320D02*
X987170D01*
Y524320D02*
Y532320D01*
X971170Y524320D02*
X987170D01*
X971170D02*
Y532320D01*
Y505270D02*
X987170D01*
X971170D02*
Y513270D01*
X987170D01*
Y505270D02*
Y513270D01*
M02*
