G04*
G04 #@! TF.GenerationSoftware,Altium Limited,Altium Designer,24.0.1 (36)*
G04*
G04 Layer_Physical_Order=3*
G04 Layer_Color=128*
%FSLAX44Y44*%
%MOMM*%
G71*
G04*
G04 #@! TF.SameCoordinates,043D453D-7082-4CC0-88CE-E1747F565096*
G04*
G04*
G04 #@! TF.FilePolarity,Negative*
G04*
G01*
G75*
%ADD10C,0.2540*%
%ADD154R,25.7810X7.2390*%
%ADD155C,3.6056*%
%ADD156C,1.2556*%
%ADD157C,1.3756*%
%ADD158C,1.1056*%
%ADD159C,1.4056*%
%ADD160C,1.0056*%
%ADD161C,0.5588*%
%ADD162C,3.0480*%
%ADD163C,1.9556*%
%ADD164O,2.0556X0.9556*%
%ADD165O,1.7556X0.9556*%
%ADD166C,0.5556*%
D10*
X316230Y668020D02*
X316620Y668410D01*
X349640D01*
X351790Y670560D01*
Y713740D01*
X356870Y718820D01*
X384741D01*
X388070Y715491D01*
Y655870D02*
Y715491D01*
Y655870D02*
X398780Y645160D01*
X497622D01*
X497840Y645378D01*
Y629920D02*
Y645378D01*
X493890Y625970D02*
X497840Y629920D01*
X321450Y625970D02*
X493890D01*
X316230Y631190D02*
X321450Y625970D01*
X316230Y631190D02*
Y668020D01*
X527940Y307340D02*
X937260D01*
X941070Y303530D01*
Y294640D02*
Y303530D01*
X937260Y290830D02*
X941070Y294640D01*
X529210Y290830D02*
X937260D01*
X527495Y292545D02*
X529210Y290830D01*
X527495Y292545D02*
Y306895D01*
D154*
X960755Y790575D02*
D03*
D155*
X145331Y744220D02*
D03*
Y629920D02*
D03*
D156*
X234231Y642620D02*
D03*
Y668020D02*
D03*
Y693420D02*
D03*
Y718820D02*
D03*
X208831Y731520D02*
D03*
Y706120D02*
D03*
Y680720D02*
D03*
Y655320D02*
D03*
D157*
X282531Y632420D02*
D03*
Y716320D02*
D03*
D158*
X638070Y220131D02*
D03*
D159*
X611200Y193261D02*
D03*
D160*
X1020060Y263850D02*
D03*
Y206050D02*
D03*
D161*
X473710Y783590D02*
D03*
X499110Y777240D02*
D03*
Y756920D02*
D03*
X535940D02*
D03*
Y777240D02*
D03*
X908050Y256540D02*
D03*
X694527Y365597D02*
D03*
X674451Y385673D02*
D03*
X762000Y304800D02*
D03*
X880110Y240043D02*
D03*
X869950Y252730D02*
D03*
X939800Y246380D02*
D03*
X916940Y247650D02*
D03*
X899160D02*
D03*
X753110Y506730D02*
D03*
X751840Y514350D02*
D03*
X741680Y508000D02*
D03*
X1028700Y419100D02*
D03*
Y381000D02*
D03*
Y304800D02*
D03*
Y266700D02*
D03*
Y228600D02*
D03*
Y152400D02*
D03*
X990600Y685800D02*
D03*
Y647700D02*
D03*
Y609600D02*
D03*
Y571500D02*
D03*
Y457200D02*
D03*
Y419100D02*
D03*
Y381000D02*
D03*
Y228600D02*
D03*
Y190500D02*
D03*
Y152400D02*
D03*
X952500Y647700D02*
D03*
Y609600D02*
D03*
Y571500D02*
D03*
Y533400D02*
D03*
Y419100D02*
D03*
Y190500D02*
D03*
Y152400D02*
D03*
X914400Y647700D02*
D03*
Y609600D02*
D03*
Y571500D02*
D03*
Y533400D02*
D03*
Y495300D02*
D03*
Y457200D02*
D03*
Y342900D02*
D03*
Y152400D02*
D03*
X876300Y533400D02*
D03*
Y495300D02*
D03*
Y457200D02*
D03*
Y152400D02*
D03*
X838200Y723900D02*
D03*
Y685800D02*
D03*
Y647700D02*
D03*
Y609600D02*
D03*
Y571500D02*
D03*
Y533400D02*
D03*
Y495300D02*
D03*
Y457200D02*
D03*
Y190500D02*
D03*
Y152400D02*
D03*
X800100Y457200D02*
D03*
Y228600D02*
D03*
Y152400D02*
D03*
X762000Y685800D02*
D03*
Y647700D02*
D03*
Y571500D02*
D03*
Y457200D02*
D03*
Y342900D02*
D03*
Y228600D02*
D03*
X723900Y685800D02*
D03*
Y647700D02*
D03*
Y304800D02*
D03*
Y228600D02*
D03*
X685800Y342900D02*
D03*
Y228600D02*
D03*
Y190500D02*
D03*
X647700Y647700D02*
D03*
X609600Y685800D02*
D03*
Y647700D02*
D03*
Y304800D02*
D03*
X571500Y685800D02*
D03*
Y647700D02*
D03*
Y533400D02*
D03*
Y495300D02*
D03*
Y304800D02*
D03*
Y266700D02*
D03*
X533400Y647700D02*
D03*
Y495300D02*
D03*
Y228600D02*
D03*
Y190500D02*
D03*
X495300Y723900D02*
D03*
Y533400D02*
D03*
Y152400D02*
D03*
X457200Y762000D02*
D03*
Y647700D02*
D03*
Y533400D02*
D03*
Y304800D02*
D03*
Y228600D02*
D03*
Y152400D02*
D03*
X419100Y723900D02*
D03*
Y609600D02*
D03*
Y304800D02*
D03*
Y266700D02*
D03*
Y190500D02*
D03*
Y152400D02*
D03*
X381000Y762000D02*
D03*
Y609600D02*
D03*
Y304800D02*
D03*
Y266700D02*
D03*
Y190500D02*
D03*
Y152400D02*
D03*
X342900Y762000D02*
D03*
Y723900D02*
D03*
Y609600D02*
D03*
Y495300D02*
D03*
Y342900D02*
D03*
Y304800D02*
D03*
Y266700D02*
D03*
Y190500D02*
D03*
Y152400D02*
D03*
X304800Y609600D02*
D03*
Y457200D02*
D03*
Y381000D02*
D03*
Y342900D02*
D03*
Y304800D02*
D03*
Y266700D02*
D03*
Y190500D02*
D03*
Y152400D02*
D03*
X266700Y723900D02*
D03*
Y685800D02*
D03*
Y342900D02*
D03*
Y304800D02*
D03*
Y190500D02*
D03*
Y152400D02*
D03*
X228600Y609600D02*
D03*
Y533400D02*
D03*
Y495300D02*
D03*
Y457200D02*
D03*
Y381000D02*
D03*
Y342900D02*
D03*
Y266700D02*
D03*
Y228600D02*
D03*
Y190500D02*
D03*
Y152400D02*
D03*
X190500Y647700D02*
D03*
Y571500D02*
D03*
Y495300D02*
D03*
Y419100D02*
D03*
Y381000D02*
D03*
Y342900D02*
D03*
Y304800D02*
D03*
Y266700D02*
D03*
Y190500D02*
D03*
Y152400D02*
D03*
X152400Y723900D02*
D03*
Y685800D02*
D03*
Y419100D02*
D03*
Y342900D02*
D03*
Y304800D02*
D03*
Y266700D02*
D03*
Y228600D02*
D03*
Y190500D02*
D03*
Y152400D02*
D03*
X114300Y762000D02*
D03*
Y723900D02*
D03*
Y685800D02*
D03*
Y647700D02*
D03*
Y609600D02*
D03*
Y495300D02*
D03*
Y457200D02*
D03*
Y419100D02*
D03*
Y381000D02*
D03*
Y342900D02*
D03*
Y304800D02*
D03*
Y266700D02*
D03*
Y228600D02*
D03*
Y190500D02*
D03*
Y152400D02*
D03*
X435610Y411480D02*
D03*
Y405130D02*
D03*
X728980Y361950D02*
D03*
X726440Y369570D02*
D03*
X981710Y374650D02*
D03*
X834390Y358140D02*
D03*
X830580Y368300D02*
D03*
X928370Y255270D02*
D03*
X938530Y256540D02*
D03*
X603250Y208280D02*
D03*
X588010Y205740D02*
D03*
X572770Y210820D02*
D03*
X179832Y457200D02*
D03*
Y411480D02*
D03*
X279400Y356870D02*
D03*
X261620Y373380D02*
D03*
X281940Y391160D02*
D03*
X311150Y365760D02*
D03*
X383540Y369570D02*
D03*
X377190Y375920D02*
D03*
X349250Y364490D02*
D03*
X341630Y373380D02*
D03*
X1051560Y209550D02*
D03*
Y219710D02*
D03*
Y229870D02*
D03*
Y240030D02*
D03*
Y250190D02*
D03*
Y259080D02*
D03*
X1040130Y209550D02*
D03*
Y218440D02*
D03*
Y228600D02*
D03*
Y240030D02*
D03*
Y250190D02*
D03*
Y259080D02*
D03*
X299690Y657860D02*
D03*
X363220Y725170D02*
D03*
X632560Y446512D02*
D03*
X363220Y717550D02*
D03*
X899160Y571500D02*
D03*
X901700Y566420D02*
D03*
X895350D02*
D03*
X868680Y274320D02*
D03*
X802640D02*
D03*
Y262890D02*
D03*
X715010Y275590D02*
D03*
X715109Y269860D02*
D03*
X502695Y300355D02*
D03*
X497195D02*
D03*
X991870Y279400D02*
D03*
X416560Y640080D02*
D03*
X388620Y750570D02*
D03*
X571500Y427990D02*
D03*
X560070Y428772D02*
D03*
X561340Y421935D02*
D03*
X462280Y382270D02*
D03*
Y402590D02*
D03*
X587948Y410789D02*
D03*
X582930Y401574D02*
D03*
X457200Y397510D02*
D03*
X462280Y392430D02*
D03*
X455930Y387350D02*
D03*
X458470Y377190D02*
D03*
X449580Y447040D02*
D03*
X572599Y448437D02*
D03*
X588585Y436691D02*
D03*
X553720Y453228D02*
D03*
X554208Y464038D02*
D03*
X383540Y449580D02*
D03*
X365760Y439420D02*
D03*
X381000Y431800D02*
D03*
X647700Y337693D02*
D03*
X464820Y464820D02*
D03*
X416560Y471170D02*
D03*
X445770Y508000D02*
D03*
X427990Y518160D02*
D03*
Y503047D02*
D03*
X382270Y499110D02*
D03*
X412750Y366589D02*
D03*
X427990Y368300D02*
D03*
X388620Y381000D02*
D03*
X396240Y379730D02*
D03*
X419100D02*
D03*
X360680Y367030D02*
D03*
Y374650D02*
D03*
X405130Y378460D02*
D03*
X574040Y474980D02*
D03*
X546100Y488950D02*
D03*
X307340Y403860D02*
D03*
X332740D02*
D03*
X321310Y396240D02*
D03*
X342900Y351790D02*
D03*
X412750Y400177D02*
D03*
X396240D02*
D03*
X636270Y370840D02*
D03*
X629920Y373380D02*
D03*
X643890Y363220D02*
D03*
X464820Y662940D02*
D03*
X283210Y236220D02*
D03*
X262890Y476250D02*
D03*
X508000Y572770D02*
D03*
X589280Y509270D02*
D03*
X609600Y508000D02*
D03*
X603250Y510540D02*
D03*
X595630Y480060D02*
D03*
Y509270D02*
D03*
X619887Y506730D02*
D03*
X627761Y505460D02*
D03*
X759460Y199390D02*
D03*
X957453Y468630D02*
D03*
X871220Y179070D02*
D03*
X906780Y443230D02*
D03*
X751596Y362976D02*
D03*
X865996Y209550D02*
D03*
X755650Y441960D02*
D03*
X749300Y436880D02*
D03*
X784860Y473710D02*
D03*
X792480Y491490D02*
D03*
X742950Y378460D02*
D03*
X746760Y459740D02*
D03*
X754380Y466090D02*
D03*
X737870Y430530D02*
D03*
X739140Y447040D02*
D03*
X796290Y219710D02*
D03*
X939800Y411480D02*
D03*
X929640Y388366D02*
D03*
X896620Y430530D02*
D03*
X708660Y422783D02*
D03*
X704850Y417830D02*
D03*
X725170Y408940D02*
D03*
X716280Y407670D02*
D03*
X703580Y379730D02*
D03*
X697230Y386080D02*
D03*
X692150Y312420D02*
D03*
X704977Y447282D02*
D03*
X698500Y453390D02*
D03*
X655890Y468440D02*
D03*
X663890D02*
D03*
X671890Y477354D02*
D03*
X663361Y476440D02*
D03*
X679955Y468216D02*
D03*
X679450Y452120D02*
D03*
X679481Y444500D02*
D03*
X730123Y441978D02*
D03*
X730250Y478917D02*
D03*
X736600Y474980D02*
D03*
X726440Y459740D02*
D03*
X722630Y480060D02*
D03*
X713740Y469900D02*
D03*
X709930Y464820D02*
D03*
X797560Y357505D02*
D03*
X805180Y358140D02*
D03*
X664083Y355473D02*
D03*
X656590Y643890D02*
D03*
X855980Y702310D02*
D03*
X1017270Y723900D02*
D03*
Y742950D02*
D03*
X664210Y387350D02*
D03*
Y381000D02*
D03*
X663890Y404440D02*
D03*
X678180Y379730D02*
D03*
X651510Y356870D02*
D03*
X656590Y363220D02*
D03*
X674370Y370840D02*
D03*
X668020Y365760D02*
D03*
X659482Y370840D02*
D03*
X542163Y509270D02*
D03*
X532945Y519557D02*
D03*
X651953Y490220D02*
D03*
X660527Y496570D02*
D03*
X652473Y505640D02*
D03*
X699770Y424180D02*
D03*
X934720Y383540D02*
D03*
X788670Y375793D02*
D03*
X781050Y374650D02*
D03*
X406400Y351917D02*
D03*
X631063Y381000D02*
D03*
X302260Y553720D02*
D03*
X377190Y505460D02*
D03*
X340360Y575310D02*
D03*
X356870Y575800D02*
D03*
X349151D02*
D03*
X257810Y471170D02*
D03*
X251460Y464820D02*
D03*
X269240Y430530D02*
D03*
X524510Y518160D02*
D03*
X332360Y514730D02*
D03*
X363220Y514477D02*
D03*
X340360Y515620D02*
D03*
X372110Y514350D02*
D03*
Y427990D02*
D03*
X392430Y429260D02*
D03*
X316230Y515620D02*
D03*
X262890Y226060D02*
D03*
X271780Y228600D02*
D03*
X264160Y262890D02*
D03*
X262890Y241300D02*
D03*
X266700Y255270D02*
D03*
X615965Y412515D02*
D03*
X615890Y420497D02*
D03*
Y404440D02*
D03*
X412750Y676910D02*
D03*
X559943Y588010D02*
D03*
X566420Y599440D02*
D03*
X552143Y609420D02*
D03*
X543560Y609600D02*
D03*
X438150Y707390D02*
D03*
X469900Y651510D02*
D03*
X440690Y693420D02*
D03*
X444500Y708660D02*
D03*
X486721Y670355D02*
D03*
X486410Y662940D02*
D03*
X474980Y661670D02*
D03*
X507718Y665480D02*
D03*
X402590Y689610D02*
D03*
X397459Y712451D02*
D03*
X449580Y718820D02*
D03*
X474980Y668020D02*
D03*
X434340Y722630D02*
D03*
X445770Y727710D02*
D03*
X419100Y670560D02*
D03*
X293370Y543560D02*
D03*
X601980Y165100D02*
D03*
X640363Y414092D02*
D03*
X638976Y404440D02*
D03*
X623890D02*
D03*
X639890Y396440D02*
D03*
X671890Y460440D02*
D03*
X447040Y231140D02*
D03*
X467360Y236220D02*
D03*
X482600Y199390D02*
D03*
X708660Y560070D02*
D03*
X736600Y533400D02*
D03*
X330200Y715010D02*
D03*
X652780Y525765D02*
D03*
Y512812D02*
D03*
X640080Y582442D02*
D03*
X643890Y612140D02*
D03*
X941070Y701040D02*
D03*
X947420D02*
D03*
X953770D02*
D03*
X934720D02*
D03*
X920750D02*
D03*
X714691Y567690D02*
D03*
X643890Y576580D02*
D03*
X615890Y468440D02*
D03*
X623443Y487680D02*
D03*
X623814Y500624D02*
D03*
X623443Y476440D02*
D03*
X596900Y556133D02*
D03*
X622300Y577850D02*
D03*
X489173Y330073D02*
D03*
X283210Y542290D02*
D03*
X289560Y593090D02*
D03*
X663890Y412440D02*
D03*
X679450Y412375D02*
D03*
X679315Y420624D02*
D03*
X885190Y198120D02*
D03*
X858520Y274320D02*
D03*
X863600D02*
D03*
X873760Y325120D02*
D03*
Y320040D02*
D03*
X595630Y444373D02*
D03*
X615890D02*
D03*
X623890Y444440D02*
D03*
X615890Y452440D02*
D03*
X623890D02*
D03*
X671890D02*
D03*
X663890D02*
D03*
X436880Y519303D02*
D03*
X307340Y515620D02*
D03*
X260350Y430530D02*
D03*
X323850Y515620D02*
D03*
X389890Y599440D02*
D03*
X379730Y598170D02*
D03*
X671890Y404440D02*
D03*
X663890Y428440D02*
D03*
X631890D02*
D03*
X365760Y449580D02*
D03*
Y444500D02*
D03*
X347980Y429260D02*
D03*
X300990Y433070D02*
D03*
X574040Y483870D02*
D03*
X681990Y288290D02*
D03*
X688340Y283210D02*
D03*
X469900Y594360D02*
D03*
X226060Y248920D02*
D03*
X420370Y403860D02*
D03*
X996950Y264160D02*
D03*
Y269240D02*
D03*
Y274320D02*
D03*
X991870Y264160D02*
D03*
X997080Y258950D02*
D03*
X991870Y269285D02*
D03*
Y274410D02*
D03*
X951103Y452120D02*
D03*
X1049020Y435610D02*
D03*
X1033780D02*
D03*
X1041400D02*
D03*
X1056640D02*
D03*
X960120Y488950D02*
D03*
X932180Y408940D02*
D03*
X1010920Y478790D02*
D03*
X1059180Y535940D02*
D03*
X1050290Y543560D02*
D03*
X1002030Y534670D02*
D03*
X925830Y375920D02*
D03*
X778034Y516890D02*
D03*
X685800Y546100D02*
D03*
X576580Y726440D02*
D03*
X679450Y509270D02*
D03*
X744617Y542290D02*
D03*
X639890Y468440D02*
D03*
X113030Y403860D02*
D03*
X159540Y398780D02*
D03*
X99060D02*
D03*
Y462280D02*
D03*
X99540Y525780D02*
D03*
X127000Y565150D02*
D03*
X623890Y468440D02*
D03*
Y460440D02*
D03*
X497840Y623570D02*
D03*
X623570Y420370D02*
D03*
X623890Y412440D02*
D03*
X615890Y428440D02*
D03*
X631890Y412440D02*
D03*
Y420440D02*
D03*
X410210Y604520D02*
D03*
X427990Y402590D02*
D03*
X403860Y403860D02*
D03*
X663890Y460440D02*
D03*
X323915Y403925D02*
D03*
X388620Y403860D02*
D03*
X531495Y328295D02*
D03*
X514985Y319405D02*
D03*
X469265Y310515D02*
D03*
X535305Y264795D02*
D03*
X517525Y274955D02*
D03*
X527685Y264795D02*
D03*
X517525Y268605D02*
D03*
X522605Y274955D02*
D03*
Y268605D02*
D03*
X504825Y266065D02*
D03*
X511175D02*
D03*
X347980Y405130D02*
D03*
X623890Y428440D02*
D03*
X622300Y599440D02*
D03*
X605790Y577850D02*
D03*
X622300Y588010D02*
D03*
X605790D02*
D03*
Y599440D02*
D03*
Y609600D02*
D03*
X622300D02*
D03*
X601980Y716280D02*
D03*
X576580Y715010D02*
D03*
Y737870D02*
D03*
X601980Y736600D02*
D03*
Y726440D02*
D03*
X1009650Y468630D02*
D03*
X1000760Y523240D02*
D03*
X847090Y567690D02*
D03*
X900430Y561340D02*
D03*
X887730D02*
D03*
X894080D02*
D03*
X852170Y567690D02*
D03*
X680720Y269240D02*
D03*
X688340Y270510D02*
D03*
X675640Y278130D02*
D03*
X721360Y208280D02*
D03*
X758190Y262890D02*
D03*
X807720Y267970D02*
D03*
X523240Y199390D02*
D03*
X958850Y265430D02*
D03*
X899160Y163830D02*
D03*
X890270D02*
D03*
X915670Y161290D02*
D03*
X924560Y209550D02*
D03*
X892810Y198120D02*
D03*
X788670Y158750D02*
D03*
X770890D02*
D03*
X830580D02*
D03*
X777240Y200660D02*
D03*
X664210Y226060D02*
D03*
X627380Y233680D02*
D03*
X605790Y224790D02*
D03*
X642620Y189230D02*
D03*
X734060Y175260D02*
D03*
X784860Y266700D02*
D03*
X772160Y287020D02*
D03*
X777240Y266700D02*
D03*
X784860Y274320D02*
D03*
X777240D02*
D03*
X458470Y599440D02*
D03*
X439420D02*
D03*
X421640D02*
D03*
X411480D02*
D03*
X400050D02*
D03*
X463550Y610870D02*
D03*
X450850Y601980D02*
D03*
X430530Y599440D02*
D03*
X369570D02*
D03*
X350520Y609600D02*
D03*
X402590Y666750D02*
D03*
X289560Y781050D02*
D03*
X452120Y193040D02*
D03*
X467360Y161290D02*
D03*
X447040Y167640D02*
D03*
Y193040D02*
D03*
X467360Y195580D02*
D03*
X482600Y191770D02*
D03*
X173990Y270510D02*
D03*
X194310Y298450D02*
D03*
X227330Y281940D02*
D03*
Y276860D02*
D03*
X242570Y303530D02*
D03*
X250190D02*
D03*
X262890Y298450D02*
D03*
X256540Y303530D02*
D03*
X725170Y251460D02*
D03*
X298450Y638810D02*
D03*
X297180Y619760D02*
D03*
X262890Y773430D02*
D03*
X219710Y781050D02*
D03*
X758190Y275590D02*
D03*
Y269240D02*
D03*
X1027430Y549910D02*
D03*
X847090Y367030D02*
D03*
Y360680D02*
D03*
X849630Y635000D02*
D03*
X1036320Y593090D02*
D03*
X1043940D02*
D03*
Y600710D02*
D03*
Y607060D02*
D03*
X920750Y669290D02*
D03*
X928370D02*
D03*
X934720D02*
D03*
X941070D02*
D03*
X947420D02*
D03*
X953770D02*
D03*
X920750Y675640D02*
D03*
X928370D02*
D03*
X934720D02*
D03*
X941070D02*
D03*
X947420D02*
D03*
X953770D02*
D03*
X920750Y681990D02*
D03*
X928370D02*
D03*
X934720D02*
D03*
X941070D02*
D03*
X947420D02*
D03*
X953770D02*
D03*
X920750Y688340D02*
D03*
X928370D02*
D03*
X934720D02*
D03*
X941070D02*
D03*
X947420D02*
D03*
X953770D02*
D03*
X920750Y694690D02*
D03*
X928370D02*
D03*
X934720D02*
D03*
X941070D02*
D03*
X947420D02*
D03*
X953770D02*
D03*
X928370Y701040D02*
D03*
X474980Y688340D02*
D03*
X533400Y726440D02*
D03*
X510540Y675640D02*
D03*
X528320Y698500D02*
D03*
X159540Y462280D02*
D03*
Y525780D02*
D03*
X961390Y209550D02*
D03*
X943610Y317500D02*
D03*
Y323850D02*
D03*
X933450Y273050D02*
D03*
X922020Y265430D02*
D03*
X928370D02*
D03*
X1046680Y349250D02*
D03*
Y361950D02*
D03*
Y374650D02*
D03*
Y387350D02*
D03*
Y400050D02*
D03*
X1008680Y336550D02*
D03*
Y349250D02*
D03*
Y361950D02*
D03*
Y387350D02*
D03*
Y400050D02*
D03*
X887730Y346710D02*
D03*
X937260Y337820D02*
D03*
Y342900D02*
D03*
X876300Y353060D02*
D03*
Y361950D02*
D03*
X937260Y317500D02*
D03*
Y323850D02*
D03*
X805180Y727710D02*
D03*
X779780D02*
D03*
X754380D02*
D03*
X607890Y476440D02*
D03*
X615890Y460440D02*
D03*
X631890D02*
D03*
X639890D02*
D03*
X663890Y444440D02*
D03*
D162*
X1046795Y128306D02*
G03*
X1076924Y158435I-1585J31714D01*
G01*
X1076964Y793750D02*
G03*
X1045210Y825504I-31754J0D01*
G01*
X105410D02*
G03*
X73656Y793750I0J-31754D01*
G01*
X73696Y158435D02*
G03*
X103825Y128306I31714J1585D01*
G01*
X1046480Y128266D01*
X1046795Y128306D01*
X1076924Y158435D02*
X1076964Y158750D01*
Y793750D01*
X105410Y825504D02*
X1045210D01*
X73656Y158750D02*
Y793750D01*
Y158750D02*
X73696Y158435D01*
D163*
X175831Y766070D02*
D03*
Y608070D02*
D03*
D164*
X1015060Y278150D02*
D03*
Y191750D02*
D03*
D165*
X1056860Y278150D02*
D03*
Y191750D02*
D03*
D166*
X902850Y327580D02*
D03*
Y317580D02*
D03*
X887850D02*
D03*
Y327580D02*
D03*
X895350Y322580D02*
D03*
M02*
