G04*
G04 #@! TF.GenerationSoftware,Altium Limited,Altium Designer,24.0.1 (36)*
G04*
G04 Layer_Color=8388736*
%FSLAX44Y44*%
%MOMM*%
G71*
G04*
G04 #@! TF.SameCoordinates,043D453D-7082-4CC0-88CE-E1747F565096*
G04*
G04*
G04 #@! TF.FilePolarity,Positive*
G04*
G01*
G75*
%ADD14C,0.2000*%
%ADD174C,0.0500*%
D14*
X968109Y474130D02*
X990231D01*
Y463130D02*
Y474130D01*
X968109Y463130D02*
X990231D01*
X968109D02*
Y474130D01*
Y455080D02*
X990231D01*
Y444080D02*
Y455080D01*
X968109Y444080D02*
X990231D01*
X968109D02*
Y455080D01*
X735630Y181890D02*
Y202890D01*
X717630Y181890D02*
X735630D01*
X717630D02*
Y202890D01*
X735630D01*
X479650Y165890D02*
X523650D01*
X479650D02*
Y232890D01*
X523650D01*
Y165890D02*
Y232890D01*
X872270Y166115D02*
Y197115D01*
Y166115D02*
X903270D01*
Y197115D01*
X872270D02*
X903270D01*
X759704Y283130D02*
X801825D01*
Y258130D02*
Y283130D01*
X759704Y258130D02*
X801825D01*
X759704D02*
Y283130D01*
X758350Y563130D02*
X778350D01*
X758350Y526130D02*
Y563130D01*
Y526130D02*
X778350D01*
Y563130D01*
X503540Y677390D02*
Y715390D01*
X534540D01*
Y677390D02*
Y715390D01*
X503540Y677390D02*
X534540D01*
X706729Y177701D02*
X744851D01*
Y157579D02*
Y177701D01*
X706729Y157579D02*
X744851D01*
X706729D02*
Y177701D01*
X761339Y157579D02*
X799461D01*
X761339D02*
Y177701D01*
X799461D01*
Y157579D02*
Y177701D01*
X801979Y157579D02*
X840101D01*
X801979D02*
Y177701D01*
X840101D01*
Y157579D02*
Y177701D01*
X681329Y312321D02*
X719451D01*
Y292199D02*
Y312321D01*
X681329Y292199D02*
X719451D01*
X681329D02*
Y312321D01*
X715109Y250799D02*
Y288921D01*
X735231D01*
Y250799D02*
Y288921D01*
X715109Y250799D02*
X735231D01*
X525995Y325306D02*
X536995D01*
X525995Y303184D02*
Y325306D01*
Y303184D02*
X536995D01*
Y325306D01*
X867779Y215050D02*
X889901D01*
Y204050D02*
Y215050D01*
X867779Y204050D02*
X889901D01*
X867779D02*
Y215050D01*
X905609Y159389D02*
Y197511D01*
X925731D01*
Y159389D02*
Y197511D01*
X905609Y159389D02*
X925731D01*
X521434Y262864D02*
X541556D01*
Y300986D01*
X521434D02*
X541556D01*
X521434Y262864D02*
Y300986D01*
X887719Y219611D02*
X925841D01*
Y199489D02*
Y219611D01*
X887719Y199489D02*
X925841D01*
X887719D02*
Y219611D01*
X470765Y321225D02*
Y332825D01*
Y321225D02*
X493348D01*
Y332825D01*
X470765D02*
X493348D01*
X463765Y285484D02*
X474765D01*
Y307606D01*
X463765D02*
X474765D01*
X463765Y285484D02*
Y307606D01*
X480684Y262354D02*
Y282476D01*
Y262354D02*
X518806D01*
Y282476D01*
X480684D02*
X518806D01*
X734189Y563328D02*
Y572052D01*
X716464D02*
X734189D01*
X716464Y563328D02*
Y572052D01*
Y563328D02*
X734189D01*
X681438Y525808D02*
X690162D01*
Y543532D01*
X681438D02*
X690162D01*
X681438Y525808D02*
Y543532D01*
X776737Y512528D02*
Y521252D01*
X759012D02*
X776737D01*
X759012Y512528D02*
Y521252D01*
Y512528D02*
X776737D01*
X740255Y544858D02*
X748980D01*
Y562582D01*
X740255D02*
X748980D01*
X740255Y544858D02*
Y562582D01*
X931330Y268419D02*
Y290541D01*
X920330Y268419D02*
X931330D01*
X920330D02*
Y290541D01*
X931330D01*
X918309Y292709D02*
Y330831D01*
X938431D01*
Y292709D02*
Y330831D01*
X918309Y292709D02*
X938431D01*
X849790Y277150D02*
Y319150D01*
X869790D01*
Y277150D02*
Y319150D01*
X849790Y277150D02*
X869790D01*
Y329820D02*
Y371820D01*
X849790Y329820D02*
X869790D01*
X849790D02*
Y371820D01*
X869790D01*
X874369Y346809D02*
X912491D01*
X874369D02*
Y366931D01*
X912491D01*
Y346809D02*
Y366931D01*
X467969Y584299D02*
Y604421D01*
Y584299D02*
X506091D01*
Y604421D01*
X467969D02*
X506091D01*
X510960Y606159D02*
Y628281D01*
X499960Y606159D02*
X510960D01*
X499960D02*
Y628281D01*
X510960D01*
X475400Y606239D02*
Y628361D01*
X464400Y606239D02*
X475400D01*
X464400D02*
Y628361D01*
X475400D01*
X300190Y669410D02*
X327190D01*
X300190D02*
Y684410D01*
X327190D01*
Y669410D02*
Y684410D01*
X220820Y772800D02*
X249320D01*
X220820D02*
Y789300D01*
X249320D01*
Y772800D02*
Y789300D01*
X300070Y745610D02*
X327070D01*
X300070D02*
Y760610D01*
X327070D01*
Y745610D02*
Y760610D01*
X508695Y731940D02*
X530816D01*
Y720940D02*
Y731940D01*
X508695Y720940D02*
X530816D01*
X508695D02*
Y731940D01*
X300190Y722510D02*
X327190D01*
Y707510D02*
Y722510D01*
X300190Y707510D02*
X327190D01*
X300190D02*
Y722510D01*
X509639Y659980D02*
X531761D01*
X509639D02*
Y670980D01*
X531761D01*
Y659980D02*
Y670980D01*
X379631Y597509D02*
Y635631D01*
X359509Y597509D02*
X379631D01*
X359509D02*
Y635631D01*
X379631D01*
X440591Y597509D02*
Y635631D01*
X420469Y597509D02*
X440591D01*
X420469D02*
Y635631D01*
X440591D01*
X399951Y597509D02*
Y635631D01*
X379829Y597509D02*
X399951D01*
X379829D02*
Y635631D01*
X399951D01*
X416210Y605220D02*
Y629220D01*
X404210Y605220D02*
X416210D01*
X404210D02*
Y629220D01*
X416210D01*
X458350Y603720D02*
Y630720D01*
X443350Y603720D02*
X458350D01*
X443350D02*
Y630720D01*
X458350D01*
X844130Y610049D02*
Y632171D01*
X855130D01*
Y610049D02*
Y632171D01*
X844130Y610049D02*
X855130D01*
X862319Y579021D02*
X900441D01*
Y558899D02*
Y579021D01*
X862319Y558899D02*
X900441D01*
X862319D02*
Y579021D01*
X960109Y478889D02*
X998231D01*
X960109D02*
Y499011D01*
X998231D01*
Y478889D02*
Y499011D01*
X761989Y285849D02*
X800111D01*
X761989D02*
Y305971D01*
X800111D01*
Y285849D02*
Y305971D01*
X608081Y537369D02*
Y557490D01*
X569960D02*
X608081D01*
X569960Y537369D02*
Y557490D01*
Y537369D02*
X608081D01*
X329029Y539739D02*
X349151D01*
Y577861D01*
X329029D02*
X349151D01*
X329029Y539739D02*
Y577861D01*
X481930Y606220D02*
Y628220D01*
X493430D01*
Y606220D02*
Y628220D01*
X481930Y606220D02*
X493430D01*
X1002560Y185300D02*
X1084610D01*
Y284600D01*
X1002560D02*
X1084610D01*
X1002560Y185300D02*
Y284600D01*
X560980Y792780D02*
X820780D01*
Y709580D02*
Y792780D01*
X560980Y709580D02*
X820780D01*
X560980D02*
Y792780D01*
X761580Y181979D02*
Y204101D01*
X772580D01*
Y181979D02*
Y204101D01*
X761580Y181979D02*
X772580D01*
X820000Y191286D02*
Y213408D01*
X831000D01*
Y191286D02*
Y213408D01*
X820000Y191286D02*
X831000D01*
X690832Y251040D02*
X712954D01*
X690832D02*
Y262040D01*
X712954D01*
Y251040D02*
Y262040D01*
X518426Y321525D02*
Y332525D01*
X496304D02*
X518426D01*
X496304Y321525D02*
Y332525D01*
Y321525D02*
X518426D01*
X864020Y178169D02*
Y200291D01*
X853020Y178169D02*
X864020D01*
X853020D02*
Y200291D01*
X864020D01*
X935370Y334520D02*
Y366520D01*
X921370Y334520D02*
X935370D01*
X921370D02*
Y366520D01*
X935370D01*
X300080Y644310D02*
X328080D01*
Y633310D02*
Y644310D01*
X300080Y633310D02*
X328080D01*
X300080D02*
Y644310D01*
X299690Y663360D02*
X327690D01*
Y652360D02*
Y663360D01*
X299690Y652360D02*
X327690D01*
X299690D02*
Y663360D01*
X392010Y757380D02*
Y785380D01*
X403010D01*
Y757380D02*
Y785380D01*
X392010Y757380D02*
X403010D01*
X405980Y757770D02*
Y785770D01*
X416980D01*
Y757770D02*
Y785770D01*
X405980Y757770D02*
X416980D01*
X419950D02*
Y785770D01*
X430950D01*
Y757770D02*
Y785770D01*
X419950Y757770D02*
X430950D01*
X299690Y614260D02*
X327690D01*
X299690D02*
Y625260D01*
X327690D01*
Y614260D02*
Y625260D01*
X258170Y599570D02*
X286170D01*
Y588570D02*
Y599570D01*
X258170Y588570D02*
X286170D01*
X258170D02*
Y599570D01*
Y786550D02*
X286170D01*
Y775550D02*
Y786550D01*
X258170Y775550D02*
X286170D01*
X258170D02*
Y786550D01*
X299690Y690460D02*
X327690D01*
X299690D02*
Y701460D01*
X327690D01*
Y690460D02*
Y701460D01*
X299690Y728560D02*
X327690D01*
X299690D02*
Y739560D01*
X327690D01*
Y728560D02*
Y739560D01*
X484720Y685752D02*
Y707874D01*
X495720D01*
Y685752D02*
Y707874D01*
X484720Y685752D02*
X495720D01*
X1046060Y725122D02*
Y747244D01*
X1057060D01*
Y725122D02*
Y747244D01*
X1046060Y725122D02*
X1057060D01*
X1046060Y700139D02*
Y722261D01*
X1057060D01*
Y700139D02*
Y722261D01*
X1046060Y700139D02*
X1057060D01*
X968962Y552870D02*
X991084D01*
Y541870D02*
Y552870D01*
X968962Y541870D02*
X991084D01*
X968962D02*
Y552870D01*
X968109Y533820D02*
X990231D01*
Y522820D02*
Y533820D01*
X968109Y522820D02*
X990231D01*
X968109D02*
Y533820D01*
Y503770D02*
X990231D01*
X968109D02*
Y514770D01*
X990231D01*
Y503770D02*
Y514770D01*
D174*
X35330Y594070D02*
Y780070D01*
X292330D01*
Y594070D02*
Y780070D01*
X35330Y594070D02*
X292330D01*
X137240Y565150D02*
X147240D01*
X142240Y560150D02*
Y570150D01*
X128240Y559150D02*
X156240D01*
X128240D02*
Y571150D01*
X156240D01*
Y559150D02*
Y571150D01*
X903430Y376300D02*
X913430D01*
X908430Y371300D02*
Y381300D01*
X894430Y370300D02*
X922430D01*
X894430D02*
Y382300D01*
X922430D01*
Y370300D02*
Y382300D01*
X1042750Y565150D02*
X1052750D01*
X1047750Y560150D02*
Y570150D01*
X1033750Y559150D02*
X1061750D01*
X1033750D02*
Y571150D01*
X1061750D01*
Y559150D02*
Y571150D01*
M02*
