G04*
G04 #@! TF.GenerationSoftware,Altium Limited,Altium Designer,24.0.1 (36)*
G04*
G04 Layer_Color=32768*
%FSLAX44Y44*%
%MOMM*%
G71*
G04*
G04 #@! TF.SameCoordinates,043D453D-7082-4CC0-88CE-E1747F565096*
G04*
G04*
G04 #@! TF.FilePolarity,Positive*
G04*
G01*
G75*
%ADD14C,0.2000*%
%ADD18C,0.1270*%
D14*
X212940Y256510D02*
Y284510D01*
Y256510D02*
X223940D01*
Y284510D01*
X212940D02*
X223940D01*
X180292Y230720D02*
X202414D01*
Y241720D01*
X180292D02*
X202414D01*
X180292Y230720D02*
Y241720D01*
X212940Y231092D02*
Y253214D01*
Y231092D02*
X223940D01*
Y253214D01*
X212940D02*
X223940D01*
X721808Y432518D02*
Y441242D01*
X704083Y432518D02*
X721808D01*
X704083D02*
Y441242D01*
X721808D01*
X452540Y169279D02*
Y191401D01*
X441540D02*
X452540D01*
X441540Y169279D02*
Y191401D01*
Y169279D02*
X452540D01*
X477421Y160009D02*
Y198131D01*
X457299D02*
X477421D01*
X457299Y160009D02*
Y198131D01*
Y160009D02*
X477421D01*
X452540Y207379D02*
Y229501D01*
X441540D02*
X452540D01*
X441540Y207379D02*
Y229501D01*
Y207379D02*
X452540D01*
X477421Y200029D02*
Y238151D01*
X457299D02*
X477421D01*
X457299Y200029D02*
Y238151D01*
Y200029D02*
X477421D01*
X613201Y208894D02*
X632293Y227986D01*
X621686Y238593D02*
X632293Y227986D01*
X602594Y219501D02*
X621686Y238593D01*
X602594Y219501D02*
X613201Y208894D01*
X110479Y393799D02*
X148601D01*
Y413921D01*
X110479D02*
X148601D01*
X110479Y393799D02*
Y413921D01*
X647760Y422100D02*
X655260D01*
Y408100D02*
Y422100D01*
X647760Y408100D02*
X655260D01*
X647760D02*
Y422100D01*
X645220Y408320D02*
X652720D01*
Y394320D02*
Y408320D01*
X645220Y394320D02*
X652720D01*
X645220D02*
Y408320D01*
X585530Y493380D02*
X593030D01*
X585530D02*
Y507380D01*
X593030D01*
Y493380D02*
Y507380D01*
X628710Y408130D02*
X636210D01*
Y394130D02*
Y408130D01*
X628710Y394130D02*
X636210D01*
X628710D02*
Y408130D01*
X603310Y492300D02*
X610810D01*
X603310D02*
Y506300D01*
X610810D01*
Y492300D02*
Y506300D01*
X654890Y457260D02*
Y464760D01*
X640890Y457260D02*
X654890D01*
X640890D02*
Y464760D01*
X654890D01*
X668080Y462900D02*
X675580D01*
X668080D02*
Y476900D01*
X675580D01*
Y462900D02*
Y476900D01*
X654890Y445830D02*
Y453330D01*
X640890Y445830D02*
X654890D01*
X640890D02*
Y453330D01*
X654890D01*
X640730Y433130D02*
Y440630D01*
X626730Y433130D02*
X640730D01*
X626730D02*
Y440630D01*
X640730D01*
X648130Y422970D02*
Y430470D01*
X662130D01*
Y422970D02*
Y430470D01*
X648130Y422970D02*
X662130D01*
X640920Y443290D02*
Y450790D01*
X626920Y443290D02*
X640920D01*
X626920D02*
Y450790D01*
X640920D01*
X651940Y435670D02*
Y443170D01*
X665940D01*
Y435670D02*
Y443170D01*
X651940Y435670D02*
X665940D01*
X683200Y493570D02*
Y507570D01*
X675700D02*
X683200D01*
X675700Y493570D02*
Y507570D01*
Y493570D02*
X683200D01*
X635060Y427370D02*
X642560D01*
Y413370D02*
Y427370D01*
X635060Y413370D02*
X642560D01*
X635060D02*
Y427370D01*
X575510Y479370D02*
Y488370D01*
X591260D01*
Y479370D02*
Y488370D01*
X575510Y479370D02*
X591260D01*
X366369Y678279D02*
Y698401D01*
X404491D01*
Y678279D02*
Y698401D01*
X366369Y678279D02*
X404491D01*
X366399Y655419D02*
Y675541D01*
X404521D01*
Y655419D02*
Y675541D01*
X366399Y655419D02*
X404521D01*
X366369Y699869D02*
Y719991D01*
X404491D01*
Y699869D02*
Y719991D01*
X366369Y699869D02*
X404491D01*
X192379Y308511D02*
X230501D01*
X192379Y288389D02*
Y308511D01*
Y288389D02*
X230501D01*
Y308511D01*
X329539Y431899D02*
Y452021D01*
X367661D01*
Y431899D02*
Y452021D01*
X329539Y431899D02*
X367661D01*
X176670Y245620D02*
X206870D01*
Y277620D01*
X176670D02*
X206870D01*
X176670Y245620D02*
Y277620D01*
X721808Y449028D02*
Y457752D01*
X704083Y449028D02*
X721808D01*
X704083D02*
Y457752D01*
X721808D01*
X572599Y443731D02*
X590721D01*
Y452889D01*
X572599D02*
X590721D01*
X572599Y443731D02*
Y452889D01*
X668521Y431629D02*
X677679D01*
X668521D02*
Y449751D01*
X677679D01*
Y431629D02*
Y449751D01*
X102822Y543140D02*
X124944D01*
Y554140D01*
X102822D02*
X124944D01*
X102822Y543140D02*
Y554140D01*
X147689Y383960D02*
X169811D01*
X147689Y372960D02*
Y383960D01*
Y372960D02*
X169811D01*
Y383960D01*
D18*
X210821Y269240D02*
X217170D01*
X210821D02*
Y266519D01*
X211124Y265612D01*
X211426Y265310D01*
X212031Y265008D01*
X212635D01*
X213240Y265310D01*
X213542Y265612D01*
X213845Y266519D01*
Y269240D01*
Y267124D02*
X217170Y265008D01*
X210821Y260564D02*
X215054Y263587D01*
Y259052D01*
X210821Y260564D02*
X217170D01*
X210821Y256120D02*
X211124Y257027D01*
X212031Y257631D01*
X213542Y257934D01*
X214449D01*
X215961Y257631D01*
X216868Y257027D01*
X217170Y256120D01*
Y255515D01*
X216868Y254608D01*
X215961Y254003D01*
X214449Y253701D01*
X213542D01*
X212031Y254003D01*
X211124Y254608D01*
X210821Y255515D01*
Y256120D01*
X192623Y228601D02*
Y234950D01*
Y228601D02*
X195344D01*
X196251Y228904D01*
X196553Y229206D01*
X196855Y229811D01*
Y230415D01*
X196553Y231020D01*
X196251Y231322D01*
X195344Y231625D01*
X192623D01*
X194739D02*
X196855Y234950D01*
X201299Y228601D02*
X198276Y232834D01*
X202811D01*
X201299Y228601D02*
Y234950D01*
X203929Y229811D02*
X204534Y229508D01*
X205441Y228601D01*
Y234950D01*
X210821Y240883D02*
X217170D01*
X210821D02*
Y238162D01*
X211124Y237255D01*
X211426Y236953D01*
X212031Y236651D01*
X212635D01*
X213240Y236953D01*
X213542Y237255D01*
X213845Y238162D01*
Y240883D01*
Y238767D02*
X217170Y236651D01*
X210821Y232207D02*
X215054Y235230D01*
Y230695D01*
X210821Y232207D02*
X217170D01*
X212333Y229274D02*
X212031D01*
X211426Y228972D01*
X211124Y228669D01*
X210821Y228065D01*
Y226856D01*
X211124Y226251D01*
X211426Y225949D01*
X212031Y225646D01*
X212635D01*
X213240Y225949D01*
X214147Y226553D01*
X217170Y229576D01*
Y225344D01*
X711676Y444499D02*
Y438150D01*
Y444499D02*
X708955D01*
X708048Y444196D01*
X707746Y443894D01*
X707443Y443289D01*
Y442685D01*
X707746Y442080D01*
X708048Y441778D01*
X708955Y441475D01*
X711676D01*
X709560D02*
X707443Y438150D01*
X702999Y444499D02*
X706022Y440266D01*
X701488D01*
X702999Y444499D02*
Y438150D01*
X453147Y186145D02*
X453752Y185842D01*
X454356Y185238D01*
X454659Y184633D01*
Y183424D01*
X454356Y182819D01*
X453752Y182215D01*
X453147Y181912D01*
X452240Y181610D01*
X450728D01*
X449822Y181912D01*
X449217Y182215D01*
X448612Y182819D01*
X448310Y183424D01*
Y184633D01*
X448612Y185238D01*
X449217Y185842D01*
X449822Y186145D01*
X453449Y187928D02*
X453752Y188533D01*
X454659Y189440D01*
X448310D01*
X473467Y184875D02*
X474072Y184572D01*
X474676Y183968D01*
X474978Y183363D01*
Y182154D01*
X474676Y181549D01*
X474072Y180944D01*
X473467Y180642D01*
X472560Y180340D01*
X471048D01*
X470141Y180642D01*
X469537Y180944D01*
X468932Y181549D01*
X468630Y182154D01*
Y183363D01*
X468932Y183968D01*
X469537Y184572D01*
X470141Y184875D01*
X473467Y186961D02*
X473769D01*
X474374Y187263D01*
X474676Y187565D01*
X474978Y188170D01*
Y189379D01*
X474676Y189984D01*
X474374Y190286D01*
X473769Y190588D01*
X473165D01*
X472560Y190286D01*
X471653Y189681D01*
X468630Y186658D01*
Y190891D01*
X453147Y224245D02*
X453752Y223942D01*
X454356Y223338D01*
X454659Y222733D01*
Y221524D01*
X454356Y220919D01*
X453752Y220315D01*
X453147Y220012D01*
X452240Y219710D01*
X450728D01*
X449822Y220012D01*
X449217Y220315D01*
X448612Y220919D01*
X448310Y221524D01*
Y222733D01*
X448612Y223338D01*
X449217Y223942D01*
X449822Y224245D01*
X454659Y229656D02*
Y226633D01*
X451938Y226331D01*
X452240Y226633D01*
X452542Y227540D01*
Y228447D01*
X452240Y229354D01*
X451635Y229958D01*
X450728Y230261D01*
X450124D01*
X449217Y229958D01*
X448612Y229354D01*
X448310Y228447D01*
Y227540D01*
X448612Y226633D01*
X448914Y226331D01*
X449519Y226028D01*
X473467Y224895D02*
X474072Y224592D01*
X474676Y223988D01*
X474978Y223383D01*
Y222174D01*
X474676Y221569D01*
X474072Y220964D01*
X473467Y220662D01*
X472560Y220360D01*
X471048D01*
X470141Y220662D01*
X469537Y220964D01*
X468932Y221569D01*
X468630Y222174D01*
Y223383D01*
X468932Y223988D01*
X469537Y224592D01*
X470141Y224895D01*
X474072Y230306D02*
X474676Y230004D01*
X474978Y229097D01*
Y228492D01*
X474676Y227585D01*
X473769Y226980D01*
X472258Y226678D01*
X470746D01*
X469537Y226980D01*
X468932Y227585D01*
X468630Y228492D01*
Y228794D01*
X468932Y229701D01*
X469537Y230306D01*
X470444Y230608D01*
X470746D01*
X471653Y230306D01*
X472258Y229701D01*
X472560Y228794D01*
Y228492D01*
X472258Y227585D01*
X471653Y226980D01*
X470746Y226678D01*
X625866Y223530D02*
X626080Y222888D01*
Y222033D01*
X625866Y221392D01*
X625011Y220537D01*
X624370Y220323D01*
X623515Y220323D01*
X622873Y220537D01*
X622018Y220964D01*
X620949Y222033D01*
X620522Y222888D01*
X620308Y223529D01*
Y224385D01*
X620522Y225026D01*
X621377Y225881D01*
X622018Y226095D01*
X622873Y226095D01*
X623515Y225881D01*
X627341Y224577D02*
X627982Y224791D01*
X629265Y224791D01*
X624776Y229280D01*
X632771Y231289D02*
X631916Y231717D01*
X631061Y231717D01*
X630206Y231289D01*
X629992Y231076D01*
X629564Y230221D01*
Y229366D01*
X629992Y228510D01*
X630206Y228297D01*
X631061Y227869D01*
X631916Y227869D01*
X632771Y228297D01*
X632985Y228510D01*
X633412Y229366D01*
X633412Y230221D01*
X632771Y231289D01*
X631702Y232358D01*
X630419Y233213D01*
X629351Y233427D01*
X628495Y232999D01*
X628068Y232572D01*
X627640Y231717D01*
X627854Y231076D01*
X135345Y397753D02*
X135042Y397148D01*
X134438Y396544D01*
X133833Y396241D01*
X132624D01*
X132019Y396544D01*
X131414Y397148D01*
X131112Y397753D01*
X130810Y398660D01*
Y400172D01*
X131112Y401078D01*
X131414Y401683D01*
X132019Y402288D01*
X132624Y402590D01*
X133833D01*
X134438Y402288D01*
X135042Y401683D01*
X135345Y401078D01*
X137430Y397753D02*
Y397451D01*
X137733Y396846D01*
X138035Y396544D01*
X138640Y396241D01*
X139849D01*
X140454Y396544D01*
X140756Y396846D01*
X141058Y397451D01*
Y398055D01*
X140756Y398660D01*
X140151Y399567D01*
X137128Y402590D01*
X141361D01*
X143386Y396241D02*
X146712D01*
X144898Y398660D01*
X145805D01*
X146409Y398962D01*
X146712Y399265D01*
X147014Y400172D01*
Y400776D01*
X146712Y401683D01*
X146107Y402288D01*
X145200Y402590D01*
X144293D01*
X143386Y402288D01*
X143084Y401986D01*
X142781Y401381D01*
X645403Y409295D02*
X644798Y409598D01*
X644194Y410202D01*
X643891Y410807D01*
Y412016D01*
X644194Y412621D01*
X644798Y413226D01*
X645403Y413528D01*
X646310Y413830D01*
X647822D01*
X648728Y413528D01*
X649333Y413226D01*
X649938Y412621D01*
X650240Y412016D01*
Y410807D01*
X649938Y410202D01*
X649333Y409598D01*
X648728Y409295D01*
X645403Y407209D02*
X645101D01*
X644496Y406907D01*
X644194Y406605D01*
X643891Y406000D01*
Y404791D01*
X644194Y404186D01*
X644496Y403884D01*
X645101Y403582D01*
X645705D01*
X646310Y403884D01*
X647217Y404489D01*
X650240Y407512D01*
Y403279D01*
X646008Y397928D02*
X646915Y398231D01*
X647519Y398835D01*
X647822Y399742D01*
Y400045D01*
X647519Y400951D01*
X646915Y401556D01*
X646008Y401858D01*
X645705D01*
X644798Y401556D01*
X644194Y400951D01*
X643891Y400045D01*
Y399742D01*
X644194Y398835D01*
X644798Y398231D01*
X646008Y397928D01*
X647519D01*
X649031Y398231D01*
X649938Y398835D01*
X650240Y399742D01*
Y400347D01*
X649938Y401254D01*
X649333Y401556D01*
X642863Y395515D02*
X642258Y395818D01*
X641654Y396422D01*
X641351Y397027D01*
Y398236D01*
X641654Y398841D01*
X642258Y399445D01*
X642863Y399748D01*
X643770Y400050D01*
X645282D01*
X646189Y399748D01*
X646793Y399445D01*
X647398Y398841D01*
X647700Y398236D01*
Y397027D01*
X647398Y396422D01*
X646793Y395818D01*
X646189Y395515D01*
X641351Y393127D02*
Y389802D01*
X643770Y391615D01*
Y390709D01*
X644072Y390104D01*
X644375Y389802D01*
X645282Y389499D01*
X645886D01*
X646793Y389802D01*
X647398Y390406D01*
X647700Y391313D01*
Y392220D01*
X647398Y393127D01*
X647095Y393429D01*
X646491Y393732D01*
X641351Y386264D02*
X641654Y387172D01*
X642561Y387776D01*
X644072Y388078D01*
X644979D01*
X646491Y387776D01*
X647398Y387172D01*
X647700Y386264D01*
Y385660D01*
X647398Y384753D01*
X646491Y384148D01*
X644979Y383846D01*
X644072D01*
X642561Y384148D01*
X641654Y384753D01*
X641351Y385660D01*
Y386264D01*
X595387Y506185D02*
X595992Y505882D01*
X596596Y505278D01*
X596898Y504673D01*
Y503464D01*
X596596Y502859D01*
X595992Y502254D01*
X595387Y501952D01*
X594480Y501650D01*
X592968D01*
X592062Y501952D01*
X591457Y502254D01*
X590852Y502859D01*
X590550Y503464D01*
Y504673D01*
X590852Y505278D01*
X591457Y505882D01*
X592062Y506185D01*
X596898Y508573D02*
Y511898D01*
X594480Y510084D01*
Y510991D01*
X594178Y511596D01*
X593875Y511898D01*
X592968Y512201D01*
X592364D01*
X591457Y511898D01*
X590852Y511294D01*
X590550Y510387D01*
Y509480D01*
X590852Y508573D01*
X591155Y508270D01*
X591759Y507968D01*
X595689Y513621D02*
X595992Y514226D01*
X596898Y515133D01*
X590550D01*
X626353Y395325D02*
X625748Y395628D01*
X625144Y396232D01*
X624841Y396837D01*
Y398046D01*
X625144Y398651D01*
X625748Y399255D01*
X626353Y399558D01*
X627260Y399860D01*
X628772D01*
X629678Y399558D01*
X630283Y399255D01*
X630888Y398651D01*
X631190Y398046D01*
Y396837D01*
X630888Y396232D01*
X630283Y395628D01*
X629678Y395325D01*
X624841Y392937D02*
Y389612D01*
X627260Y391426D01*
Y390519D01*
X627562Y389914D01*
X627865Y389612D01*
X628772Y389309D01*
X629376D01*
X630283Y389612D01*
X630888Y390216D01*
X631190Y391123D01*
Y392030D01*
X630888Y392937D01*
X630586Y393239D01*
X629981Y393542D01*
X626353Y387586D02*
X626051D01*
X625446Y387284D01*
X625144Y386982D01*
X624841Y386377D01*
Y385168D01*
X625144Y384563D01*
X625446Y384261D01*
X626051Y383958D01*
X626655D01*
X627260Y384261D01*
X628167Y384865D01*
X631190Y387888D01*
Y383656D01*
X613167Y505105D02*
X613772Y504802D01*
X614376Y504198D01*
X614678Y503593D01*
Y502384D01*
X614376Y501779D01*
X613772Y501174D01*
X613167Y500872D01*
X612260Y500570D01*
X610748D01*
X609841Y500872D01*
X609237Y501174D01*
X608632Y501779D01*
X608330Y502384D01*
Y503593D01*
X608632Y504198D01*
X609237Y504802D01*
X609841Y505105D01*
X614678Y507493D02*
Y510818D01*
X612260Y509004D01*
Y509911D01*
X611958Y510516D01*
X611655Y510818D01*
X610748Y511121D01*
X610144D01*
X609237Y510818D01*
X608632Y510214D01*
X608330Y509307D01*
Y508400D01*
X608632Y507493D01*
X608935Y507191D01*
X609539Y506888D01*
X614678Y513146D02*
Y516472D01*
X612260Y514658D01*
Y515565D01*
X611958Y516169D01*
X611655Y516472D01*
X610748Y516774D01*
X610144D01*
X609237Y516472D01*
X608632Y515867D01*
X608330Y514960D01*
Y514053D01*
X608632Y513146D01*
X608935Y512844D01*
X609539Y512542D01*
X642085Y467117D02*
X642388Y467722D01*
X642992Y468326D01*
X643597Y468629D01*
X644806D01*
X645411Y468326D01*
X646015Y467722D01*
X646318Y467117D01*
X646620Y466210D01*
Y464698D01*
X646318Y463792D01*
X646015Y463187D01*
X645411Y462582D01*
X644806Y462280D01*
X643597D01*
X642992Y462582D01*
X642388Y463187D01*
X642085Y463792D01*
X639697Y468629D02*
X636372D01*
X638186Y466210D01*
X637279D01*
X636674Y465908D01*
X636372Y465605D01*
X636069Y464698D01*
Y464094D01*
X636372Y463187D01*
X636976Y462582D01*
X637883Y462280D01*
X638790D01*
X639697Y462582D01*
X639999Y462884D01*
X640302Y463489D01*
X631625Y468629D02*
X634648Y464396D01*
X630114D01*
X631625Y468629D02*
Y462280D01*
X677937Y475705D02*
X678542Y475402D01*
X679146Y474798D01*
X679448Y474193D01*
Y472984D01*
X679146Y472379D01*
X678542Y471774D01*
X677937Y471472D01*
X677030Y471170D01*
X675518D01*
X674612Y471472D01*
X674007Y471774D01*
X673402Y472379D01*
X673100Y472984D01*
Y474193D01*
X673402Y474798D01*
X674007Y475402D01*
X674612Y475705D01*
X679448Y478093D02*
Y481418D01*
X677030Y479604D01*
Y480511D01*
X676728Y481116D01*
X676425Y481418D01*
X675518Y481721D01*
X674914D01*
X674007Y481418D01*
X673402Y480814D01*
X673100Y479907D01*
Y479000D01*
X673402Y478093D01*
X673705Y477790D01*
X674309Y477488D01*
X679448Y486769D02*
Y483746D01*
X676728Y483444D01*
X677030Y483746D01*
X677332Y484653D01*
Y485560D01*
X677030Y486467D01*
X676425Y487072D01*
X675518Y487374D01*
X674914D01*
X674007Y487072D01*
X673402Y486467D01*
X673100Y485560D01*
Y484653D01*
X673402Y483746D01*
X673705Y483444D01*
X674309Y483142D01*
X642085Y455687D02*
X642388Y456292D01*
X642992Y456896D01*
X643597Y457198D01*
X644806D01*
X645411Y456896D01*
X646015Y456292D01*
X646318Y455687D01*
X646620Y454780D01*
Y453268D01*
X646318Y452361D01*
X646015Y451757D01*
X645411Y451152D01*
X644806Y450850D01*
X643597D01*
X642992Y451152D01*
X642388Y451757D01*
X642085Y452361D01*
X639697Y457198D02*
X636372D01*
X638186Y454780D01*
X637279D01*
X636674Y454478D01*
X636372Y454175D01*
X636069Y453268D01*
Y452664D01*
X636372Y451757D01*
X636976Y451152D01*
X637883Y450850D01*
X638790D01*
X639697Y451152D01*
X639999Y451455D01*
X640302Y452059D01*
X631021Y456292D02*
X631323Y456896D01*
X632230Y457198D01*
X632835D01*
X633741Y456896D01*
X634346Y455989D01*
X634648Y454478D01*
Y452966D01*
X634346Y451757D01*
X633741Y451152D01*
X632835Y450850D01*
X632532D01*
X631625Y451152D01*
X631021Y451757D01*
X630718Y452664D01*
Y452966D01*
X631021Y453873D01*
X631625Y454478D01*
X632532Y454780D01*
X632835D01*
X633741Y454478D01*
X634346Y453873D01*
X634648Y452966D01*
X627925Y442987D02*
X628228Y443592D01*
X628832Y444196D01*
X629437Y444498D01*
X630646D01*
X631251Y444196D01*
X631856Y443592D01*
X632158Y442987D01*
X632460Y442080D01*
Y440568D01*
X632158Y439661D01*
X631856Y439057D01*
X631251Y438452D01*
X630646Y438150D01*
X629437D01*
X628832Y438452D01*
X628228Y439057D01*
X627925Y439661D01*
X625537Y444498D02*
X622212D01*
X624025Y442080D01*
X623119D01*
X622514Y441778D01*
X622212Y441475D01*
X621909Y440568D01*
Y439964D01*
X622212Y439057D01*
X622816Y438452D01*
X623723Y438150D01*
X624630D01*
X625537Y438452D01*
X625839Y438755D01*
X626142Y439359D01*
X616256Y444498D02*
X619279Y438150D01*
X620488Y444498D02*
X616256D01*
X660935Y420613D02*
X660632Y420008D01*
X660028Y419404D01*
X659423Y419101D01*
X658214D01*
X657609Y419404D01*
X657004Y420008D01*
X656702Y420613D01*
X656400Y421520D01*
Y423032D01*
X656702Y423938D01*
X657004Y424543D01*
X657609Y425148D01*
X658214Y425450D01*
X659423D01*
X660028Y425148D01*
X660632Y424543D01*
X660935Y423938D01*
X663323Y419101D02*
X666648D01*
X664834Y421520D01*
X665741D01*
X666346Y421822D01*
X666648Y422125D01*
X666951Y423032D01*
Y423636D01*
X666648Y424543D01*
X666044Y425148D01*
X665137Y425450D01*
X664230D01*
X663323Y425148D01*
X663020Y424846D01*
X662718Y424241D01*
X669883Y419101D02*
X668976Y419404D01*
X668674Y420008D01*
Y420613D01*
X668976Y421218D01*
X669581Y421520D01*
X670790Y421822D01*
X671697Y422125D01*
X672302Y422729D01*
X672604Y423334D01*
Y424241D01*
X672302Y424846D01*
X671999Y425148D01*
X671092Y425450D01*
X669883D01*
X668976Y425148D01*
X668674Y424846D01*
X668372Y424241D01*
Y423334D01*
X668674Y422729D01*
X669278Y422125D01*
X670185Y421822D01*
X671395Y421520D01*
X671999Y421218D01*
X672302Y420613D01*
Y420008D01*
X671999Y419404D01*
X671092Y419101D01*
X669883D01*
X628115Y453147D02*
X628418Y453752D01*
X629022Y454356D01*
X629627Y454659D01*
X630836D01*
X631441Y454356D01*
X632046Y453752D01*
X632348Y453147D01*
X632650Y452240D01*
Y450728D01*
X632348Y449822D01*
X632046Y449217D01*
X631441Y448612D01*
X630836Y448310D01*
X629627D01*
X629022Y448612D01*
X628418Y449217D01*
X628115Y449822D01*
X625727Y454659D02*
X622402D01*
X624216Y452240D01*
X623309D01*
X622704Y451938D01*
X622402Y451635D01*
X622099Y450728D01*
Y450124D01*
X622402Y449217D01*
X623006Y448612D01*
X623913Y448310D01*
X624820D01*
X625727Y448612D01*
X626029Y448914D01*
X626332Y449519D01*
X616748Y452542D02*
X617051Y451635D01*
X617655Y451031D01*
X618562Y450728D01*
X618865D01*
X619771Y451031D01*
X620376Y451635D01*
X620678Y452542D01*
Y452845D01*
X620376Y453752D01*
X619771Y454356D01*
X618865Y454659D01*
X618562D01*
X617655Y454356D01*
X617051Y453752D01*
X616748Y452542D01*
Y451031D01*
X617051Y449519D01*
X617655Y448612D01*
X618562Y448310D01*
X619167D01*
X620074Y448612D01*
X620376Y449217D01*
X664745Y433313D02*
X664442Y432708D01*
X663838Y432104D01*
X663233Y431801D01*
X662024D01*
X661419Y432104D01*
X660815Y432708D01*
X660512Y433313D01*
X660210Y434220D01*
Y435732D01*
X660512Y436638D01*
X660815Y437243D01*
X661419Y437848D01*
X662024Y438150D01*
X663233D01*
X663838Y437848D01*
X664442Y437243D01*
X664745Y436638D01*
X669551Y431801D02*
X666528Y436034D01*
X671063D01*
X669551Y431801D02*
Y438150D01*
X673995Y431801D02*
X673089Y432104D01*
X672484Y433011D01*
X672181Y434522D01*
Y435429D01*
X672484Y436941D01*
X673089Y437848D01*
X673995Y438150D01*
X674600D01*
X675507Y437848D01*
X676112Y436941D01*
X676414Y435429D01*
Y434522D01*
X676112Y433011D01*
X675507Y432104D01*
X674600Y431801D01*
X673995D01*
X685557Y506375D02*
X686162Y506072D01*
X686766Y505468D01*
X687068Y504863D01*
Y503654D01*
X686766Y503049D01*
X686162Y502444D01*
X685557Y502142D01*
X684650Y501840D01*
X683138D01*
X682232Y502142D01*
X681627Y502444D01*
X681022Y503049D01*
X680720Y503654D01*
Y504863D01*
X681022Y505468D01*
X681627Y506072D01*
X682232Y506375D01*
X687068Y511181D02*
X682836Y508158D01*
Y512693D01*
X687068Y511181D02*
X680720D01*
X685859Y513811D02*
X686162Y514416D01*
X687068Y515323D01*
X680720D01*
X632703Y414565D02*
X632098Y414868D01*
X631494Y415472D01*
X631191Y416077D01*
Y417286D01*
X631494Y417891D01*
X632098Y418495D01*
X632703Y418798D01*
X633610Y419100D01*
X635121D01*
X636029Y418798D01*
X636633Y418495D01*
X637238Y417891D01*
X637540Y417286D01*
Y416077D01*
X637238Y415472D01*
X636633Y414868D01*
X636029Y414565D01*
X631191Y409759D02*
X635424Y412782D01*
Y408247D01*
X631191Y409759D02*
X637540D01*
X632703Y406826D02*
X632401D01*
X631796Y406524D01*
X631494Y406222D01*
X631191Y405617D01*
Y404408D01*
X631494Y403803D01*
X631796Y403501D01*
X632401Y403198D01*
X633005D01*
X633610Y403501D01*
X634517Y404105D01*
X637540Y407128D01*
Y402896D01*
X589190Y477763D02*
X588887Y477158D01*
X588283Y476554D01*
X587678Y476251D01*
X586469D01*
X585864Y476554D01*
X585260Y477158D01*
X584957Y477763D01*
X584655Y478670D01*
Y480182D01*
X584957Y481088D01*
X585260Y481693D01*
X585864Y482298D01*
X586469Y482600D01*
X587678D01*
X588283Y482298D01*
X588887Y481693D01*
X589190Y481088D01*
X593996Y476251D02*
X590973Y480484D01*
X595508D01*
X593996Y476251D02*
Y482600D01*
X597231Y476251D02*
X600557D01*
X598743Y478670D01*
X599650D01*
X600254Y478972D01*
X600557Y479275D01*
X600859Y480182D01*
Y480786D01*
X600557Y481693D01*
X599952Y482298D01*
X599045Y482600D01*
X598138D01*
X597231Y482298D01*
X596929Y481996D01*
X596627Y481391D01*
X391235Y682233D02*
X390932Y681628D01*
X390328Y681024D01*
X389723Y680721D01*
X388514D01*
X387909Y681024D01*
X387304Y681628D01*
X387002Y682233D01*
X386700Y683140D01*
Y684651D01*
X387002Y685558D01*
X387304Y686163D01*
X387909Y686768D01*
X388514Y687070D01*
X389723D01*
X390328Y686768D01*
X390932Y686163D01*
X391235Y685558D01*
X396646Y680721D02*
X393623D01*
X393321Y683442D01*
X393623Y683140D01*
X394530Y682838D01*
X395437D01*
X396344Y683140D01*
X396948Y683745D01*
X397251Y684651D01*
Y685256D01*
X396948Y686163D01*
X396344Y686768D01*
X395437Y687070D01*
X394530D01*
X393623Y686768D01*
X393321Y686466D01*
X393018Y685861D01*
X402299Y680721D02*
X399276D01*
X398974Y683442D01*
X399276Y683140D01*
X400183Y682838D01*
X401090D01*
X401997Y683140D01*
X402602Y683745D01*
X402904Y684651D01*
Y685256D01*
X402602Y686163D01*
X401997Y686768D01*
X401090Y687070D01*
X400183D01*
X399276Y686768D01*
X398974Y686466D01*
X398672Y685861D01*
X391264Y659373D02*
X390962Y658768D01*
X390358Y658164D01*
X389753Y657861D01*
X388544D01*
X387939Y658164D01*
X387334Y658768D01*
X387032Y659373D01*
X386730Y660280D01*
Y661792D01*
X387032Y662699D01*
X387334Y663303D01*
X387939Y663908D01*
X388544Y664210D01*
X389753D01*
X390358Y663908D01*
X390962Y663303D01*
X391264Y662699D01*
X396676Y657861D02*
X393653D01*
X393350Y660582D01*
X393653Y660280D01*
X394560Y659978D01*
X395467D01*
X396374Y660280D01*
X396978Y660885D01*
X397281Y661792D01*
Y662396D01*
X396978Y663303D01*
X396374Y663908D01*
X395467Y664210D01*
X394560D01*
X393653Y663908D01*
X393350Y663605D01*
X393048Y663001D01*
X402329Y658768D02*
X402027Y658164D01*
X401120Y657861D01*
X400515D01*
X399608Y658164D01*
X399004Y659071D01*
X398702Y660582D01*
Y662094D01*
X399004Y663303D01*
X399608Y663908D01*
X400515Y664210D01*
X400818D01*
X401725Y663908D01*
X402329Y663303D01*
X402632Y662396D01*
Y662094D01*
X402329Y661187D01*
X401725Y660582D01*
X400818Y660280D01*
X400515D01*
X399608Y660582D01*
X399004Y661187D01*
X398702Y662094D01*
X391235Y703823D02*
X390932Y703218D01*
X390328Y702614D01*
X389723Y702311D01*
X388514D01*
X387909Y702614D01*
X387304Y703218D01*
X387002Y703823D01*
X386700Y704730D01*
Y706242D01*
X387002Y707149D01*
X387304Y707753D01*
X387909Y708358D01*
X388514Y708660D01*
X389723D01*
X390328Y708358D01*
X390932Y707753D01*
X391235Y707149D01*
X396646Y702311D02*
X393623D01*
X393321Y705032D01*
X393623Y704730D01*
X394530Y704428D01*
X395437D01*
X396344Y704730D01*
X396948Y705335D01*
X397251Y706242D01*
Y706846D01*
X396948Y707753D01*
X396344Y708358D01*
X395437Y708660D01*
X394530D01*
X393623Y708358D01*
X393321Y708055D01*
X393018Y707451D01*
X402904Y702311D02*
X399881Y708660D01*
X398672Y702311D02*
X402904D01*
X205636Y304557D02*
X205938Y305162D01*
X206542Y305766D01*
X207147Y306068D01*
X208356D01*
X208961Y305766D01*
X209566Y305162D01*
X209868Y304557D01*
X210170Y303650D01*
Y302138D01*
X209868Y301231D01*
X209566Y300627D01*
X208961Y300022D01*
X208356Y299720D01*
X207147D01*
X206542Y300022D01*
X205938Y300627D01*
X205636Y301231D01*
X200224Y305162D02*
X200526Y305766D01*
X201433Y306068D01*
X202038D01*
X202945Y305766D01*
X203549Y304859D01*
X203852Y303348D01*
Y301836D01*
X203549Y300627D01*
X202945Y300022D01*
X202038Y299720D01*
X201736D01*
X200829Y300022D01*
X200224Y300627D01*
X199922Y301534D01*
Y301836D01*
X200224Y302743D01*
X200829Y303348D01*
X201736Y303650D01*
X202038D01*
X202945Y303348D01*
X203549Y302743D01*
X203852Y301836D01*
X194903Y305162D02*
X195206Y305766D01*
X196112Y306068D01*
X196717D01*
X197624Y305766D01*
X198229Y304859D01*
X198531Y303348D01*
Y301836D01*
X198229Y300627D01*
X197624Y300022D01*
X196717Y299720D01*
X196415D01*
X195508Y300022D01*
X194903Y300627D01*
X194601Y301534D01*
Y301836D01*
X194903Y302743D01*
X195508Y303348D01*
X196415Y303650D01*
X196717D01*
X197624Y303348D01*
X198229Y302743D01*
X198531Y301836D01*
X354405Y435853D02*
X354102Y435248D01*
X353498Y434644D01*
X352893Y434341D01*
X351684D01*
X351079Y434644D01*
X350475Y435248D01*
X350172Y435853D01*
X349870Y436760D01*
Y438271D01*
X350172Y439179D01*
X350475Y439783D01*
X351079Y440388D01*
X351684Y440690D01*
X352893D01*
X353498Y440388D01*
X354102Y439783D01*
X354405Y439179D01*
X359816Y435248D02*
X359514Y434644D01*
X358607Y434341D01*
X358002D01*
X357095Y434644D01*
X356491Y435551D01*
X356188Y437062D01*
Y438574D01*
X356491Y439783D01*
X357095Y440388D01*
X358002Y440690D01*
X358304D01*
X359211Y440388D01*
X359816Y439783D01*
X360118Y438876D01*
Y438574D01*
X359816Y437667D01*
X359211Y437062D01*
X358304Y436760D01*
X358002D01*
X357095Y437062D01*
X356491Y437667D01*
X356188Y438574D01*
X365742Y434341D02*
X362718Y440690D01*
X361509Y434341D02*
X365742D01*
X194854Y255279D02*
X194249Y255581D01*
X193645Y256186D01*
X193342Y256791D01*
X193040Y257698D01*
Y259209D01*
X193342Y260116D01*
X193645Y260721D01*
X194249Y261325D01*
X194854Y261628D01*
X196063D01*
X196668Y261325D01*
X197272Y260721D01*
X197575Y260116D01*
X197877Y259209D01*
Y257698D01*
X197575Y256791D01*
X197272Y256186D01*
X196668Y255581D01*
X196063Y255279D01*
X194854D01*
X195761Y260419D02*
X197575Y262232D01*
X199358Y256488D02*
X199963Y256186D01*
X200870Y255279D01*
Y261628D01*
X711676Y461009D02*
Y454660D01*
Y461009D02*
X708955D01*
X708048Y460706D01*
X707746Y460404D01*
X707443Y459799D01*
Y459195D01*
X707746Y458590D01*
X708048Y458288D01*
X708955Y457985D01*
X711676D01*
X709560D02*
X707443Y454660D01*
X705418Y461009D02*
X702092D01*
X703906Y458590D01*
X702999D01*
X702395Y458288D01*
X702092Y457985D01*
X701790Y457079D01*
Y456474D01*
X702092Y455567D01*
X702697Y454962D01*
X703604Y454660D01*
X704511D01*
X705418Y454962D01*
X705720Y455265D01*
X706022Y455869D01*
X582930Y440691D02*
Y447040D01*
Y440691D02*
X585651D01*
X586558Y440994D01*
X586860Y441296D01*
X587162Y441901D01*
Y442505D01*
X586860Y443110D01*
X586558Y443412D01*
X585651Y443715D01*
X582930D01*
X585046D02*
X587162Y447040D01*
X590095Y440691D02*
X589188Y440994D01*
X588885Y441598D01*
Y442203D01*
X589188Y442808D01*
X589792Y443110D01*
X591002Y443412D01*
X591908Y443715D01*
X592513Y444319D01*
X592816Y444924D01*
Y445831D01*
X592513Y446436D01*
X592211Y446738D01*
X591304Y447040D01*
X590095D01*
X589188Y446738D01*
X588885Y446436D01*
X588583Y445831D01*
Y444924D01*
X588885Y444319D01*
X589490Y443715D01*
X590397Y443412D01*
X591606Y443110D01*
X592211Y442808D01*
X592513Y442203D01*
Y441598D01*
X592211Y440994D01*
X591304Y440691D01*
X590095D01*
X680719Y441960D02*
X674370D01*
X680719D02*
Y444681D01*
X680416Y445588D01*
X680114Y445890D01*
X679509Y446192D01*
X678905D01*
X678300Y445890D01*
X677998Y445588D01*
X677695Y444681D01*
Y441960D01*
Y444076D02*
X674370Y446192D01*
X679509Y447613D02*
X679812Y448218D01*
X680719Y449125D01*
X674370D01*
X680719Y455897D02*
Y452873D01*
X677998Y452571D01*
X678300Y452873D01*
X678602Y453780D01*
Y454687D01*
X678300Y455594D01*
X677695Y456199D01*
X676788Y456501D01*
X676184D01*
X675277Y456199D01*
X674672Y455594D01*
X674370Y454687D01*
Y453780D01*
X674672Y452873D01*
X674975Y452571D01*
X675579Y452269D01*
X115153Y541021D02*
Y547370D01*
Y541021D02*
X117874D01*
X118781Y541324D01*
X119083Y541626D01*
X119385Y542231D01*
Y542835D01*
X119083Y543440D01*
X118781Y543742D01*
X117874Y544045D01*
X115153D01*
X117269D02*
X119385Y547370D01*
X120806Y542231D02*
X121411Y541928D01*
X122318Y541021D01*
Y547370D01*
X129089Y541928D02*
X128787Y541324D01*
X127880Y541021D01*
X127276D01*
X126369Y541324D01*
X125764Y542231D01*
X125462Y543742D01*
Y545254D01*
X125764Y546463D01*
X126369Y547068D01*
X127276Y547370D01*
X127578D01*
X128485Y547068D01*
X129089Y546463D01*
X129392Y545556D01*
Y545254D01*
X129089Y544347D01*
X128485Y543742D01*
X127578Y543440D01*
X127276D01*
X126369Y543742D01*
X125764Y544347D01*
X125462Y545254D01*
X157480Y386078D02*
Y379730D01*
Y386078D02*
X154759D01*
X153852Y385776D01*
X153550Y385474D01*
X153248Y384869D01*
Y384265D01*
X153550Y383660D01*
X153852Y383358D01*
X154759Y383055D01*
X157480D01*
X155364D02*
X153248Y379730D01*
X151827Y384869D02*
X151222Y385172D01*
X150315Y386078D01*
Y379730D01*
X142939Y386078D02*
X145962Y379730D01*
X147171Y386078D02*
X142939D01*
M02*
