G04*
G04 #@! TF.GenerationSoftware,Altium Limited,Altium Designer,24.0.1 (36)*
G04*
G04 Layer_Color=16711935*
%FSLAX44Y44*%
%MOMM*%
G71*
G04*
G04 #@! TF.SameCoordinates,043D453D-7082-4CC0-88CE-E1747F565096*
G04*
G04*
G04 #@! TF.FilePolarity,Positive*
G04*
G01*
G75*
%ADD14C,0.2000*%
%ADD18C,0.1270*%
D14*
X968109Y474130D02*
X990231D01*
Y463130D02*
Y474130D01*
X968109Y463130D02*
X990231D01*
X968109D02*
Y474130D01*
Y455080D02*
X990231D01*
Y444080D02*
Y455080D01*
X968109Y444080D02*
X990231D01*
X968109D02*
Y455080D01*
X735630Y181890D02*
Y202890D01*
X717630Y181890D02*
X735630D01*
X717630D02*
Y202890D01*
X735630D01*
X479650Y165890D02*
X523650D01*
X479650D02*
Y232890D01*
X523650D01*
Y165890D02*
Y232890D01*
X872270Y166115D02*
Y197115D01*
Y166115D02*
X903270D01*
Y197115D01*
X872270D02*
X903270D01*
X759704Y283130D02*
X801825D01*
Y258130D02*
Y283130D01*
X759704Y258130D02*
X801825D01*
X759704D02*
Y283130D01*
X758350Y563130D02*
X778350D01*
X758350Y526130D02*
Y563130D01*
Y526130D02*
X778350D01*
Y563130D01*
X503540Y677390D02*
Y715390D01*
X534540D01*
Y677390D02*
Y715390D01*
X503540Y677390D02*
X534540D01*
X706729Y177701D02*
X744851D01*
Y157579D02*
Y177701D01*
X706729Y157579D02*
X744851D01*
X706729D02*
Y177701D01*
X761339Y157579D02*
X799461D01*
X761339D02*
Y177701D01*
X799461D01*
Y157579D02*
Y177701D01*
X801979Y157579D02*
X840101D01*
X801979D02*
Y177701D01*
X840101D01*
Y157579D02*
Y177701D01*
X681329Y312321D02*
X719451D01*
Y292199D02*
Y312321D01*
X681329Y292199D02*
X719451D01*
X681329D02*
Y312321D01*
X715109Y250799D02*
Y288921D01*
X735231D01*
Y250799D02*
Y288921D01*
X715109Y250799D02*
X735231D01*
X525995Y325306D02*
X536995D01*
X525995Y303184D02*
Y325306D01*
Y303184D02*
X536995D01*
Y325306D01*
X867779Y215050D02*
X889901D01*
Y204050D02*
Y215050D01*
X867779Y204050D02*
X889901D01*
X867779D02*
Y215050D01*
X905609Y159389D02*
Y197511D01*
X925731D01*
Y159389D02*
Y197511D01*
X905609Y159389D02*
X925731D01*
X521434Y262864D02*
X541556D01*
Y300986D01*
X521434D02*
X541556D01*
X521434Y262864D02*
Y300986D01*
X887719Y219611D02*
X925841D01*
Y199489D02*
Y219611D01*
X887719Y199489D02*
X925841D01*
X887719D02*
Y219611D01*
X470765Y321225D02*
Y332825D01*
Y321225D02*
X493348D01*
Y332825D01*
X470765D02*
X493348D01*
X463765Y285484D02*
X474765D01*
Y307606D01*
X463765D02*
X474765D01*
X463765Y285484D02*
Y307606D01*
X480684Y262354D02*
Y282476D01*
Y262354D02*
X518806D01*
Y282476D01*
X480684D02*
X518806D01*
X734189Y563328D02*
Y572052D01*
X716464D02*
X734189D01*
X716464Y563328D02*
Y572052D01*
Y563328D02*
X734189D01*
X681438Y525808D02*
X690162D01*
Y543532D01*
X681438D02*
X690162D01*
X681438Y525808D02*
Y543532D01*
X776737Y512528D02*
Y521252D01*
X759012D02*
X776737D01*
X759012Y512528D02*
Y521252D01*
Y512528D02*
X776737D01*
X740255Y544858D02*
X748980D01*
Y562582D01*
X740255D02*
X748980D01*
X740255Y544858D02*
Y562582D01*
X931330Y268419D02*
Y290541D01*
X920330Y268419D02*
X931330D01*
X920330D02*
Y290541D01*
X931330D01*
X918309Y292709D02*
Y330831D01*
X938431D01*
Y292709D02*
Y330831D01*
X918309Y292709D02*
X938431D01*
X849790Y277150D02*
Y319150D01*
X869790D01*
Y277150D02*
Y319150D01*
X849790Y277150D02*
X869790D01*
Y329820D02*
Y371820D01*
X849790Y329820D02*
X869790D01*
X849790D02*
Y371820D01*
X869790D01*
X874369Y346809D02*
X912491D01*
X874369D02*
Y366931D01*
X912491D01*
Y346809D02*
Y366931D01*
X467969Y584299D02*
Y604421D01*
Y584299D02*
X506091D01*
Y604421D01*
X467969D02*
X506091D01*
X510960Y606159D02*
Y628281D01*
X499960Y606159D02*
X510960D01*
X499960D02*
Y628281D01*
X510960D01*
X475400Y606239D02*
Y628361D01*
X464400Y606239D02*
X475400D01*
X464400D02*
Y628361D01*
X475400D01*
X300190Y669410D02*
X327190D01*
X300190D02*
Y684410D01*
X327190D01*
Y669410D02*
Y684410D01*
X220820Y772800D02*
X249320D01*
X220820D02*
Y789300D01*
X249320D01*
Y772800D02*
Y789300D01*
X300070Y745610D02*
X327070D01*
X300070D02*
Y760610D01*
X327070D01*
Y745610D02*
Y760610D01*
X508695Y731940D02*
X530816D01*
Y720940D02*
Y731940D01*
X508695Y720940D02*
X530816D01*
X508695D02*
Y731940D01*
X300190Y722510D02*
X327190D01*
Y707510D02*
Y722510D01*
X300190Y707510D02*
X327190D01*
X300190D02*
Y722510D01*
X509639Y659980D02*
X531761D01*
X509639D02*
Y670980D01*
X531761D01*
Y659980D02*
Y670980D01*
X379631Y597509D02*
Y635631D01*
X359509Y597509D02*
X379631D01*
X359509D02*
Y635631D01*
X379631D01*
X440591Y597509D02*
Y635631D01*
X420469Y597509D02*
X440591D01*
X420469D02*
Y635631D01*
X440591D01*
X399951Y597509D02*
Y635631D01*
X379829Y597509D02*
X399951D01*
X379829D02*
Y635631D01*
X399951D01*
X416210Y605220D02*
Y629220D01*
X404210Y605220D02*
X416210D01*
X404210D02*
Y629220D01*
X416210D01*
X458350Y603720D02*
Y630720D01*
X443350Y603720D02*
X458350D01*
X443350D02*
Y630720D01*
X458350D01*
X844130Y610049D02*
Y632171D01*
X855130D01*
Y610049D02*
Y632171D01*
X844130Y610049D02*
X855130D01*
X862319Y579021D02*
X900441D01*
Y558899D02*
Y579021D01*
X862319Y558899D02*
X900441D01*
X862319D02*
Y579021D01*
X960109Y478889D02*
X998231D01*
X960109D02*
Y499011D01*
X998231D01*
Y478889D02*
Y499011D01*
X761989Y285849D02*
X800111D01*
X761989D02*
Y305971D01*
X800111D01*
Y285849D02*
Y305971D01*
X608081Y537369D02*
Y557490D01*
X569960D02*
X608081D01*
X569960Y537369D02*
Y557490D01*
Y537369D02*
X608081D01*
X329029Y539739D02*
X349151D01*
Y577861D01*
X329029D02*
X349151D01*
X329029Y539739D02*
Y577861D01*
X481930Y606220D02*
Y628220D01*
X493430D01*
Y606220D02*
Y628220D01*
X481930Y606220D02*
X493430D01*
X1002560Y185300D02*
X1084610D01*
Y284600D01*
X1002560D02*
X1084610D01*
X1002560Y185300D02*
Y284600D01*
X560980Y792780D02*
X820780D01*
Y709580D02*
Y792780D01*
X560980Y709580D02*
X820780D01*
X560980D02*
Y792780D01*
X761580Y181979D02*
Y204101D01*
X772580D01*
Y181979D02*
Y204101D01*
X761580Y181979D02*
X772580D01*
X820000Y191286D02*
Y213408D01*
X831000D01*
Y191286D02*
Y213408D01*
X820000Y191286D02*
X831000D01*
X690832Y251040D02*
X712954D01*
X690832D02*
Y262040D01*
X712954D01*
Y251040D02*
Y262040D01*
X518426Y321525D02*
Y332525D01*
X496304D02*
X518426D01*
X496304Y321525D02*
Y332525D01*
Y321525D02*
X518426D01*
X864020Y178169D02*
Y200291D01*
X853020Y178169D02*
X864020D01*
X853020D02*
Y200291D01*
X864020D01*
X935370Y334520D02*
Y366520D01*
X921370Y334520D02*
X935370D01*
X921370D02*
Y366520D01*
X935370D01*
X300080Y644310D02*
X328080D01*
Y633310D02*
Y644310D01*
X300080Y633310D02*
X328080D01*
X300080D02*
Y644310D01*
X299690Y663360D02*
X327690D01*
Y652360D02*
Y663360D01*
X299690Y652360D02*
X327690D01*
X299690D02*
Y663360D01*
X392010Y757380D02*
Y785380D01*
X403010D01*
Y757380D02*
Y785380D01*
X392010Y757380D02*
X403010D01*
X405980Y757770D02*
Y785770D01*
X416980D01*
Y757770D02*
Y785770D01*
X405980Y757770D02*
X416980D01*
X419950D02*
Y785770D01*
X430950D01*
Y757770D02*
Y785770D01*
X419950Y757770D02*
X430950D01*
X299690Y614260D02*
X327690D01*
X299690D02*
Y625260D01*
X327690D01*
Y614260D02*
Y625260D01*
X258170Y599570D02*
X286170D01*
Y588570D02*
Y599570D01*
X258170Y588570D02*
X286170D01*
X258170D02*
Y599570D01*
Y786550D02*
X286170D01*
Y775550D02*
Y786550D01*
X258170Y775550D02*
X286170D01*
X258170D02*
Y786550D01*
X299690Y690460D02*
X327690D01*
X299690D02*
Y701460D01*
X327690D01*
Y690460D02*
Y701460D01*
X299690Y728560D02*
X327690D01*
X299690D02*
Y739560D01*
X327690D01*
Y728560D02*
Y739560D01*
X484720Y685752D02*
Y707874D01*
X495720D01*
Y685752D02*
Y707874D01*
X484720Y685752D02*
X495720D01*
X1046060Y725122D02*
Y747244D01*
X1057060D01*
Y725122D02*
Y747244D01*
X1046060Y725122D02*
X1057060D01*
X1046060Y700139D02*
Y722261D01*
X1057060D01*
Y700139D02*
Y722261D01*
X1046060Y700139D02*
X1057060D01*
X968962Y552870D02*
X991084D01*
Y541870D02*
Y552870D01*
X968962Y541870D02*
X991084D01*
X968962D02*
Y552870D01*
X968109Y533820D02*
X990231D01*
Y522820D02*
Y533820D01*
X968109Y522820D02*
X990231D01*
X968109D02*
Y533820D01*
Y503770D02*
X990231D01*
X968109D02*
Y514770D01*
X990231D01*
Y503770D02*
Y514770D01*
D18*
X980440Y476249D02*
Y469900D01*
Y476249D02*
X983161D01*
X984068Y475946D01*
X984370Y475644D01*
X984672Y475039D01*
Y474435D01*
X984370Y473830D01*
X984068Y473528D01*
X983161Y473225D01*
X980440D01*
X982556D02*
X984672Y469900D01*
X986698Y476249D02*
X990023D01*
X988209Y473830D01*
X989116D01*
X989721Y473528D01*
X990023Y473225D01*
X990326Y472318D01*
Y471714D01*
X990023Y470807D01*
X989419Y470202D01*
X988512Y469900D01*
X987605D01*
X986698Y470202D01*
X986395Y470504D01*
X986093Y471109D01*
X993258Y476249D02*
X992351Y475946D01*
X992049Y475342D01*
Y474737D01*
X992351Y474132D01*
X992956Y473830D01*
X994165Y473528D01*
X995072Y473225D01*
X995677Y472621D01*
X995979Y472016D01*
Y471109D01*
X995677Y470504D01*
X995374Y470202D01*
X994467Y469900D01*
X993258D01*
X992351Y470202D01*
X992049Y470504D01*
X991747Y471109D01*
Y472016D01*
X992049Y472621D01*
X992653Y473225D01*
X993560Y473528D01*
X994770Y473830D01*
X995374Y474132D01*
X995677Y474737D01*
Y475342D01*
X995374Y475946D01*
X994467Y476249D01*
X993258D01*
X980440Y457198D02*
Y450850D01*
Y457198D02*
X983161D01*
X984068Y456896D01*
X984370Y456594D01*
X984672Y455989D01*
Y455385D01*
X984370Y454780D01*
X984068Y454478D01*
X983161Y454175D01*
X980440D01*
X982556D02*
X984672Y450850D01*
X986698Y457198D02*
X990023D01*
X988209Y454780D01*
X989116D01*
X989721Y454478D01*
X990023Y454175D01*
X990326Y453268D01*
Y452664D01*
X990023Y451757D01*
X989419Y451152D01*
X988512Y450850D01*
X987605D01*
X986698Y451152D01*
X986395Y451455D01*
X986093Y452059D01*
X995677Y455082D02*
X995374Y454175D01*
X994770Y453571D01*
X993863Y453268D01*
X993560D01*
X992653Y453571D01*
X992049Y454175D01*
X991747Y455082D01*
Y455385D01*
X992049Y456292D01*
X992653Y456896D01*
X993560Y457198D01*
X993863D01*
X994770Y456896D01*
X995374Y456292D01*
X995677Y455082D01*
Y453571D01*
X995374Y452059D01*
X994770Y451152D01*
X993863Y450850D01*
X993258D01*
X992351Y451152D01*
X992049Y451757D01*
X734249Y191120D02*
X729714D01*
X728807Y190818D01*
X728202Y190213D01*
X727900Y189306D01*
Y188702D01*
X728202Y187795D01*
X728807Y187190D01*
X729714Y186888D01*
X734249D01*
Y184530D02*
Y181204D01*
X731830Y183018D01*
Y182111D01*
X731528Y181506D01*
X731225Y181204D01*
X730318Y180902D01*
X729714D01*
X728807Y181204D01*
X728202Y181809D01*
X727900Y182716D01*
Y183623D01*
X728202Y184530D01*
X728504Y184832D01*
X729109Y185134D01*
X500380Y191771D02*
Y196306D01*
X500078Y197213D01*
X499473Y197818D01*
X498566Y198120D01*
X497962D01*
X497055Y197818D01*
X496450Y197213D01*
X496148Y196306D01*
Y191771D01*
X494092Y193283D02*
Y192981D01*
X493790Y192376D01*
X493487Y192074D01*
X492883Y191771D01*
X491673D01*
X491069Y192074D01*
X490766Y192376D01*
X490464Y192981D01*
Y193585D01*
X490766Y194190D01*
X491371Y195097D01*
X494394Y198120D01*
X490162D01*
X889040Y189233D02*
Y184699D01*
X889342Y183792D01*
X889947Y183187D01*
X890854Y182885D01*
X891458D01*
X892365Y183187D01*
X892970Y183792D01*
X893272Y184699D01*
Y189233D01*
X898049D02*
X895026Y185001D01*
X899560D01*
X898049Y189233D02*
Y182885D01*
X782035Y276366D02*
Y271831D01*
X782337Y270924D01*
X782942Y270320D01*
X783849Y270018D01*
X784453D01*
X785360Y270320D01*
X785965Y270924D01*
X786267Y271831D01*
Y276366D01*
X788020Y275157D02*
X788625Y275459D01*
X789532Y276366D01*
Y270018D01*
X794490Y276366D02*
X793583Y276064D01*
X792979Y275157D01*
X792676Y273645D01*
Y272738D01*
X792979Y271227D01*
X793583Y270320D01*
X794490Y270018D01*
X795095D01*
X796002Y270320D01*
X796606Y271227D01*
X796909Y272738D01*
Y273645D01*
X796606Y275157D01*
X796002Y276064D01*
X795095Y276366D01*
X794490D01*
X774086Y543360D02*
X771063Y540942D01*
X767738D01*
X774086Y538523D02*
X771063Y540942D01*
X772877Y537707D02*
X773179Y537102D01*
X774086Y536195D01*
X767738D01*
X511422Y697660D02*
X514445Y700078D01*
X517770D01*
X511422Y702497D02*
X514445Y700078D01*
X512933Y703615D02*
X512631D01*
X512026Y703918D01*
X511724Y704220D01*
X511422Y704825D01*
Y706034D01*
X511724Y706639D01*
X512026Y706941D01*
X512631Y707243D01*
X513235D01*
X513840Y706941D01*
X514747Y706336D01*
X517770Y703313D01*
Y707546D01*
X731595Y173747D02*
X731292Y174352D01*
X730688Y174956D01*
X730083Y175259D01*
X728874D01*
X728269Y174956D01*
X727665Y174352D01*
X727362Y173747D01*
X727060Y172840D01*
Y171328D01*
X727362Y170422D01*
X727665Y169817D01*
X728269Y169212D01*
X728874Y168910D01*
X730083D01*
X730688Y169212D01*
X731292Y169817D01*
X731595Y170422D01*
X733983Y175259D02*
X737309D01*
X735495Y172840D01*
X736402D01*
X737006Y172538D01*
X737309Y172235D01*
X737611Y171328D01*
Y170724D01*
X737309Y169817D01*
X736704Y169212D01*
X735797Y168910D01*
X734890D01*
X733983Y169212D01*
X733681Y169515D01*
X733378Y170119D01*
X774595Y161533D02*
X774898Y160928D01*
X775502Y160324D01*
X776107Y160021D01*
X777316D01*
X777921Y160324D01*
X778526Y160928D01*
X778828Y161533D01*
X779130Y162440D01*
Y163951D01*
X778828Y164858D01*
X778526Y165463D01*
X777921Y166068D01*
X777316Y166370D01*
X776107D01*
X775502Y166068D01*
X774898Y165463D01*
X774595Y164858D01*
X769789Y160021D02*
X772812Y164254D01*
X768277D01*
X769789Y160021D02*
Y166370D01*
X815236Y161533D02*
X815538Y160928D01*
X816142Y160324D01*
X816747Y160021D01*
X817956D01*
X818561Y160324D01*
X819166Y160928D01*
X819468Y161533D01*
X819770Y162440D01*
Y163951D01*
X819468Y164858D01*
X819166Y165463D01*
X818561Y166068D01*
X817956Y166370D01*
X816747D01*
X816142Y166068D01*
X815538Y165463D01*
X815236Y164858D01*
X809219Y160021D02*
X812243Y166370D01*
X813452Y160021D02*
X809219D01*
X706195Y308367D02*
X705892Y308972D01*
X705288Y309576D01*
X704683Y309879D01*
X703474D01*
X702869Y309576D01*
X702265Y308972D01*
X701962Y308367D01*
X701660Y307460D01*
Y305948D01*
X701962Y305042D01*
X702265Y304437D01*
X702869Y303832D01*
X703474Y303530D01*
X704683D01*
X705288Y303832D01*
X705892Y304437D01*
X706195Y305042D01*
X709490Y309879D02*
X708583Y309576D01*
X708281Y308972D01*
Y308367D01*
X708583Y307762D01*
X709188Y307460D01*
X710397Y307158D01*
X711304Y306855D01*
X711908Y306251D01*
X712211Y305646D01*
Y304739D01*
X711908Y304135D01*
X711606Y303832D01*
X710699Y303530D01*
X709490D01*
X708583Y303832D01*
X708281Y304135D01*
X707978Y304739D01*
Y305646D01*
X708281Y306251D01*
X708885Y306855D01*
X709792Y307158D01*
X711002Y307460D01*
X711606Y307762D01*
X711908Y308367D01*
Y308972D01*
X711606Y309576D01*
X710699Y309879D01*
X709490D01*
X719063Y275665D02*
X718458Y275362D01*
X717854Y274758D01*
X717551Y274153D01*
Y272944D01*
X717854Y272339D01*
X718458Y271735D01*
X719063Y271432D01*
X719970Y271130D01*
X721482D01*
X722389Y271432D01*
X722993Y271735D01*
X723598Y272339D01*
X723900Y272944D01*
Y274153D01*
X723598Y274758D01*
X722993Y275362D01*
X722389Y275665D01*
X718761Y277448D02*
X718458Y278053D01*
X717551Y278960D01*
X723900D01*
X719063Y282406D02*
X718761D01*
X718156Y282709D01*
X717854Y283011D01*
X717551Y283616D01*
Y284825D01*
X717854Y285429D01*
X718156Y285732D01*
X718761Y286034D01*
X719365D01*
X719970Y285732D01*
X720877Y285127D01*
X723900Y282104D01*
Y286336D01*
X537602Y308440D02*
X538207Y308743D01*
X538811Y309347D01*
X539114Y309952D01*
Y311161D01*
X538811Y311766D01*
X538207Y312370D01*
X537602Y312673D01*
X536695Y312975D01*
X535183D01*
X534277Y312673D01*
X533672Y312370D01*
X533067Y311766D01*
X532765Y311161D01*
Y309952D01*
X533067Y309347D01*
X533672Y308743D01*
X534277Y308440D01*
X537904Y306657D02*
X538207Y306052D01*
X539114Y305145D01*
X532765D01*
X539114Y301396D02*
Y298071D01*
X536695Y299885D01*
Y298978D01*
X536393Y298373D01*
X536090Y298071D01*
X535183Y297769D01*
X534579D01*
X533672Y298071D01*
X533067Y298675D01*
X532765Y299583D01*
Y300489D01*
X533067Y301396D01*
X533369Y301699D01*
X533974Y302001D01*
X884645Y215657D02*
X884342Y216262D01*
X883738Y216866D01*
X883133Y217169D01*
X881924D01*
X881319Y216866D01*
X880714Y216262D01*
X880412Y215657D01*
X880110Y214750D01*
Y213238D01*
X880412Y212332D01*
X880714Y211727D01*
X881319Y211122D01*
X881924Y210820D01*
X883133D01*
X883738Y211122D01*
X884342Y211727D01*
X884645Y212332D01*
X890358Y215052D02*
X890056Y214145D01*
X889451Y213541D01*
X888544Y213238D01*
X888242D01*
X887335Y213541D01*
X886731Y214145D01*
X886428Y215052D01*
Y215355D01*
X886731Y216262D01*
X887335Y216866D01*
X888242Y217169D01*
X888544D01*
X889451Y216866D01*
X890056Y216262D01*
X890358Y215052D01*
Y213541D01*
X890056Y212029D01*
X889451Y211122D01*
X888544Y210820D01*
X887940D01*
X887033Y211122D01*
X886731Y211727D01*
X909563Y184254D02*
X908958Y183952D01*
X908354Y183348D01*
X908052Y182743D01*
Y181534D01*
X908354Y180929D01*
X908958Y180324D01*
X909563Y180022D01*
X910470Y179720D01*
X911982D01*
X912888Y180022D01*
X913493Y180324D01*
X914098Y180929D01*
X914400Y181534D01*
Y182743D01*
X914098Y183348D01*
X913493Y183952D01*
X912888Y184254D01*
X909261Y186038D02*
X908958Y186643D01*
X908052Y187550D01*
X914400D01*
X908052Y192508D02*
X908354Y191601D01*
X909261Y190996D01*
X910772Y190694D01*
X911679D01*
X913191Y190996D01*
X914098Y191601D01*
X914400Y192508D01*
Y193112D01*
X914098Y194019D01*
X913191Y194624D01*
X911679Y194926D01*
X910772D01*
X909261Y194624D01*
X908354Y194019D01*
X908052Y193112D01*
Y192508D01*
X525388Y287730D02*
X524783Y287427D01*
X524179Y286823D01*
X523876Y286218D01*
Y285009D01*
X524179Y284404D01*
X524783Y283800D01*
X525388Y283497D01*
X526295Y283195D01*
X527807D01*
X528713Y283497D01*
X529318Y283800D01*
X529923Y284404D01*
X530225Y285009D01*
Y286218D01*
X529923Y286823D01*
X529318Y287427D01*
X528713Y287730D01*
X525086Y289513D02*
X524783Y290118D01*
X523876Y291025D01*
X530225D01*
X523876Y297192D02*
X528109Y294169D01*
Y298704D01*
X523876Y297192D02*
X530225D01*
X912585Y215657D02*
X912282Y216262D01*
X911678Y216866D01*
X911073Y217169D01*
X909864D01*
X909259Y216866D01*
X908654Y216262D01*
X908352Y215657D01*
X908050Y214750D01*
Y213238D01*
X908352Y212332D01*
X908654Y211727D01*
X909259Y211122D01*
X909864Y210820D01*
X911073D01*
X911678Y211122D01*
X912282Y211727D01*
X912585Y212332D01*
X914368Y215959D02*
X914973Y216262D01*
X915880Y217169D01*
Y210820D01*
X919024Y215959D02*
X919629Y216262D01*
X920536Y217169D01*
Y210820D01*
X487861Y333132D02*
X487559Y333737D01*
X486954Y334341D01*
X486349Y334644D01*
X485140D01*
X484536Y334341D01*
X483931Y333737D01*
X483629Y333132D01*
X483326Y332225D01*
Y330713D01*
X483629Y329807D01*
X483931Y329202D01*
X484536Y328597D01*
X485140Y328295D01*
X486349D01*
X486954Y328597D01*
X487559Y329202D01*
X487861Y329807D01*
X489645Y333434D02*
X490249Y333737D01*
X491156Y334644D01*
Y328295D01*
X497928Y334644D02*
X494905D01*
X494603Y331923D01*
X494905Y332225D01*
X495812Y332527D01*
X496719D01*
X497626Y332225D01*
X498231Y331620D01*
X498533Y330713D01*
Y330109D01*
X498231Y329202D01*
X497626Y328597D01*
X496719Y328295D01*
X495812D01*
X494905Y328597D01*
X494603Y328899D01*
X494300Y329504D01*
X463158Y302350D02*
X462553Y302047D01*
X461949Y301443D01*
X461646Y300838D01*
Y299629D01*
X461949Y299024D01*
X462553Y298419D01*
X463158Y298117D01*
X464065Y297815D01*
X465577D01*
X466483Y298117D01*
X467088Y298419D01*
X467693Y299024D01*
X467995Y299629D01*
Y300838D01*
X467693Y301443D01*
X467088Y302047D01*
X466483Y302350D01*
X462856Y304133D02*
X462553Y304738D01*
X461646Y305645D01*
X467995D01*
X462553Y312417D02*
X461949Y312114D01*
X461646Y311208D01*
Y310603D01*
X461949Y309696D01*
X462856Y309091D01*
X464367Y308789D01*
X465879D01*
X467088Y309091D01*
X467693Y309696D01*
X467995Y310603D01*
Y310905D01*
X467693Y311812D01*
X467088Y312417D01*
X466181Y312719D01*
X465879D01*
X464972Y312417D01*
X464367Y311812D01*
X464065Y310905D01*
Y310603D01*
X464367Y309696D01*
X464972Y309091D01*
X465879Y308789D01*
X505550Y278522D02*
X505247Y279127D01*
X504643Y279731D01*
X504038Y280033D01*
X502829D01*
X502224Y279731D01*
X501619Y279127D01*
X501317Y278522D01*
X501015Y277615D01*
Y276103D01*
X501317Y275196D01*
X501619Y274592D01*
X502224Y273987D01*
X502829Y273685D01*
X504038D01*
X504643Y273987D01*
X505247Y274592D01*
X505550Y275196D01*
X507333Y278824D02*
X507938Y279127D01*
X508845Y280033D01*
Y273685D01*
X516221Y280033D02*
X513198Y273685D01*
X511989Y280033D02*
X516221D01*
X719522Y561583D02*
X719825Y560978D01*
X720429Y560374D01*
X721034Y560071D01*
X722243D01*
X722848Y560374D01*
X723452Y560978D01*
X723755Y561583D01*
X724057Y562490D01*
Y564002D01*
X723755Y564908D01*
X723452Y565513D01*
X722848Y566118D01*
X722243Y566420D01*
X721034D01*
X720429Y566118D01*
X719825Y565513D01*
X719522Y564908D01*
X717739Y561281D02*
X717134Y560978D01*
X716227Y560071D01*
Y566420D01*
X711571Y560071D02*
X712478Y560374D01*
X712781Y560978D01*
Y561583D01*
X712478Y562188D01*
X711874Y562490D01*
X710664Y562792D01*
X709758Y563095D01*
X709153Y563699D01*
X708850Y564304D01*
Y565211D01*
X709153Y565816D01*
X709455Y566118D01*
X710362Y566420D01*
X711571D01*
X712478Y566118D01*
X712781Y565816D01*
X713083Y565211D01*
Y564304D01*
X712781Y563699D01*
X712176Y563095D01*
X711269Y562792D01*
X710060Y562490D01*
X709455Y562188D01*
X709153Y561583D01*
Y560978D01*
X709455Y560374D01*
X710362Y560071D01*
X711571D01*
X679693Y540475D02*
X679088Y540172D01*
X678484Y539568D01*
X678181Y538963D01*
Y537754D01*
X678484Y537149D01*
X679088Y536544D01*
X679693Y536242D01*
X680600Y535940D01*
X682112D01*
X683018Y536242D01*
X683623Y536544D01*
X684228Y537149D01*
X684530Y537754D01*
Y538963D01*
X684228Y539568D01*
X683623Y540172D01*
X683018Y540475D01*
X679693Y542561D02*
X679391D01*
X678786Y542863D01*
X678484Y543165D01*
X678181Y543770D01*
Y544979D01*
X678484Y545584D01*
X678786Y545886D01*
X679391Y546188D01*
X679995D01*
X680600Y545886D01*
X681507Y545281D01*
X684530Y542258D01*
Y546491D01*
X678181Y549725D02*
X678484Y548819D01*
X679391Y548214D01*
X680902Y547912D01*
X681809D01*
X683321Y548214D01*
X684228Y548819D01*
X684530Y549725D01*
Y550330D01*
X684228Y551237D01*
X683321Y551842D01*
X681809Y552144D01*
X680902D01*
X679391Y551842D01*
X678484Y551237D01*
X678181Y550330D01*
Y549725D01*
X762070Y510783D02*
X762372Y510178D01*
X762977Y509574D01*
X763581Y509271D01*
X764791D01*
X765395Y509574D01*
X766000Y510178D01*
X766302Y510783D01*
X766605Y511690D01*
Y513201D01*
X766302Y514109D01*
X766000Y514713D01*
X765395Y515318D01*
X764791Y515620D01*
X763581D01*
X762977Y515318D01*
X762372Y514713D01*
X762070Y514109D01*
X759984Y510783D02*
Y510481D01*
X759681Y509876D01*
X759379Y509574D01*
X758774Y509271D01*
X757565D01*
X756961Y509574D01*
X756658Y509876D01*
X756356Y510481D01*
Y511085D01*
X756658Y511690D01*
X757263Y512597D01*
X760286Y515620D01*
X756054D01*
X754633Y510481D02*
X754028Y510178D01*
X753121Y509271D01*
Y515620D01*
X738510Y559525D02*
X737906Y559222D01*
X737301Y558618D01*
X736999Y558013D01*
Y556804D01*
X737301Y556199D01*
X737906Y555594D01*
X738510Y555292D01*
X739417Y554990D01*
X740929D01*
X741836Y555292D01*
X742440Y555594D01*
X743045Y556199D01*
X743347Y556804D01*
Y558013D01*
X743045Y558618D01*
X742440Y559222D01*
X741836Y559525D01*
X738510Y561611D02*
X738208D01*
X737603Y561913D01*
X737301Y562215D01*
X736999Y562820D01*
Y564029D01*
X737301Y564634D01*
X737603Y564936D01*
X738208Y565238D01*
X738812D01*
X739417Y564936D01*
X740324Y564332D01*
X743347Y561308D01*
Y565541D01*
X738510Y567264D02*
X738208D01*
X737603Y567566D01*
X737301Y567869D01*
X736999Y568473D01*
Y569683D01*
X737301Y570287D01*
X737603Y570589D01*
X738208Y570892D01*
X738812D01*
X739417Y570589D01*
X740324Y569985D01*
X743347Y566962D01*
Y571194D01*
X931937Y273675D02*
X932542Y273978D01*
X933146Y274582D01*
X933448Y275187D01*
Y276396D01*
X933146Y277001D01*
X932542Y277605D01*
X931937Y277908D01*
X931030Y278210D01*
X929518D01*
X928612Y277908D01*
X928007Y277605D01*
X927402Y277001D01*
X927100Y276396D01*
Y275187D01*
X927402Y274582D01*
X928007Y273978D01*
X928612Y273675D01*
X931937Y271589D02*
X932239D01*
X932844Y271287D01*
X933146Y270985D01*
X933448Y270380D01*
Y269171D01*
X933146Y268566D01*
X932844Y268264D01*
X932239Y267962D01*
X931635D01*
X931030Y268264D01*
X930123Y268869D01*
X927100Y271892D01*
Y267659D01*
X933448Y263215D02*
X929216Y266238D01*
Y261704D01*
X933448Y263215D02*
X927100D01*
X922263Y317575D02*
X921658Y317272D01*
X921054Y316668D01*
X920751Y316063D01*
Y314854D01*
X921054Y314249D01*
X921658Y313645D01*
X922263Y313342D01*
X923170Y313040D01*
X924681D01*
X925589Y313342D01*
X926193Y313645D01*
X926798Y314249D01*
X927100Y314854D01*
Y316063D01*
X926798Y316668D01*
X926193Y317272D01*
X925589Y317575D01*
X922263Y319661D02*
X921961D01*
X921356Y319963D01*
X921054Y320265D01*
X920751Y320870D01*
Y322079D01*
X921054Y322684D01*
X921356Y322986D01*
X921961Y323288D01*
X922565D01*
X923170Y322986D01*
X924077Y322382D01*
X927100Y319358D01*
Y323591D01*
X920751Y328639D02*
Y325616D01*
X923472Y325314D01*
X923170Y325616D01*
X922868Y326523D01*
Y327430D01*
X923170Y328337D01*
X923775Y328942D01*
X924681Y329244D01*
X925286D01*
X926193Y328942D01*
X926798Y328337D01*
X927100Y327430D01*
Y326523D01*
X926798Y325616D01*
X926496Y325314D01*
X925891Y325012D01*
X855565Y303955D02*
X854961Y303652D01*
X854356Y303048D01*
X854054Y302443D01*
Y301234D01*
X854356Y300629D01*
X854961Y300025D01*
X855565Y299722D01*
X856472Y299420D01*
X857984D01*
X858891Y299722D01*
X859495Y300025D01*
X860100Y300629D01*
X860402Y301234D01*
Y302443D01*
X860100Y303048D01*
X859495Y303652D01*
X858891Y303955D01*
X855565Y306041D02*
X855263D01*
X854658Y306343D01*
X854356Y306645D01*
X854054Y307250D01*
Y308459D01*
X854356Y309064D01*
X854658Y309366D01*
X855263Y309669D01*
X855868D01*
X856472Y309366D01*
X857379Y308762D01*
X860402Y305738D01*
Y309971D01*
X854961Y315019D02*
X854356Y314717D01*
X854054Y313810D01*
Y313206D01*
X854356Y312299D01*
X855263Y311694D01*
X856775Y311392D01*
X858286D01*
X859495Y311694D01*
X860100Y312299D01*
X860402Y313206D01*
Y313508D01*
X860100Y314415D01*
X859495Y315019D01*
X858588Y315322D01*
X858286D01*
X857379Y315019D01*
X856775Y314415D01*
X856472Y313508D01*
Y313206D01*
X856775Y312299D01*
X857379Y311694D01*
X858286Y311392D01*
X864015Y345015D02*
X864619Y345317D01*
X865224Y345922D01*
X865526Y346527D01*
Y347736D01*
X865224Y348341D01*
X864619Y348945D01*
X864015Y349248D01*
X863108Y349550D01*
X861596D01*
X860689Y349248D01*
X860085Y348945D01*
X859480Y348341D01*
X859177Y347736D01*
Y346527D01*
X859480Y345922D01*
X860085Y345317D01*
X860689Y345015D01*
X864015Y342929D02*
X864317D01*
X864921Y342627D01*
X865224Y342325D01*
X865526Y341720D01*
Y340511D01*
X865224Y339906D01*
X864921Y339604D01*
X864317Y339301D01*
X863712D01*
X863108Y339604D01*
X862201Y340208D01*
X859177Y343232D01*
Y338999D01*
X865526Y333346D02*
X859177Y336369D01*
X865526Y337578D02*
Y333346D01*
X887625Y350763D02*
X887928Y350158D01*
X888532Y349554D01*
X889137Y349251D01*
X890346D01*
X890951Y349554D01*
X891555Y350158D01*
X891858Y350763D01*
X892160Y351670D01*
Y353181D01*
X891858Y354089D01*
X891555Y354693D01*
X890951Y355298D01*
X890346Y355600D01*
X889137D01*
X888532Y355298D01*
X887928Y354693D01*
X887625Y354089D01*
X885539Y350763D02*
Y350461D01*
X885237Y349856D01*
X884935Y349554D01*
X884330Y349251D01*
X883121D01*
X882516Y349554D01*
X882214Y349856D01*
X881912Y350461D01*
Y351065D01*
X882214Y351670D01*
X882819Y352577D01*
X885842Y355600D01*
X881609D01*
X878677Y349251D02*
X879584Y349554D01*
X879886Y350158D01*
Y350763D01*
X879584Y351368D01*
X878979Y351670D01*
X877770Y351972D01*
X876863Y352275D01*
X876258Y352879D01*
X875956Y353484D01*
Y354391D01*
X876258Y354995D01*
X876561Y355298D01*
X877468Y355600D01*
X878677D01*
X879584Y355298D01*
X879886Y354995D01*
X880188Y354391D01*
Y353484D01*
X879886Y352879D01*
X879281Y352275D01*
X878374Y351972D01*
X877165Y351670D01*
X876561Y351368D01*
X876258Y350763D01*
Y350158D01*
X876561Y349554D01*
X877468Y349251D01*
X878677D01*
X492835Y600467D02*
X492532Y601072D01*
X491928Y601676D01*
X491323Y601978D01*
X490114D01*
X489509Y601676D01*
X488905Y601072D01*
X488602Y600467D01*
X488300Y599560D01*
Y598048D01*
X488602Y597141D01*
X488905Y596537D01*
X489509Y595932D01*
X490114Y595630D01*
X491323D01*
X491928Y595932D01*
X492532Y596537D01*
X492835Y597141D01*
X497641Y601978D02*
X494618Y597746D01*
X499153D01*
X497641Y601978D02*
Y595630D01*
X503295Y601978D02*
X500272Y597746D01*
X504806D01*
X503295Y601978D02*
Y595630D01*
X511567Y611415D02*
X512172Y611718D01*
X512776Y612322D01*
X513078Y612927D01*
Y614136D01*
X512776Y614741D01*
X512172Y615345D01*
X511567Y615648D01*
X510660Y615950D01*
X509148D01*
X508242Y615648D01*
X507637Y615345D01*
X507032Y614741D01*
X506730Y614136D01*
Y612927D01*
X507032Y612322D01*
X507637Y611718D01*
X508242Y611415D01*
X513078Y606609D02*
X508846Y609632D01*
Y605097D01*
X513078Y606609D02*
X506730D01*
X513078Y600351D02*
Y603374D01*
X510358Y603676D01*
X510660Y603374D01*
X510962Y602467D01*
Y601560D01*
X510660Y600653D01*
X510055Y600048D01*
X509148Y599746D01*
X508544D01*
X507637Y600048D01*
X507032Y600653D01*
X506730Y601560D01*
Y602467D01*
X507032Y603374D01*
X507335Y603676D01*
X507939Y603978D01*
X476007Y611495D02*
X476612Y611798D01*
X477216Y612402D01*
X477519Y613007D01*
Y614216D01*
X477216Y614821D01*
X476612Y615425D01*
X476007Y615728D01*
X475100Y616030D01*
X473588D01*
X472682Y615728D01*
X472077Y615425D01*
X471472Y614821D01*
X471170Y614216D01*
Y613007D01*
X471472Y612402D01*
X472077Y611798D01*
X472682Y611495D01*
X477519Y606689D02*
X473286Y609712D01*
Y605177D01*
X477519Y606689D02*
X471170D01*
X476612Y600431D02*
X477216Y600733D01*
X477519Y601640D01*
Y602244D01*
X477216Y603152D01*
X476309Y603756D01*
X474798Y604058D01*
X473286D01*
X472077Y603756D01*
X471472Y603152D01*
X471170Y602244D01*
Y601942D01*
X471472Y601035D01*
X472077Y600431D01*
X472984Y600128D01*
X473286D01*
X474193Y600431D01*
X474798Y601035D01*
X475100Y601942D01*
Y602244D01*
X474798Y603152D01*
X474193Y603756D01*
X473286Y604058D01*
X307885Y670803D02*
X308188Y670198D01*
X308792Y669594D01*
X309397Y669291D01*
X310606D01*
X311211Y669594D01*
X311815Y670198D01*
X312118Y670803D01*
X312420Y671710D01*
Y673222D01*
X312118Y674128D01*
X311815Y674733D01*
X311211Y675338D01*
X310606Y675640D01*
X309397D01*
X308792Y675338D01*
X308188Y674733D01*
X307885Y674128D01*
X303078Y669291D02*
X306102Y673524D01*
X301567D01*
X303078Y669291D02*
Y675640D01*
X296216Y669291D02*
X299239Y675640D01*
X300448Y669291D02*
X296216D01*
X229265Y774943D02*
X229568Y774338D01*
X230172Y773734D01*
X230777Y773431D01*
X231986D01*
X232591Y773734D01*
X233195Y774338D01*
X233498Y774943D01*
X233800Y775850D01*
Y777362D01*
X233498Y778269D01*
X233195Y778873D01*
X232591Y779478D01*
X231986Y779780D01*
X230777D01*
X230172Y779478D01*
X229568Y778873D01*
X229265Y778269D01*
X224459Y773431D02*
X227482Y777664D01*
X222947D01*
X224459Y773431D02*
Y779780D01*
X220317Y773431D02*
X221224Y773734D01*
X221526Y774338D01*
Y774943D01*
X221224Y775548D01*
X220619Y775850D01*
X219410Y776152D01*
X218503Y776455D01*
X217898Y777059D01*
X217596Y777664D01*
Y778571D01*
X217898Y779175D01*
X218201Y779478D01*
X219107Y779780D01*
X220317D01*
X221224Y779478D01*
X221526Y779175D01*
X221828Y778571D01*
Y777664D01*
X221526Y777059D01*
X220921Y776455D01*
X220014Y776152D01*
X218805Y775850D01*
X218201Y775548D01*
X217898Y774943D01*
Y774338D01*
X218201Y773734D01*
X219107Y773431D01*
X220317D01*
X307765Y747003D02*
X308068Y746398D01*
X308672Y745794D01*
X309277Y745491D01*
X310486D01*
X311091Y745794D01*
X311695Y746398D01*
X311998Y747003D01*
X312300Y747910D01*
Y749421D01*
X311998Y750329D01*
X311695Y750933D01*
X311091Y751538D01*
X310486Y751840D01*
X309277D01*
X308672Y751538D01*
X308068Y750933D01*
X307765Y750329D01*
X302959Y745491D02*
X305982Y749724D01*
X301447D01*
X302959Y745491D02*
Y751840D01*
X296398Y747608D02*
X296701Y748515D01*
X297305Y749119D01*
X298212Y749421D01*
X298514D01*
X299421Y749119D01*
X300026Y748515D01*
X300328Y747608D01*
Y747305D01*
X300026Y746398D01*
X299421Y745794D01*
X298514Y745491D01*
X298212D01*
X297305Y745794D01*
X296701Y746398D01*
X296398Y747608D01*
Y749119D01*
X296701Y750631D01*
X297305Y751538D01*
X298212Y751840D01*
X298817D01*
X299724Y751538D01*
X300026Y750933D01*
X525560Y732547D02*
X525257Y733152D01*
X524653Y733756D01*
X524048Y734059D01*
X522839D01*
X522234Y733756D01*
X521630Y733152D01*
X521327Y732547D01*
X521025Y731640D01*
Y730128D01*
X521327Y729221D01*
X521630Y728617D01*
X522234Y728012D01*
X522839Y727710D01*
X524048D01*
X524653Y728012D01*
X525257Y728617D01*
X525560Y729221D01*
X530971Y734059D02*
X527948D01*
X527646Y731338D01*
X527948Y731640D01*
X528855Y731942D01*
X529762D01*
X530669Y731640D01*
X531274Y731035D01*
X531576Y730128D01*
Y729524D01*
X531274Y728617D01*
X530669Y728012D01*
X529762Y727710D01*
X528855D01*
X527948Y728012D01*
X527646Y728315D01*
X527343Y728919D01*
X534811Y734059D02*
X533904Y733756D01*
X533299Y732849D01*
X532997Y731338D01*
Y730431D01*
X533299Y728919D01*
X533904Y728012D01*
X534811Y727710D01*
X535415D01*
X536322Y728012D01*
X536927Y728919D01*
X537229Y730431D01*
Y731338D01*
X536927Y732849D01*
X536322Y733756D01*
X535415Y734059D01*
X534811D01*
X319495Y721117D02*
X319192Y721722D01*
X318588Y722326D01*
X317983Y722628D01*
X316774D01*
X316169Y722326D01*
X315564Y721722D01*
X315262Y721117D01*
X314960Y720210D01*
Y718698D01*
X315262Y717792D01*
X315564Y717187D01*
X316169Y716582D01*
X316774Y716280D01*
X317983D01*
X318588Y716582D01*
X319192Y717187D01*
X319495Y717792D01*
X324906Y722628D02*
X321883D01*
X321581Y719908D01*
X321883Y720210D01*
X322790Y720512D01*
X323697D01*
X324604Y720210D01*
X325208Y719605D01*
X325511Y718698D01*
Y718094D01*
X325208Y717187D01*
X324604Y716582D01*
X323697Y716280D01*
X322790D01*
X321883Y716582D01*
X321581Y716885D01*
X321278Y717489D01*
X326932Y721419D02*
X327536Y721722D01*
X328443Y722628D01*
Y716280D01*
X514895Y659373D02*
X515198Y658768D01*
X515802Y658164D01*
X516407Y657861D01*
X517616D01*
X518221Y658164D01*
X518825Y658768D01*
X519128Y659373D01*
X519430Y660280D01*
Y661792D01*
X519128Y662699D01*
X518825Y663303D01*
X518221Y663908D01*
X517616Y664210D01*
X516407D01*
X515802Y663908D01*
X515198Y663303D01*
X514895Y662699D01*
X509484Y657861D02*
X512507D01*
X512809Y660582D01*
X512507Y660280D01*
X511600Y659978D01*
X510693D01*
X509786Y660280D01*
X509182Y660885D01*
X508879Y661792D01*
Y662396D01*
X509182Y663303D01*
X509786Y663908D01*
X510693Y664210D01*
X511600D01*
X512507Y663908D01*
X512809Y663605D01*
X513112Y663001D01*
X507156Y659373D02*
Y659071D01*
X506854Y658466D01*
X506551Y658164D01*
X505947Y657861D01*
X504738D01*
X504133Y658164D01*
X503831Y658466D01*
X503528Y659071D01*
Y659675D01*
X503831Y660280D01*
X504435Y661187D01*
X507458Y664210D01*
X503226D01*
X375677Y610765D02*
X376282Y611068D01*
X376886Y611672D01*
X377188Y612277D01*
Y613486D01*
X376886Y614091D01*
X376282Y614696D01*
X375677Y614998D01*
X374770Y615300D01*
X373258D01*
X372351Y614998D01*
X371747Y614696D01*
X371142Y614091D01*
X370840Y613486D01*
Y612277D01*
X371142Y611672D01*
X371747Y611068D01*
X372351Y610765D01*
X377188Y605354D02*
Y608377D01*
X374468Y608679D01*
X374770Y608377D01*
X375072Y607470D01*
Y606563D01*
X374770Y605656D01*
X374165Y605052D01*
X373258Y604749D01*
X372654D01*
X371747Y605052D01*
X371142Y605656D01*
X370840Y606563D01*
Y607470D01*
X371142Y608377D01*
X371445Y608679D01*
X372049Y608982D01*
X377188Y602724D02*
Y599398D01*
X374770Y601212D01*
Y600305D01*
X374468Y599701D01*
X374165Y599398D01*
X373258Y599096D01*
X372654D01*
X371747Y599398D01*
X371142Y600003D01*
X370840Y600910D01*
Y601817D01*
X371142Y602724D01*
X371445Y603026D01*
X372049Y603328D01*
X436637Y610765D02*
X437242Y611068D01*
X437846Y611672D01*
X438148Y612277D01*
Y613486D01*
X437846Y614091D01*
X437242Y614696D01*
X436637Y614998D01*
X435730Y615300D01*
X434218D01*
X433312Y614998D01*
X432707Y614696D01*
X432102Y614091D01*
X431800Y613486D01*
Y612277D01*
X432102Y611672D01*
X432707Y611068D01*
X433312Y610765D01*
X438148Y605354D02*
Y608377D01*
X435428Y608679D01*
X435730Y608377D01*
X436032Y607470D01*
Y606563D01*
X435730Y605656D01*
X435125Y605052D01*
X434218Y604749D01*
X433614D01*
X432707Y605052D01*
X432102Y605656D01*
X431800Y606563D01*
Y607470D01*
X432102Y608377D01*
X432405Y608679D01*
X433009Y608982D01*
X438148Y600305D02*
X433916Y603328D01*
Y598794D01*
X438148Y600305D02*
X431800D01*
X395997Y610765D02*
X396602Y611068D01*
X397206Y611672D01*
X397509Y612277D01*
Y613486D01*
X397206Y614091D01*
X396602Y614696D01*
X395997Y614998D01*
X395090Y615300D01*
X393578D01*
X392672Y614998D01*
X392067Y614696D01*
X391462Y614091D01*
X391160Y613486D01*
Y612277D01*
X391462Y611672D01*
X392067Y611068D01*
X392672Y610765D01*
X397509Y605354D02*
Y608377D01*
X394788Y608679D01*
X395090Y608377D01*
X395392Y607470D01*
Y606563D01*
X395090Y605656D01*
X394485Y605052D01*
X393578Y604749D01*
X392974D01*
X392067Y605052D01*
X391462Y605656D01*
X391160Y606563D01*
Y607470D01*
X391462Y608377D01*
X391764Y608679D01*
X392369Y608982D01*
X397509Y601817D02*
X397206Y602724D01*
X396602Y603026D01*
X395997D01*
X395392Y602724D01*
X395090Y602119D01*
X394788Y600910D01*
X394485Y600003D01*
X393881Y599398D01*
X393276Y599096D01*
X392369D01*
X391764Y599398D01*
X391462Y599701D01*
X391160Y600608D01*
Y601817D01*
X391462Y602724D01*
X391764Y603026D01*
X392369Y603328D01*
X393276D01*
X393881Y603026D01*
X394485Y602421D01*
X394788Y601515D01*
X395090Y600305D01*
X395392Y599701D01*
X395997Y599398D01*
X396602D01*
X397206Y599701D01*
X397509Y600608D01*
Y601817D01*
X416317Y611415D02*
X416922Y611718D01*
X417526Y612322D01*
X417828Y612927D01*
Y614136D01*
X417526Y614741D01*
X416922Y615345D01*
X416317Y615648D01*
X415410Y615950D01*
X413898D01*
X412991Y615648D01*
X412387Y615345D01*
X411782Y614741D01*
X411480Y614136D01*
Y612927D01*
X411782Y612322D01*
X412387Y611718D01*
X412991Y611415D01*
X417828Y606004D02*
Y609027D01*
X415108Y609329D01*
X415410Y609027D01*
X415712Y608120D01*
Y607213D01*
X415410Y606306D01*
X414805Y605702D01*
X413898Y605399D01*
X413294D01*
X412387Y605702D01*
X411782Y606306D01*
X411480Y607213D01*
Y608120D01*
X411782Y609027D01*
X412085Y609329D01*
X412689Y609632D01*
X415712Y600048D02*
X414805Y600351D01*
X414201Y600955D01*
X413898Y601862D01*
Y602164D01*
X414201Y603071D01*
X414805Y603676D01*
X415712Y603978D01*
X416015D01*
X416922Y603676D01*
X417526Y603071D01*
X417828Y602164D01*
Y601862D01*
X417526Y600955D01*
X416922Y600351D01*
X415712Y600048D01*
X414201D01*
X412689Y600351D01*
X411782Y600955D01*
X411480Y601862D01*
Y602467D01*
X411782Y603374D01*
X412387Y603676D01*
X456957Y611415D02*
X457562Y611718D01*
X458166Y612322D01*
X458469Y612927D01*
Y614136D01*
X458166Y614741D01*
X457562Y615345D01*
X456957Y615648D01*
X456050Y615950D01*
X454538D01*
X453632Y615648D01*
X453027Y615345D01*
X452422Y614741D01*
X452120Y614136D01*
Y612927D01*
X452422Y612322D01*
X453027Y611718D01*
X453632Y611415D01*
X457562Y606004D02*
X458166Y606306D01*
X458469Y607213D01*
Y607818D01*
X458166Y608725D01*
X457259Y609329D01*
X455748Y609632D01*
X454236D01*
X453027Y609329D01*
X452422Y608725D01*
X452120Y607818D01*
Y607515D01*
X452422Y606609D01*
X453027Y606004D01*
X453934Y605702D01*
X454236D01*
X455143Y606004D01*
X455748Y606609D01*
X456050Y607515D01*
Y607818D01*
X455748Y608725D01*
X455143Y609329D01*
X454236Y609632D01*
X458469Y602497D02*
X458166Y603404D01*
X457259Y604009D01*
X455748Y604311D01*
X454841D01*
X453329Y604009D01*
X452422Y603404D01*
X452120Y602497D01*
Y601892D01*
X452422Y600985D01*
X453329Y600381D01*
X454841Y600079D01*
X455748D01*
X457259Y600381D01*
X458166Y600985D01*
X458469Y601892D01*
Y602497D01*
X843523Y626915D02*
X842918Y626612D01*
X842314Y626008D01*
X842011Y625403D01*
Y624194D01*
X842314Y623589D01*
X842918Y622985D01*
X843523Y622682D01*
X844430Y622380D01*
X845941D01*
X846849Y622682D01*
X847453Y622985D01*
X848058Y623589D01*
X848360Y624194D01*
Y625403D01*
X848058Y626008D01*
X847453Y626612D01*
X846849Y626915D01*
X842918Y632326D02*
X842314Y632024D01*
X842011Y631117D01*
Y630512D01*
X842314Y629605D01*
X843221Y629001D01*
X844732Y628698D01*
X846244D01*
X847453Y629001D01*
X848058Y629605D01*
X848360Y630512D01*
Y630815D01*
X848058Y631721D01*
X847453Y632326D01*
X846546Y632629D01*
X846244D01*
X845337Y632326D01*
X844732Y631721D01*
X844430Y630815D01*
Y630512D01*
X844732Y629605D01*
X845337Y629001D01*
X846244Y628698D01*
X843221Y634019D02*
X842918Y634624D01*
X842011Y635531D01*
X848360D01*
X887185Y575067D02*
X886882Y575672D01*
X886278Y576276D01*
X885673Y576578D01*
X884464D01*
X883859Y576276D01*
X883254Y575672D01*
X882952Y575067D01*
X882650Y574160D01*
Y572648D01*
X882952Y571741D01*
X883254Y571137D01*
X883859Y570532D01*
X884464Y570230D01*
X885673D01*
X886278Y570532D01*
X886882Y571137D01*
X887185Y571741D01*
X892596Y575672D02*
X892294Y576276D01*
X891387Y576578D01*
X890782D01*
X889875Y576276D01*
X889271Y575369D01*
X888968Y573858D01*
Y572346D01*
X889271Y571137D01*
X889875Y570532D01*
X890782Y570230D01*
X891085D01*
X891991Y570532D01*
X892596Y571137D01*
X892898Y572044D01*
Y572346D01*
X892596Y573253D01*
X891991Y573858D01*
X891085Y574160D01*
X890782D01*
X889875Y573858D01*
X889271Y573253D01*
X888968Y572346D01*
X894591Y575067D02*
Y575369D01*
X894894Y575974D01*
X895196Y576276D01*
X895801Y576578D01*
X897010D01*
X897615Y576276D01*
X897917Y575974D01*
X898219Y575369D01*
Y574765D01*
X897917Y574160D01*
X897312Y573253D01*
X894289Y570230D01*
X898521D01*
X973365Y482843D02*
X973668Y482238D01*
X974272Y481634D01*
X974877Y481331D01*
X976086D01*
X976691Y481634D01*
X977296Y482238D01*
X977598Y482843D01*
X977900Y483750D01*
Y485261D01*
X977598Y486169D01*
X977296Y486773D01*
X976691Y487378D01*
X976086Y487680D01*
X974877D01*
X974272Y487378D01*
X973668Y486773D01*
X973365Y486169D01*
X967954Y482238D02*
X968256Y481634D01*
X969163Y481331D01*
X969768D01*
X970675Y481634D01*
X971279Y482541D01*
X971582Y484052D01*
Y485564D01*
X971279Y486773D01*
X970675Y487378D01*
X969768Y487680D01*
X969465D01*
X968559Y487378D01*
X967954Y486773D01*
X967652Y485866D01*
Y485564D01*
X967954Y484657D01*
X968559Y484052D01*
X969465Y483750D01*
X969768D01*
X970675Y484052D01*
X971279Y484657D01*
X971582Y485564D01*
X965656Y481331D02*
X962331D01*
X964145Y483750D01*
X963238D01*
X962633Y484052D01*
X962331Y484355D01*
X962029Y485261D01*
Y485866D01*
X962331Y486773D01*
X962935Y487378D01*
X963842Y487680D01*
X964749D01*
X965656Y487378D01*
X965959Y487076D01*
X966261Y486471D01*
X775245Y289803D02*
X775548Y289198D01*
X776152Y288594D01*
X776757Y288291D01*
X777966D01*
X778571Y288594D01*
X779175Y289198D01*
X779478Y289803D01*
X779780Y290710D01*
Y292222D01*
X779478Y293129D01*
X779175Y293733D01*
X778571Y294338D01*
X777966Y294640D01*
X776757D01*
X776152Y294338D01*
X775548Y293733D01*
X775245Y293129D01*
X769834Y289198D02*
X770136Y288594D01*
X771043Y288291D01*
X771648D01*
X772555Y288594D01*
X773159Y289501D01*
X773462Y291012D01*
Y292524D01*
X773159Y293733D01*
X772555Y294338D01*
X771648Y294640D01*
X771346D01*
X770439Y294338D01*
X769834Y293733D01*
X769532Y292826D01*
Y292524D01*
X769834Y291617D01*
X770439Y291012D01*
X771346Y290710D01*
X771648D01*
X772555Y291012D01*
X773159Y291617D01*
X773462Y292524D01*
X765118Y288291D02*
X768141Y292524D01*
X763606D01*
X765118Y288291D02*
Y294640D01*
X583216Y541322D02*
X583518Y540718D01*
X584123Y540113D01*
X584728Y539811D01*
X585937D01*
X586541Y540113D01*
X587146Y540718D01*
X587448Y541322D01*
X587751Y542229D01*
Y543741D01*
X587448Y544648D01*
X587146Y545252D01*
X586541Y545857D01*
X585937Y546160D01*
X584728D01*
X584123Y545857D01*
X583518Y545252D01*
X583216Y544648D01*
X577804Y540718D02*
X578107Y540113D01*
X579014Y539811D01*
X579618D01*
X580525Y540113D01*
X581130Y541020D01*
X581432Y542532D01*
Y544043D01*
X581130Y545252D01*
X580525Y545857D01*
X579618Y546160D01*
X579316D01*
X578409Y545857D01*
X577804Y545252D01*
X577502Y544346D01*
Y544043D01*
X577804Y543136D01*
X578409Y542532D01*
X579316Y542229D01*
X579618D01*
X580525Y542532D01*
X581130Y543136D01*
X581432Y544043D01*
X572484Y539811D02*
X575507D01*
X575809Y542532D01*
X575507Y542229D01*
X574600Y541927D01*
X573693D01*
X572786Y542229D01*
X572182Y542834D01*
X571879Y543741D01*
Y544346D01*
X572182Y545252D01*
X572786Y545857D01*
X573693Y546160D01*
X574600D01*
X575507Y545857D01*
X575809Y545555D01*
X576112Y544950D01*
X332983Y564605D02*
X332378Y564302D01*
X331774Y563698D01*
X331471Y563093D01*
Y561884D01*
X331774Y561279D01*
X332378Y560675D01*
X332983Y560372D01*
X333890Y560070D01*
X335401D01*
X336309Y560372D01*
X336913Y560675D01*
X337518Y561279D01*
X337820Y561884D01*
Y563093D01*
X337518Y563698D01*
X336913Y564302D01*
X336309Y564605D01*
X332378Y570016D02*
X331774Y569714D01*
X331471Y568807D01*
Y568202D01*
X331774Y567295D01*
X332681Y566691D01*
X334192Y566388D01*
X335704D01*
X336913Y566691D01*
X337518Y567295D01*
X337820Y568202D01*
Y568504D01*
X337518Y569411D01*
X336913Y570016D01*
X336006Y570318D01*
X335704D01*
X334797Y570016D01*
X334192Y569411D01*
X333890Y568504D01*
Y568202D01*
X334192Y567295D01*
X334797Y566691D01*
X335704Y566388D01*
X331471Y573221D02*
X331774Y572314D01*
X332378Y572011D01*
X332983D01*
X333588Y572314D01*
X333890Y572918D01*
X334192Y574128D01*
X334495Y575034D01*
X335099Y575639D01*
X335704Y575942D01*
X336611D01*
X337215Y575639D01*
X337518Y575337D01*
X337820Y574430D01*
Y573221D01*
X337518Y572314D01*
X337215Y572011D01*
X336611Y571709D01*
X335704D01*
X335099Y572011D01*
X334495Y572616D01*
X334192Y573523D01*
X333890Y574732D01*
X333588Y575337D01*
X332983Y575639D01*
X332378D01*
X331774Y575337D01*
X331471Y574430D01*
Y573221D01*
X480061Y618490D02*
X486410D01*
X480061D02*
Y622420D01*
X483085Y618490D02*
Y620908D01*
X480061Y623145D02*
X486410D01*
X480061D02*
Y625866D01*
X480364Y626773D01*
X480666Y627076D01*
X481271Y627378D01*
X481875D01*
X482480Y627076D01*
X482782Y626773D01*
X483085Y625866D01*
Y623145D02*
Y625866D01*
X483387Y626773D01*
X483689Y627076D01*
X484294Y627378D01*
X485201D01*
X485806Y627076D01*
X486108Y626773D01*
X486410Y625866D01*
Y623145D01*
X481271Y628799D02*
X480968Y629403D01*
X480061Y630310D01*
X486410D01*
X1035966Y239243D02*
X1040804D01*
X1041711Y238941D01*
X1042013Y238638D01*
X1042315Y238034D01*
Y237429D01*
X1042013Y236824D01*
X1041711Y236522D01*
X1040804Y236220D01*
X1040199D01*
X1037478Y241178D02*
X1037176D01*
X1036571Y241480D01*
X1036269Y241782D01*
X1035966Y242387D01*
Y243596D01*
X1036269Y244201D01*
X1036571Y244503D01*
X1037176Y244806D01*
X1037780D01*
X1038385Y244503D01*
X1039292Y243899D01*
X1042315Y240875D01*
Y245108D01*
X695173Y758799D02*
Y753961D01*
X694871Y753055D01*
X694568Y752752D01*
X693964Y752450D01*
X693359D01*
X692755Y752752D01*
X692452Y753055D01*
X692150Y753961D01*
Y754566D01*
X697410Y758799D02*
X700736D01*
X698922Y756380D01*
X699829D01*
X700433Y756078D01*
X700736Y755775D01*
X701038Y754868D01*
Y754264D01*
X700736Y753357D01*
X700131Y752752D01*
X699224Y752450D01*
X698317D01*
X697410Y752752D01*
X697108Y753055D01*
X696805Y753659D01*
X759461Y194310D02*
X765810D01*
X759461D02*
Y197031D01*
X759764Y197938D01*
X760066Y198240D01*
X760671Y198542D01*
X761275D01*
X761880Y198240D01*
X762182Y197938D01*
X762485Y197031D01*
Y194310D01*
Y196426D02*
X765810Y198542D01*
X760671Y199963D02*
X760368Y200568D01*
X759461Y201475D01*
X765810D01*
X817881Y203617D02*
X824230D01*
X817881D02*
Y206338D01*
X818184Y207245D01*
X818486Y207547D01*
X819091Y207849D01*
X819695D01*
X820300Y207547D01*
X820602Y207245D01*
X820905Y206338D01*
Y203617D01*
Y205733D02*
X824230Y207849D01*
X819393Y209573D02*
X819091D01*
X818486Y209875D01*
X818184Y210177D01*
X817881Y210782D01*
Y211991D01*
X818184Y212596D01*
X818486Y212898D01*
X819091Y213200D01*
X819695D01*
X820300Y212898D01*
X821207Y212293D01*
X824230Y209270D01*
Y213503D01*
X700623Y248921D02*
Y255270D01*
Y248921D02*
X697902D01*
X696995Y249224D01*
X696693Y249526D01*
X696391Y250131D01*
Y250735D01*
X696693Y251340D01*
X696995Y251642D01*
X697902Y251945D01*
X700623D01*
X698507D02*
X696391Y255270D01*
X691342Y249828D02*
X691644Y249224D01*
X692551Y248921D01*
X693156D01*
X694063Y249224D01*
X694667Y250131D01*
X694970Y251642D01*
Y253154D01*
X694667Y254363D01*
X694063Y254968D01*
X693156Y255270D01*
X692853D01*
X691946Y254968D01*
X691342Y254363D01*
X691040Y253456D01*
Y253154D01*
X691342Y252247D01*
X691946Y251642D01*
X692853Y251340D01*
X693156D01*
X694063Y251642D01*
X694667Y252247D01*
X694970Y253154D01*
X506095Y319406D02*
Y325755D01*
Y319406D02*
X503374D01*
X502467Y319709D01*
X502165Y320011D01*
X501863Y320616D01*
Y321220D01*
X502165Y321825D01*
X502467Y322127D01*
X503374Y322430D01*
X506095D01*
X503979D02*
X501863Y325755D01*
X496209Y319406D02*
X499232Y325755D01*
X500442Y319406D02*
X496209D01*
X866139Y187960D02*
X859790D01*
X866139D02*
Y185239D01*
X865836Y184332D01*
X865534Y184030D01*
X864929Y183728D01*
X864325D01*
X863720Y184030D01*
X863418Y184332D01*
X863115Y185239D01*
Y187960D01*
Y185844D02*
X859790Y183728D01*
X866139Y178679D02*
Y181702D01*
X863418Y182005D01*
X863720Y181702D01*
X864022Y180795D01*
Y179888D01*
X863720Y178981D01*
X863115Y178377D01*
X862208Y178074D01*
X861604D01*
X860697Y178377D01*
X860092Y178981D01*
X859790Y179888D01*
Y180795D01*
X860092Y181702D01*
X860395Y182005D01*
X860999Y182307D01*
X935988Y349250D02*
X929640D01*
X935988D02*
Y346529D01*
X935686Y345622D01*
X935384Y345320D01*
X934779Y345018D01*
X934175D01*
X933570Y345320D01*
X933268Y345622D01*
X932965Y346529D01*
Y349250D01*
Y347134D02*
X929640Y345018D01*
X934779Y343597D02*
X935082Y342992D01*
X935988Y342085D01*
X929640D01*
X933872Y335011D02*
X932965Y335313D01*
X932361Y335918D01*
X932058Y336825D01*
Y337127D01*
X932361Y338034D01*
X932965Y338639D01*
X933872Y338941D01*
X934175D01*
X935082Y338639D01*
X935686Y338034D01*
X935988Y337127D01*
Y336825D01*
X935686Y335918D01*
X935082Y335313D01*
X933872Y335011D01*
X932361D01*
X930849Y335313D01*
X929942Y335918D01*
X929640Y336825D01*
Y337430D01*
X929942Y338336D01*
X930547Y338639D01*
X315350Y646429D02*
Y640080D01*
Y646429D02*
X318071D01*
X318978Y646126D01*
X319280Y645824D01*
X319582Y645219D01*
Y644615D01*
X319280Y644010D01*
X318978Y643708D01*
X318071Y643405D01*
X315350D01*
X317466D02*
X319582Y640080D01*
X321306Y644917D02*
Y645219D01*
X321608Y645824D01*
X321910Y646126D01*
X322515Y646429D01*
X323724D01*
X324329Y646126D01*
X324631Y645824D01*
X324933Y645219D01*
Y644615D01*
X324631Y644010D01*
X324026Y643103D01*
X321003Y640080D01*
X325236D01*
X328470Y646429D02*
X327563Y646126D01*
X326959Y645219D01*
X326656Y643708D01*
Y642801D01*
X326959Y641289D01*
X327563Y640382D01*
X328470Y640080D01*
X329075D01*
X329982Y640382D01*
X330587Y641289D01*
X330889Y642801D01*
Y643708D01*
X330587Y645219D01*
X329982Y646126D01*
X329075Y646429D01*
X328470D01*
X314960Y665479D02*
Y659130D01*
Y665479D02*
X317681D01*
X318588Y665176D01*
X318890Y664874D01*
X319192Y664269D01*
Y663665D01*
X318890Y663060D01*
X318588Y662758D01*
X317681Y662455D01*
X314960D01*
X317076D02*
X319192Y659130D01*
X320915Y663967D02*
Y664269D01*
X321218Y664874D01*
X321520Y665176D01*
X322125Y665479D01*
X323334D01*
X323939Y665176D01*
X324241Y664874D01*
X324543Y664269D01*
Y663665D01*
X324241Y663060D01*
X323636Y662153D01*
X320613Y659130D01*
X324846D01*
X326267Y664269D02*
X326871Y664572D01*
X327778Y665479D01*
Y659130D01*
X389892Y772650D02*
X396240D01*
X389892D02*
Y775371D01*
X390194Y776278D01*
X390496Y776580D01*
X391101Y776882D01*
X391705D01*
X392310Y776580D01*
X392612Y776278D01*
X392915Y775371D01*
Y772650D01*
Y774766D02*
X396240Y776882D01*
X391403Y778605D02*
X391101D01*
X390496Y778908D01*
X390194Y779210D01*
X389892Y779815D01*
Y781024D01*
X390194Y781629D01*
X390496Y781931D01*
X391101Y782233D01*
X391705D01*
X392310Y781931D01*
X393217Y781326D01*
X396240Y778303D01*
Y782536D01*
X391403Y784259D02*
X391101D01*
X390496Y784561D01*
X390194Y784864D01*
X389892Y785468D01*
Y786677D01*
X390194Y787282D01*
X390496Y787584D01*
X391101Y787887D01*
X391705D01*
X392310Y787584D01*
X393217Y786980D01*
X396240Y783957D01*
Y788189D01*
X403862Y773040D02*
X410210D01*
X403862D02*
Y775761D01*
X404164Y776668D01*
X404466Y776970D01*
X405071Y777272D01*
X405675D01*
X406280Y776970D01*
X406582Y776668D01*
X406885Y775761D01*
Y773040D01*
Y775156D02*
X410210Y777272D01*
X405373Y778996D02*
X405071D01*
X404466Y779298D01*
X404164Y779600D01*
X403862Y780205D01*
Y781414D01*
X404164Y782019D01*
X404466Y782321D01*
X405071Y782623D01*
X405675D01*
X406280Y782321D01*
X407187Y781716D01*
X410210Y778693D01*
Y782926D01*
X403862Y784951D02*
Y788277D01*
X406280Y786463D01*
Y787370D01*
X406582Y787974D01*
X406885Y788277D01*
X407792Y788579D01*
X408396D01*
X409303Y788277D01*
X409908Y787672D01*
X410210Y786765D01*
Y785858D01*
X409908Y784951D01*
X409605Y784649D01*
X409001Y784346D01*
X417831Y773040D02*
X424180D01*
X417831D02*
Y775761D01*
X418134Y776668D01*
X418436Y776970D01*
X419041Y777272D01*
X419645D01*
X420250Y776970D01*
X420552Y776668D01*
X420855Y775761D01*
Y773040D01*
Y775156D02*
X424180Y777272D01*
X419343Y778996D02*
X419041D01*
X418436Y779298D01*
X418134Y779600D01*
X417831Y780205D01*
Y781414D01*
X418134Y782019D01*
X418436Y782321D01*
X419041Y782623D01*
X419645D01*
X420250Y782321D01*
X421157Y781716D01*
X424180Y778693D01*
Y782926D01*
X417831Y787370D02*
X422064Y784346D01*
Y788881D01*
X417831Y787370D02*
X424180D01*
X312420Y612141D02*
Y618490D01*
Y612141D02*
X309699D01*
X308792Y612444D01*
X308490Y612746D01*
X308188Y613351D01*
Y613955D01*
X308490Y614560D01*
X308792Y614862D01*
X309699Y615165D01*
X312420D01*
X310304D02*
X308188Y618490D01*
X306465Y613653D02*
Y613351D01*
X306162Y612746D01*
X305860Y612444D01*
X305255Y612141D01*
X304046D01*
X303441Y612444D01*
X303139Y612746D01*
X302837Y613351D01*
Y613955D01*
X303139Y614560D01*
X303744Y615467D01*
X306767Y618490D01*
X302534D01*
X297486Y612141D02*
X300509D01*
X300811Y614862D01*
X300509Y614560D01*
X299602Y614258D01*
X298695D01*
X297788Y614560D01*
X297183Y615165D01*
X296881Y616072D01*
Y616676D01*
X297183Y617583D01*
X297788Y618188D01*
X298695Y618490D01*
X299602D01*
X300509Y618188D01*
X300811Y617886D01*
X301113Y617281D01*
X273440Y601688D02*
Y595340D01*
Y601688D02*
X276161D01*
X277068Y601386D01*
X277370Y601084D01*
X277672Y600479D01*
Y599875D01*
X277370Y599270D01*
X277068Y598968D01*
X276161Y598665D01*
X273440D01*
X275556D02*
X277672Y595340D01*
X279396Y600177D02*
Y600479D01*
X279698Y601084D01*
X280000Y601386D01*
X280605Y601688D01*
X281814D01*
X282419Y601386D01*
X282721Y601084D01*
X283023Y600479D01*
Y599875D01*
X282721Y599270D01*
X282116Y598363D01*
X279093Y595340D01*
X283326D01*
X288374Y600782D02*
X288072Y601386D01*
X287165Y601688D01*
X286560D01*
X285653Y601386D01*
X285049Y600479D01*
X284746Y598968D01*
Y597456D01*
X285049Y596247D01*
X285653Y595642D01*
X286560Y595340D01*
X286863D01*
X287770Y595642D01*
X288374Y596247D01*
X288677Y597154D01*
Y597456D01*
X288374Y598363D01*
X287770Y598968D01*
X286863Y599270D01*
X286560D01*
X285653Y598968D01*
X285049Y598363D01*
X284746Y597456D01*
X273440Y788669D02*
Y782320D01*
Y788669D02*
X276161D01*
X277068Y788366D01*
X277370Y788064D01*
X277672Y787459D01*
Y786855D01*
X277370Y786250D01*
X277068Y785948D01*
X276161Y785645D01*
X273440D01*
X275556D02*
X277672Y782320D01*
X279396Y787157D02*
Y787459D01*
X279698Y788064D01*
X280000Y788366D01*
X280605Y788669D01*
X281814D01*
X282419Y788366D01*
X282721Y788064D01*
X283023Y787459D01*
Y786855D01*
X282721Y786250D01*
X282116Y785343D01*
X279093Y782320D01*
X283326D01*
X288979Y788669D02*
X285956Y782320D01*
X284746Y788669D02*
X288979D01*
X312420Y688341D02*
Y694690D01*
Y688341D02*
X309699D01*
X308792Y688644D01*
X308490Y688946D01*
X308188Y689551D01*
Y690155D01*
X308490Y690760D01*
X308792Y691062D01*
X309699Y691365D01*
X312420D01*
X310304D02*
X308188Y694690D01*
X306465Y689853D02*
Y689551D01*
X306162Y688946D01*
X305860Y688644D01*
X305255Y688341D01*
X304046D01*
X303441Y688644D01*
X303139Y688946D01*
X302837Y689551D01*
Y690155D01*
X303139Y690760D01*
X303744Y691667D01*
X306767Y694690D01*
X302534D01*
X299602Y688341D02*
X300509Y688644D01*
X300811Y689248D01*
Y689853D01*
X300509Y690458D01*
X299904Y690760D01*
X298695Y691062D01*
X297788Y691365D01*
X297183Y691969D01*
X296881Y692574D01*
Y693481D01*
X297183Y694085D01*
X297486Y694388D01*
X298393Y694690D01*
X299602D01*
X300509Y694388D01*
X300811Y694085D01*
X301113Y693481D01*
Y692574D01*
X300811Y691969D01*
X300207Y691365D01*
X299300Y691062D01*
X298090Y690760D01*
X297486Y690458D01*
X297183Y689853D01*
Y689248D01*
X297486Y688644D01*
X298393Y688341D01*
X299602D01*
X312420Y726441D02*
Y732790D01*
Y726441D02*
X309699D01*
X308792Y726744D01*
X308490Y727046D01*
X308188Y727651D01*
Y728255D01*
X308490Y728860D01*
X308792Y729162D01*
X309699Y729465D01*
X312420D01*
X310304D02*
X308188Y732790D01*
X306465Y727953D02*
Y727651D01*
X306162Y727046D01*
X305860Y726744D01*
X305255Y726441D01*
X304046D01*
X303441Y726744D01*
X303139Y727046D01*
X302837Y727651D01*
Y728255D01*
X303139Y728860D01*
X303744Y729767D01*
X306767Y732790D01*
X302534D01*
X297183Y728558D02*
X297486Y729465D01*
X298090Y730069D01*
X298997Y730371D01*
X299300D01*
X300207Y730069D01*
X300811Y729465D01*
X301113Y728558D01*
Y728255D01*
X300811Y727348D01*
X300207Y726744D01*
X299300Y726441D01*
X298997D01*
X298090Y726744D01*
X297486Y727348D01*
X297183Y728558D01*
Y730069D01*
X297486Y731581D01*
X298090Y732488D01*
X298997Y732790D01*
X299602D01*
X300509Y732488D01*
X300811Y731883D01*
X482602Y698083D02*
X488950D01*
X482602D02*
Y700804D01*
X482904Y701711D01*
X483206Y702013D01*
X483811Y702315D01*
X484415D01*
X485020Y702013D01*
X485322Y701711D01*
X485625Y700804D01*
Y698083D01*
Y700199D02*
X488950Y702315D01*
X482602Y704341D02*
Y707666D01*
X485020Y705852D01*
Y706759D01*
X485322Y707364D01*
X485625Y707666D01*
X486532Y707969D01*
X487136D01*
X488043Y707666D01*
X488648Y707062D01*
X488950Y706155D01*
Y705248D01*
X488648Y704341D01*
X488345Y704038D01*
X487741Y703736D01*
X482602Y711203D02*
X482904Y710296D01*
X483811Y709692D01*
X485322Y709389D01*
X486229D01*
X487741Y709692D01*
X488648Y710296D01*
X488950Y711203D01*
Y711808D01*
X488648Y712715D01*
X487741Y713319D01*
X486229Y713622D01*
X485322D01*
X483811Y713319D01*
X482904Y712715D01*
X482602Y711808D01*
Y711203D01*
X1043941Y737453D02*
X1050290D01*
X1043941D02*
Y740174D01*
X1044244Y741081D01*
X1044546Y741383D01*
X1045151Y741685D01*
X1045755D01*
X1046360Y741383D01*
X1046662Y741081D01*
X1046965Y740174D01*
Y737453D01*
Y739569D02*
X1050290Y741685D01*
X1043941Y743711D02*
Y747036D01*
X1046360Y745222D01*
Y746129D01*
X1046662Y746734D01*
X1046965Y747036D01*
X1047872Y747338D01*
X1048476D01*
X1049383Y747036D01*
X1049988Y746432D01*
X1050290Y745525D01*
Y744618D01*
X1049988Y743711D01*
X1049686Y743408D01*
X1049081Y743106D01*
X1045453Y749062D02*
X1045151D01*
X1044546Y749364D01*
X1044244Y749666D01*
X1043941Y750271D01*
Y751480D01*
X1044244Y752085D01*
X1044546Y752387D01*
X1045151Y752690D01*
X1045755D01*
X1046360Y752387D01*
X1047267Y751783D01*
X1050290Y748759D01*
Y752992D01*
X1043941Y712470D02*
X1050290D01*
X1043941D02*
Y715191D01*
X1044244Y716098D01*
X1044546Y716400D01*
X1045151Y716702D01*
X1045755D01*
X1046360Y716400D01*
X1046662Y716098D01*
X1046965Y715191D01*
Y712470D01*
Y714586D02*
X1050290Y716702D01*
X1043941Y718728D02*
Y722053D01*
X1046360Y720239D01*
Y721146D01*
X1046662Y721751D01*
X1046965Y722053D01*
X1047872Y722356D01*
X1048476D01*
X1049383Y722053D01*
X1049988Y721449D01*
X1050290Y720542D01*
Y719635D01*
X1049988Y718728D01*
X1049686Y718426D01*
X1049081Y718123D01*
X1043941Y724381D02*
Y727707D01*
X1046360Y725893D01*
Y726800D01*
X1046662Y727404D01*
X1046965Y727707D01*
X1047872Y728009D01*
X1048476D01*
X1049383Y727707D01*
X1049988Y727102D01*
X1050290Y726195D01*
Y725288D01*
X1049988Y724381D01*
X1049686Y724079D01*
X1049081Y723776D01*
X981293Y554989D02*
Y548640D01*
Y554989D02*
X984014D01*
X984921Y554686D01*
X985223Y554384D01*
X985525Y553779D01*
Y553175D01*
X985223Y552570D01*
X984921Y552268D01*
X984014Y551965D01*
X981293D01*
X983409D02*
X985525Y548640D01*
X987551Y554989D02*
X990876D01*
X989062Y552570D01*
X989969D01*
X990574Y552268D01*
X990876Y551965D01*
X991179Y551058D01*
Y550454D01*
X990876Y549547D01*
X990272Y548942D01*
X989365Y548640D01*
X988458D01*
X987551Y548942D01*
X987248Y549244D01*
X986946Y549849D01*
X995623Y554989D02*
X992599Y550756D01*
X997134D01*
X995623Y554989D02*
Y548640D01*
X980440Y535938D02*
Y529590D01*
Y535938D02*
X983161D01*
X984068Y535636D01*
X984370Y535334D01*
X984672Y534729D01*
Y534125D01*
X984370Y533520D01*
X984068Y533218D01*
X983161Y532915D01*
X980440D01*
X982556D02*
X984672Y529590D01*
X986698Y535938D02*
X990023D01*
X988209Y533520D01*
X989116D01*
X989721Y533218D01*
X990023Y532915D01*
X990326Y532008D01*
Y531404D01*
X990023Y530497D01*
X989419Y529892D01*
X988512Y529590D01*
X987605D01*
X986698Y529892D01*
X986395Y530195D01*
X986093Y530799D01*
X995374Y535938D02*
X992351D01*
X992049Y533218D01*
X992351Y533520D01*
X993258Y533822D01*
X994165D01*
X995072Y533520D01*
X995677Y532915D01*
X995979Y532008D01*
Y531404D01*
X995677Y530497D01*
X995072Y529892D01*
X994165Y529590D01*
X993258D01*
X992351Y529892D01*
X992049Y530195D01*
X991747Y530799D01*
X977900Y501651D02*
Y508000D01*
Y501651D02*
X975179D01*
X974272Y501954D01*
X973970Y502256D01*
X973668Y502861D01*
Y503465D01*
X973970Y504070D01*
X974272Y504372D01*
X975179Y504675D01*
X977900D01*
X975784D02*
X973668Y508000D01*
X971642Y501651D02*
X968317D01*
X970131Y504070D01*
X969224D01*
X968619Y504372D01*
X968317Y504675D01*
X968014Y505582D01*
Y506186D01*
X968317Y507093D01*
X968921Y507698D01*
X969828Y508000D01*
X970735D01*
X971642Y507698D01*
X971945Y507396D01*
X972247Y506791D01*
X962966Y502558D02*
X963268Y501954D01*
X964175Y501651D01*
X964780D01*
X965687Y501954D01*
X966291Y502861D01*
X966593Y504372D01*
Y505884D01*
X966291Y507093D01*
X965687Y507698D01*
X964780Y508000D01*
X964477D01*
X963570Y507698D01*
X962966Y507093D01*
X962663Y506186D01*
Y505884D01*
X962966Y504977D01*
X963570Y504372D01*
X964477Y504070D01*
X964780D01*
X965687Y504372D01*
X966291Y504977D01*
X966593Y505884D01*
M02*
