G04*
G04 #@! TF.GenerationSoftware,Altium Limited,Altium Designer,24.0.1 (36)*
G04*
G04 Layer_Color=16711935*
%FSLAX44Y44*%
%MOMM*%
G71*
G04*
G04 #@! TF.SameCoordinates,043D453D-7082-4CC0-88CE-E1747F565096*
G04*
G04*
G04 #@! TF.FilePolarity,Negative*
G04*
G01*
G75*
%ADD26R,0.6587X0.8121*%
%ADD55R,1.1581X1.0121*%
%ADD56R,1.0121X1.1581*%
%ADD57R,0.8121X0.7581*%
%ADD60R,0.6153X0.5725*%
%ADD78R,0.8121X0.6587*%
%ADD84R,0.8000X0.9000*%
%ADD86R,0.8770X0.9770*%
%ADD124C,2.5270*%
%ADD125C,3.3770*%
G04:AMPARAMS|DCode=126|XSize=1.527mm|YSize=1.527mm|CornerRadius=0.4135mm|HoleSize=0mm|Usage=FLASHONLY|Rotation=90.000|XOffset=0mm|YOffset=0mm|HoleType=Round|Shape=RoundedRectangle|*
%AMROUNDEDRECTD126*
21,1,1.5270,0.7000,0,0,90.0*
21,1,0.7000,1.5270,0,0,90.0*
1,1,0.8270,0.3500,0.3500*
1,1,0.8270,0.3500,-0.3500*
1,1,0.8270,-0.3500,-0.3500*
1,1,0.8270,-0.3500,0.3500*
%
%ADD126ROUNDEDRECTD126*%
%ADD127C,1.5270*%
%ADD128C,1.6470*%
%ADD129C,0.5020*%
%ADD130C,0.6520*%
%ADD131C,0.6500*%
G04:AMPARAMS|DCode=132|XSize=1mm|YSize=2.1mm|CornerRadius=0.5mm|HoleSize=0mm|Usage=FLASHONLY|Rotation=90.000|XOffset=0mm|YOffset=0mm|HoleType=Round|Shape=RoundedRectangle|*
%AMROUNDEDRECTD132*
21,1,1.0000,1.1000,0,0,90.0*
21,1,0.0000,2.1000,0,0,90.0*
1,1,1.0000,0.5500,0.0000*
1,1,1.0000,0.5500,0.0000*
1,1,1.0000,-0.5500,0.0000*
1,1,1.0000,-0.5500,0.0000*
%
%ADD132ROUNDEDRECTD132*%
G04:AMPARAMS|DCode=133|XSize=1mm|YSize=1.8mm|CornerRadius=0.5mm|HoleSize=0mm|Usage=FLASHONLY|Rotation=90.000|XOffset=0mm|YOffset=0mm|HoleType=Round|Shape=RoundedRectangle|*
%AMROUNDEDRECTD133*
21,1,1.0000,0.8000,0,0,90.0*
21,1,0.0000,1.8000,0,0,90.0*
1,1,1.0000,0.4000,0.0000*
1,1,1.0000,0.4000,0.0000*
1,1,1.0000,-0.4000,0.0000*
1,1,1.0000,-0.4000,0.0000*
%
%ADD133ROUNDEDRECTD133*%
G04:AMPARAMS|DCode=167|XSize=0.8mm|YSize=0.9mm|CornerRadius=0mm|HoleSize=0mm|Usage=FLASHONLY|Rotation=45.000|XOffset=0mm|YOffset=0mm|HoleType=Round|Shape=Rectangle|*
%AMROTATEDRECTD167*
4,1,4,0.0354,-0.6010,-0.6010,0.0354,-0.0354,0.6010,0.6010,-0.0354,0.0354,-0.6010,0.0*
%
%ADD167ROTATEDRECTD167*%

%ADD168R,0.5000X0.4000*%
%ADD169R,0.4000X0.5000*%
%ADD170R,0.4500X0.6750*%
%ADD171R,0.8000X0.6000*%
%ADD172R,0.6596X0.6158*%
%ADD173R,0.6158X0.6596*%
D26*
X184586Y236220D02*
D03*
X198120D02*
D03*
X107116Y548640D02*
D03*
X120650D02*
D03*
X165517Y378460D02*
D03*
X151983D02*
D03*
D55*
X121270Y403860D02*
D03*
X137810D02*
D03*
X393700Y688340D02*
D03*
X377160D02*
D03*
X393730Y665480D02*
D03*
X377190D02*
D03*
X393700Y709930D02*
D03*
X377160D02*
D03*
X219710Y298450D02*
D03*
X203170D02*
D03*
X356870Y441960D02*
D03*
X340330D02*
D03*
D56*
X467360Y170800D02*
D03*
Y187340D02*
D03*
Y210820D02*
D03*
Y227360D02*
D03*
D57*
X447040Y174070D02*
D03*
Y186610D02*
D03*
Y212170D02*
D03*
Y224710D02*
D03*
D60*
X708660Y436880D02*
D03*
X717231D02*
D03*
X708660Y453390D02*
D03*
X717231D02*
D03*
D78*
X218440Y248920D02*
D03*
Y235386D02*
D03*
D84*
Y279010D02*
D03*
Y262010D02*
D03*
D86*
X309310Y440690D02*
D03*
X321310D02*
D03*
D124*
X175831Y766070D02*
D03*
Y608070D02*
D03*
D125*
X145331Y744220D02*
D03*
Y629920D02*
D03*
D126*
X234231Y642620D02*
D03*
D127*
Y668020D02*
D03*
Y693420D02*
D03*
Y718820D02*
D03*
X208831Y731520D02*
D03*
Y706120D02*
D03*
Y680720D02*
D03*
Y655320D02*
D03*
D128*
X282531Y632420D02*
D03*
Y741720D02*
D03*
Y657820D02*
D03*
Y716320D02*
D03*
D129*
X638070Y220131D02*
D03*
D130*
X611200Y193261D02*
D03*
D131*
X1020060Y263850D02*
D03*
Y206050D02*
D03*
D132*
X1015060Y278150D02*
D03*
Y191750D02*
D03*
D133*
X1056860Y278150D02*
D03*
Y191750D02*
D03*
D167*
X612140Y218440D02*
D03*
X622747Y229047D02*
D03*
D168*
X651510Y411100D02*
D03*
Y419100D02*
D03*
X648970Y397320D02*
D03*
Y405320D02*
D03*
X589280Y504380D02*
D03*
Y496380D02*
D03*
X632460Y397130D02*
D03*
Y405130D02*
D03*
X607060Y503300D02*
D03*
Y495300D02*
D03*
X671830Y473900D02*
D03*
Y465900D02*
D03*
X679450Y496570D02*
D03*
Y504570D02*
D03*
X638810Y416370D02*
D03*
Y424370D02*
D03*
D169*
X643890Y461010D02*
D03*
X651890D02*
D03*
X643890Y449580D02*
D03*
X651890D02*
D03*
X629730Y436880D02*
D03*
X637730D02*
D03*
X659130Y426720D02*
D03*
X651130D02*
D03*
X629920Y447040D02*
D03*
X637920D02*
D03*
X662940Y439420D02*
D03*
X654940D02*
D03*
D170*
X588010Y483870D02*
D03*
X578760D02*
D03*
D171*
X181670Y252120D02*
D03*
Y271120D02*
D03*
X201870Y261620D02*
D03*
D172*
X577397Y448310D02*
D03*
X585922D02*
D03*
D173*
X673100Y444953D02*
D03*
Y436427D02*
D03*
M02*
