G04*
G04 #@! TF.GenerationSoftware,Altium Limited,Altium Designer,24.0.1 (36)*
G04*
G04 Layer_Color=32768*
%FSLAX44Y44*%
%MOMM*%
G71*
G04*
G04 #@! TF.SameCoordinates,043D453D-7082-4CC0-88CE-E1747F565096*
G04*
G04*
G04 #@! TF.FilePolarity,Positive*
G04*
G01*
G75*
%ADD12C,0.1000*%
%ADD14C,0.2000*%
D12*
X306560Y435940D02*
X324060D01*
X306560Y445440D02*
X324060D01*
X306560Y435940D02*
Y445440D01*
X324060Y435940D02*
Y445440D01*
D14*
X213940Y262010D02*
Y279010D01*
Y262010D02*
X222940D01*
Y279010D01*
X213940D02*
X222940D01*
X183353Y232220D02*
X199353D01*
Y240220D01*
X183353D02*
X199353D01*
X183353Y232220D02*
Y240220D01*
X214440Y234153D02*
Y250153D01*
Y234153D02*
X222440D01*
Y250153D01*
X214440D02*
X222440D01*
X717946Y434380D02*
Y439380D01*
X707946Y434380D02*
X717946D01*
X707946D02*
Y439380D01*
X717946D01*
X451040Y172340D02*
Y188340D01*
X443040D02*
X451040D01*
X443040Y172340D02*
Y188340D01*
Y172340D02*
X451040D01*
X471360Y171070D02*
Y187070D01*
X463360D02*
X471360D01*
X463360Y171070D02*
Y187070D01*
Y171070D02*
X471360D01*
X451040Y210440D02*
Y226440D01*
X443040D02*
X451040D01*
X443040Y210440D02*
Y226440D01*
Y210440D02*
X451040D01*
X471360Y211090D02*
Y227090D01*
X463360D02*
X471360D01*
X463360Y211090D02*
Y227090D01*
Y211090D02*
X471360D01*
X614615Y214551D02*
X626636Y226572D01*
X620272Y232936D02*
X626636Y226572D01*
X608251Y220915D02*
X620272Y232936D01*
X608251Y220915D02*
X614615Y214551D01*
X121540Y399860D02*
X137540D01*
Y407860D01*
X121540D02*
X137540D01*
X121540Y399860D02*
Y407860D01*
X648760Y420350D02*
X654260D01*
Y409850D02*
Y420350D01*
X648760Y409850D02*
X654260D01*
X648760D02*
Y420350D01*
X646220Y406570D02*
X651720D01*
Y396070D02*
Y406570D01*
X646220Y396070D02*
X651720D01*
X646220D02*
Y406570D01*
X586530Y495130D02*
X592030D01*
X586530D02*
Y505630D01*
X592030D01*
Y495130D02*
Y505630D01*
X629710Y406380D02*
X635210D01*
Y395880D02*
Y406380D01*
X629710Y395880D02*
X635210D01*
X629710D02*
Y406380D01*
X604310Y494050D02*
X609810D01*
X604310D02*
Y504550D01*
X609810D01*
Y494050D02*
Y504550D01*
X653140Y458260D02*
Y463760D01*
X642640Y458260D02*
X653140D01*
X642640D02*
Y463760D01*
X653140D01*
X669080Y464650D02*
X674580D01*
X669080D02*
Y475150D01*
X674580D01*
Y464650D02*
Y475150D01*
X653140Y446830D02*
Y452330D01*
X642640Y446830D02*
X653140D01*
X642640D02*
Y452330D01*
X653140D01*
X638980Y434130D02*
Y439630D01*
X628480Y434130D02*
X638980D01*
X628480D02*
Y439630D01*
X638980D01*
X649880Y423970D02*
Y429470D01*
X660380D01*
Y423970D02*
Y429470D01*
X649880Y423970D02*
X660380D01*
X639170Y444290D02*
Y449790D01*
X628670Y444290D02*
X639170D01*
X628670D02*
Y449790D01*
X639170D01*
X653690Y436670D02*
Y442170D01*
X664190D01*
Y436670D02*
Y442170D01*
X653690Y436670D02*
X664190D01*
X682200Y495320D02*
Y505820D01*
X676700D02*
X682200D01*
X676700Y495320D02*
Y505820D01*
Y495320D02*
X682200D01*
X636060Y425620D02*
X641560D01*
Y415120D02*
Y425620D01*
X636060Y415120D02*
X641560D01*
X636060D02*
Y425620D01*
X577385Y480370D02*
Y487370D01*
X589385D01*
Y480370D02*
Y487370D01*
X577385Y480370D02*
X589385D01*
X377430Y684340D02*
Y692340D01*
X393430D01*
Y684340D02*
Y692340D01*
X377430Y684340D02*
X393430D01*
X377460Y661480D02*
Y669480D01*
X393460D01*
Y661480D02*
Y669480D01*
X377460Y661480D02*
X393460D01*
X377430Y705930D02*
Y713930D01*
X393430D01*
Y705930D02*
Y713930D01*
X377430Y705930D02*
X393430D01*
X203440Y302450D02*
X219440D01*
X203440Y294450D02*
Y302450D01*
Y294450D02*
X219440D01*
Y302450D01*
X340600Y437960D02*
Y445960D01*
X356600D01*
Y437960D02*
Y445960D01*
X340600Y437960D02*
X356600D01*
X198770Y246620D02*
Y276620D01*
X184770D02*
X198770D01*
X184770Y246620D02*
Y276620D01*
Y246620D02*
X198770D01*
X717946Y450890D02*
Y455890D01*
X707946Y450890D02*
X717946D01*
X707946D02*
Y455890D01*
X717946D01*
X576660Y445810D02*
X586660D01*
Y450810D01*
X576660D02*
X586660D01*
X576660Y445810D02*
Y450810D01*
X670600Y435690D02*
X675600D01*
X670600D02*
Y445690D01*
X675600D01*
Y435690D02*
Y445690D01*
X105883Y544640D02*
X121883D01*
Y552640D01*
X105883D02*
X121883D01*
X105883Y544640D02*
Y552640D01*
X150750Y382460D02*
X166750D01*
X150750Y374460D02*
Y382460D01*
Y374460D02*
X166750D01*
Y382460D01*
M02*
